M48
; DRILL file {KiCad 5.1.10-1.fc34} date Mon Jul  5 17:19:13 2021
; FORMAT={-:-/ absolute / metric / decimal}
; #@! TF.CreationDate,2021-07-05T17:19:13-07:00
; #@! TF.GenerationSoftware,Kicad,Pcbnew,5.1.10-1.fc34
; #@! TF.FileFunction,Plated,1,2,PTH
FMAT,2
METRIC
T1C0.300
T2C0.400
T3C0.800
T4C1.750
%
G90
G05
T1
X75.6Y-98.0
X76.2Y-104.1
X77.9Y-114.4
X78.5Y-109.1
X89.2Y-68.2
X99.8Y-89.9
X100.8Y-102.2
X100.9Y-100.2
X103.0Y-98.4
X103.4Y-86.6
X103.5Y-94.7
X103.6Y-76.8
X103.8Y-91.3
X104.3Y-81.8
X104.6Y-102.2
X104.9Y-80.5
X104.9Y-85.9
X105.867Y-88.067
X105.9Y-91.3
X107.442Y-109.474
X107.759Y-104.521
X108.1Y-85.9
X108.5Y-105.3
X109.855Y-99.377
X110.9Y-102.8
X113.2Y-76.112
X113.665Y-110.744
X114.1Y-102.7
X114.3Y-99.3
X116.7Y-69.9
X117.8Y-80.8
X118.3Y-94.9
X118.3Y-95.8
X118.3Y-97.0
X118.3Y-97.9
X118.5Y-105.4
X120.5Y-85.8
X120.5Y-91.0
X120.777Y-126.428
X120.9Y-76.1
X121.0Y-68.9
X121.3Y-78.5
X121.7Y-101.9
X123.5Y-86.9
X124.8Y-78.2
X125.3Y-99.8
X125.5Y-65.5
X126.0Y-93.5
X126.5Y-73.8
X126.5Y-87.7
X127.2Y-114.4
X128.2Y-90.5
X128.4Y-78.0
X128.4Y-93.3
X128.593Y-91.856
X129.0Y-109.7
X129.1Y-111.5
X129.2Y-91.3
X130.1Y-90.5
X130.365Y-98.742
X131.001Y-94.0
X131.9Y-106.8
X133.1Y-90.4
X133.2Y-68.7
X133.2Y-95.3
X133.8Y-71.9
X134.2Y-76.1
X134.2Y-93.7
X134.4Y-103.9
X134.6Y-68.7
X134.8Y-97.5
X134.855Y-101.755
X134.9Y-106.8
X134.967Y-92.917
X135.4Y-109.5
X135.6Y-92.6
X135.669Y-117.331
X135.9Y-113.3
X136.0Y-97.4
X136.2Y-87.2
X136.7Y-92.6
X136.9Y-128.2
X137.0Y-73.098
X137.4Y-99.8
X137.558Y-92.653
X137.9Y-90.9
X138.0Y-92.1
X138.0Y-95.2
X138.13Y-67.34
X138.6Y-69.0
X138.6Y-94.6
X138.9Y-99.7
X139.0Y-109.1
X139.3Y-93.144
X139.4Y-102.8
X139.8Y-72.6
X140.192Y-98.2
X140.4Y-103.5
X140.8Y-93.7
X140.883Y-68.784
X140.9Y-98.2
X142.2Y-101.0
X142.3Y-96.8
X142.4Y-83.5
X142.8Y-93.1
X143.4Y-100.0
X143.684Y-90.116
X144.0Y-107.9
X144.1Y-99.3
X144.1Y-101.0
X145.271Y-75.571
X145.285Y-102.97
X145.446Y-91.846
X146.4Y-102.2
X146.5Y-95.1
X146.6Y-99.7
X148.7Y-98.8
X149.7Y-72.8
X150.177Y-82.277
X151.4Y-97.5
X151.6Y-90.6
X152.0Y-99.9
X152.0Y-101.5
X153.8Y-103.4
X154.1Y-98.1
X154.3Y-105.8
X154.6Y-95.9
X155.0Y-100.1
X156.909Y-112.014
X157.0Y-83.7
X157.1Y-89.8
X159.4Y-87.9
X160.8Y-96.8
X161.8Y-90.5
X161.9Y-83.3
X161.9Y-92.6
X162.4Y-103.3
X162.6Y-90.3
X162.7Y-88.9
X162.9Y-105.4
X164.2Y-111.8
X164.211Y-101.536
X164.3Y-85.9
X164.9Y-87.6
X165.899Y-82.4
X165.9Y-105.7
X166.8Y-86.7
X170.3Y-82.0
X170.7Y-78.6
X174.4Y-106.3
X174.5Y-102.2
X177.3Y-79.8
X180.4Y-74.7
X182.4Y-95.6
X183.6Y-88.8
X184.975Y-117.665
X186.5Y-81.2
X186.8Y-102.8
X188.7Y-118.9
X190.4Y-85.9
X190.5Y-90.7
X191.9Y-79.6
X192.0Y-85.9
X193.5Y-120.4
X206.8Y-119.3
T2
X69.2Y-119.7
X69.7Y-111.5
X69.8Y-116.0
X74.2Y-111.3
X74.2Y-115.0
X74.6Y-123.3
X89.8Y-116.8
X105.029Y-75.882
X106.87Y-80.01
X110.299Y-86.741
X110.299Y-90.805
X111.5Y-122.3
X119.3Y-118.6
X143.0Y-120.5
X143.627Y-119.877
X144.627Y-119.877
X148.59Y-77.153
X153.162Y-68.199
X154.051Y-69.787
X156.2Y-115.2
X157.2Y-115.2
X158.2Y-115.2
X172.0Y-115.2
X172.9Y-115.2
X173.8Y-115.2
X182.944Y-71.374
X198.183Y-86.296
T3
X115.319Y-121.745
X115.319Y-125.245
T4
X80.328Y-83.155
X80.328Y-87.155
X80.328Y-91.155
X80.328Y-95.155
X80.328Y-99.155
X80.328Y-103.155
X80.328Y-107.155
X80.328Y-111.155
X84.328Y-85.155
X84.328Y-89.155
X84.328Y-93.155
X84.328Y-97.155
X84.328Y-101.155
X84.328Y-105.155
X84.328Y-109.155
X88.328Y-83.155
X88.328Y-87.155
X88.328Y-91.155
X88.328Y-95.155
X88.328Y-99.155
X88.328Y-103.155
X88.328Y-107.155
X88.328Y-111.155
X192.978Y-88.849
X192.978Y-92.849
X192.978Y-96.849
X192.978Y-100.849
X192.978Y-104.849
X196.978Y-90.849
X196.978Y-94.849
X196.978Y-98.849
X196.978Y-102.849
X200.978Y-88.849
X200.978Y-92.849
X200.978Y-96.849
X200.978Y-100.849
X200.978Y-104.849
T0
M30
