%FSLAX45Y45*%
G04 Gerber Fmt 4.5, Leading zero omitted, Abs format (unit mm)*
G04 Created by KiCad (PCBNEW 5.1.10-1.fc34) date 2021-07-05 17:19:39*
%MOMM*%
%LPD*%
G01*
G04 APERTURE LIST*
%TA.AperFunction,Profile*%
%ADD10C,0.050000*%
%TD*%
%ADD11C,0.200000*%
%ADD12C,0.300000*%
G04 APERTURE END LIST*
D10*
X21456650Y-12938900D02*
X21456650Y-6438900D01*
X6677550Y-12941200D02*
X21456650Y-12938900D01*
X6677550Y-6441200D02*
X6677550Y-12941200D01*
X21456650Y-6438900D02*
X6677550Y-6441200D01*
D11*
X13528870Y-7177420D02*
X13627930Y-7276480D01*
X13627930Y-7177420D02*
X13528870Y-7276480D01*
X13630470Y-6669420D02*
X13729530Y-6768480D01*
X13729530Y-6669420D02*
X13630470Y-6768480D01*
X13732070Y-7177420D02*
X13831130Y-7276480D01*
X13831130Y-7177420D02*
X13732070Y-7276480D01*
X7452800Y-7345500D02*
G75*
G03*
X7452800Y-7345500I-100000J0D01*
G01*
X7452800Y-12085500D02*
G75*
G03*
X7452800Y-12085500I-100000J0D01*
G01*
X9262800Y-7195500D02*
G75*
G03*
X9262800Y-7195500I-100000J0D01*
G01*
X9262800Y-12235500D02*
G75*
G03*
X9262800Y-12235500I-100000J0D01*
G01*
X19067800Y-7764850D02*
G75*
G03*
X19067800Y-7764850I-100000J0D01*
G01*
X19067800Y-11604850D02*
G75*
G03*
X19067800Y-11604850I-100000J0D01*
G01*
X20877800Y-7914850D02*
G75*
G03*
X20877800Y-7914850I-100000J0D01*
G01*
X20877800Y-11454850D02*
G75*
G03*
X20877800Y-11454850I-100000J0D01*
G01*
D12*
X6961478Y-13409414D02*
X6961478Y-13109414D01*
X7032907Y-13109414D01*
X7075764Y-13123700D01*
X7104336Y-13152271D01*
X7118621Y-13180843D01*
X7132907Y-13237986D01*
X7132907Y-13280843D01*
X7118621Y-13337986D01*
X7104336Y-13366557D01*
X7075764Y-13395129D01*
X7032907Y-13409414D01*
X6961478Y-13409414D01*
X7261478Y-13409414D02*
X7261478Y-13209414D01*
X7261478Y-13266557D02*
X7275764Y-13237986D01*
X7290050Y-13223700D01*
X7318621Y-13209414D01*
X7347193Y-13209414D01*
X7447193Y-13409414D02*
X7447193Y-13209414D01*
X7447193Y-13109414D02*
X7432907Y-13123700D01*
X7447193Y-13137986D01*
X7461478Y-13123700D01*
X7447193Y-13109414D01*
X7447193Y-13137986D01*
X7632907Y-13409414D02*
X7604336Y-13395129D01*
X7590050Y-13366557D01*
X7590050Y-13109414D01*
X7790050Y-13409414D02*
X7761478Y-13395129D01*
X7747193Y-13366557D01*
X7747193Y-13109414D01*
X8132907Y-13409414D02*
X8132907Y-13109414D01*
X8232907Y-13323700D01*
X8332907Y-13109414D01*
X8332907Y-13409414D01*
X8604336Y-13409414D02*
X8604336Y-13252271D01*
X8590050Y-13223700D01*
X8561478Y-13209414D01*
X8504336Y-13209414D01*
X8475764Y-13223700D01*
X8604336Y-13395129D02*
X8575764Y-13409414D01*
X8504336Y-13409414D01*
X8475764Y-13395129D01*
X8461478Y-13366557D01*
X8461478Y-13337986D01*
X8475764Y-13309414D01*
X8504336Y-13295129D01*
X8575764Y-13295129D01*
X8604336Y-13280843D01*
X8747193Y-13209414D02*
X8747193Y-13509414D01*
X8747193Y-13223700D02*
X8775764Y-13209414D01*
X8832907Y-13209414D01*
X8861478Y-13223700D01*
X8875764Y-13237986D01*
X8890050Y-13266557D01*
X8890050Y-13352271D01*
X8875764Y-13380843D01*
X8861478Y-13395129D01*
X8832907Y-13409414D01*
X8775764Y-13409414D01*
X8747193Y-13395129D01*
X9018621Y-13380843D02*
X9032907Y-13395129D01*
X9018621Y-13409414D01*
X9004336Y-13395129D01*
X9018621Y-13380843D01*
X9018621Y-13409414D01*
X9018621Y-13223700D02*
X9032907Y-13237986D01*
X9018621Y-13252271D01*
X9004336Y-13237986D01*
X9018621Y-13223700D01*
X9018621Y-13252271D01*
X6575990Y-13854170D02*
X6675050Y-13953230D01*
X6675050Y-13854170D02*
X6575990Y-13953230D01*
X7018621Y-13739414D02*
X7047193Y-13739414D01*
X7075764Y-13753700D01*
X7090050Y-13767986D01*
X7104336Y-13796557D01*
X7118621Y-13853700D01*
X7118621Y-13925129D01*
X7104336Y-13982271D01*
X7090050Y-14010843D01*
X7075764Y-14025129D01*
X7047193Y-14039414D01*
X7018621Y-14039414D01*
X6990050Y-14025129D01*
X6975764Y-14010843D01*
X6961478Y-13982271D01*
X6947193Y-13925129D01*
X6947193Y-13853700D01*
X6961478Y-13796557D01*
X6975764Y-13767986D01*
X6990050Y-13753700D01*
X7018621Y-13739414D01*
X7247193Y-14010843D02*
X7261478Y-14025129D01*
X7247193Y-14039414D01*
X7232907Y-14025129D01*
X7247193Y-14010843D01*
X7247193Y-14039414D01*
X7404336Y-14039414D02*
X7461478Y-14039414D01*
X7490050Y-14025129D01*
X7504336Y-14010843D01*
X7532907Y-13967986D01*
X7547193Y-13910843D01*
X7547193Y-13796557D01*
X7532907Y-13767986D01*
X7518621Y-13753700D01*
X7490050Y-13739414D01*
X7432907Y-13739414D01*
X7404336Y-13753700D01*
X7390050Y-13767986D01*
X7375764Y-13796557D01*
X7375764Y-13867986D01*
X7390050Y-13896557D01*
X7404336Y-13910843D01*
X7432907Y-13925129D01*
X7490050Y-13925129D01*
X7518621Y-13910843D01*
X7532907Y-13896557D01*
X7547193Y-13867986D01*
X7690050Y-14039414D02*
X7747193Y-14039414D01*
X7775764Y-14025129D01*
X7790050Y-14010843D01*
X7818621Y-13967986D01*
X7832907Y-13910843D01*
X7832907Y-13796557D01*
X7818621Y-13767986D01*
X7804336Y-13753700D01*
X7775764Y-13739414D01*
X7718621Y-13739414D01*
X7690050Y-13753700D01*
X7675764Y-13767986D01*
X7661478Y-13796557D01*
X7661478Y-13867986D01*
X7675764Y-13896557D01*
X7690050Y-13910843D01*
X7718621Y-13925129D01*
X7775764Y-13925129D01*
X7804336Y-13910843D01*
X7818621Y-13896557D01*
X7832907Y-13867986D01*
X8118621Y-14039414D02*
X7947193Y-14039414D01*
X8032907Y-14039414D02*
X8032907Y-13739414D01*
X8004336Y-13782271D01*
X7975764Y-13810843D01*
X7947193Y-13825129D01*
X8247193Y-14039414D02*
X8247193Y-13839414D01*
X8247193Y-13867986D02*
X8261478Y-13853700D01*
X8290050Y-13839414D01*
X8332907Y-13839414D01*
X8361478Y-13853700D01*
X8375764Y-13882271D01*
X8375764Y-14039414D01*
X8375764Y-13882271D02*
X8390050Y-13853700D01*
X8418621Y-13839414D01*
X8461478Y-13839414D01*
X8490050Y-13853700D01*
X8504336Y-13882271D01*
X8504336Y-14039414D01*
X8647193Y-14039414D02*
X8647193Y-13839414D01*
X8647193Y-13867986D02*
X8661478Y-13853700D01*
X8690050Y-13839414D01*
X8732907Y-13839414D01*
X8761478Y-13853700D01*
X8775764Y-13882271D01*
X8775764Y-14039414D01*
X8775764Y-13882271D02*
X8790050Y-13853700D01*
X8818621Y-13839414D01*
X8861478Y-13839414D01*
X8890050Y-13853700D01*
X8904336Y-13882271D01*
X8904336Y-14039414D01*
X9490050Y-13725129D02*
X9232907Y-14110843D01*
X9875764Y-13739414D02*
X9904336Y-13739414D01*
X9932907Y-13753700D01*
X9947193Y-13767986D01*
X9961478Y-13796557D01*
X9975764Y-13853700D01*
X9975764Y-13925129D01*
X9961478Y-13982271D01*
X9947193Y-14010843D01*
X9932907Y-14025129D01*
X9904336Y-14039414D01*
X9875764Y-14039414D01*
X9847193Y-14025129D01*
X9832907Y-14010843D01*
X9818621Y-13982271D01*
X9804336Y-13925129D01*
X9804336Y-13853700D01*
X9818621Y-13796557D01*
X9832907Y-13767986D01*
X9847193Y-13753700D01*
X9875764Y-13739414D01*
X10104336Y-14010843D02*
X10118621Y-14025129D01*
X10104336Y-14039414D01*
X10090050Y-14025129D01*
X10104336Y-14010843D01*
X10104336Y-14039414D01*
X10304336Y-13739414D02*
X10332907Y-13739414D01*
X10361478Y-13753700D01*
X10375764Y-13767986D01*
X10390050Y-13796557D01*
X10404336Y-13853700D01*
X10404336Y-13925129D01*
X10390050Y-13982271D01*
X10375764Y-14010843D01*
X10361478Y-14025129D01*
X10332907Y-14039414D01*
X10304336Y-14039414D01*
X10275764Y-14025129D01*
X10261478Y-14010843D01*
X10247193Y-13982271D01*
X10232907Y-13925129D01*
X10232907Y-13853700D01*
X10247193Y-13796557D01*
X10261478Y-13767986D01*
X10275764Y-13753700D01*
X10304336Y-13739414D01*
X10504336Y-13739414D02*
X10690050Y-13739414D01*
X10590050Y-13853700D01*
X10632907Y-13853700D01*
X10661478Y-13867986D01*
X10675764Y-13882271D01*
X10690050Y-13910843D01*
X10690050Y-13982271D01*
X10675764Y-14010843D01*
X10661478Y-14025129D01*
X10632907Y-14039414D01*
X10547193Y-14039414D01*
X10518621Y-14025129D01*
X10504336Y-14010843D01*
X10832907Y-14039414D02*
X10890050Y-14039414D01*
X10918621Y-14025129D01*
X10932907Y-14010843D01*
X10961478Y-13967986D01*
X10975764Y-13910843D01*
X10975764Y-13796557D01*
X10961478Y-13767986D01*
X10947193Y-13753700D01*
X10918621Y-13739414D01*
X10861478Y-13739414D01*
X10832907Y-13753700D01*
X10818621Y-13767986D01*
X10804336Y-13796557D01*
X10804336Y-13867986D01*
X10818621Y-13896557D01*
X10832907Y-13910843D01*
X10861478Y-13925129D01*
X10918621Y-13925129D01*
X10947193Y-13910843D01*
X10961478Y-13896557D01*
X10975764Y-13867986D01*
X11161478Y-13739414D02*
X11190050Y-13739414D01*
X11218621Y-13753700D01*
X11232907Y-13767986D01*
X11247193Y-13796557D01*
X11261478Y-13853700D01*
X11261478Y-13925129D01*
X11247193Y-13982271D01*
X11232907Y-14010843D01*
X11218621Y-14025129D01*
X11190050Y-14039414D01*
X11161478Y-14039414D01*
X11132907Y-14025129D01*
X11118621Y-14010843D01*
X11104336Y-13982271D01*
X11090050Y-13925129D01*
X11090050Y-13853700D01*
X11104336Y-13796557D01*
X11118621Y-13767986D01*
X11132907Y-13753700D01*
X11161478Y-13739414D01*
X11375764Y-13739414D02*
X11375764Y-13796557D01*
X11490050Y-13739414D02*
X11490050Y-13796557D01*
X11932907Y-14153700D02*
X11918621Y-14139414D01*
X11890050Y-14096557D01*
X11875764Y-14067986D01*
X11861478Y-14025129D01*
X11847193Y-13953700D01*
X11847193Y-13896557D01*
X11861478Y-13825129D01*
X11875764Y-13782271D01*
X11890050Y-13753700D01*
X11918621Y-13710843D01*
X11932907Y-13696557D01*
X12018621Y-13739414D02*
X12204336Y-13739414D01*
X12104336Y-13853700D01*
X12147193Y-13853700D01*
X12175764Y-13867986D01*
X12190050Y-13882271D01*
X12204336Y-13910843D01*
X12204336Y-13982271D01*
X12190050Y-14010843D01*
X12175764Y-14025129D01*
X12147193Y-14039414D01*
X12061478Y-14039414D01*
X12032907Y-14025129D01*
X12018621Y-14010843D01*
X12561478Y-14039414D02*
X12561478Y-13739414D01*
X12690050Y-14039414D02*
X12690050Y-13882271D01*
X12675764Y-13853700D01*
X12647193Y-13839414D01*
X12604336Y-13839414D01*
X12575764Y-13853700D01*
X12561478Y-13867986D01*
X12875764Y-14039414D02*
X12847193Y-14025129D01*
X12832907Y-14010843D01*
X12818621Y-13982271D01*
X12818621Y-13896557D01*
X12832907Y-13867986D01*
X12847193Y-13853700D01*
X12875764Y-13839414D01*
X12918621Y-13839414D01*
X12947193Y-13853700D01*
X12961478Y-13867986D01*
X12975764Y-13896557D01*
X12975764Y-13982271D01*
X12961478Y-14010843D01*
X12947193Y-14025129D01*
X12918621Y-14039414D01*
X12875764Y-14039414D01*
X13147193Y-14039414D02*
X13118621Y-14025129D01*
X13104336Y-13996557D01*
X13104336Y-13739414D01*
X13375764Y-14025129D02*
X13347193Y-14039414D01*
X13290050Y-14039414D01*
X13261478Y-14025129D01*
X13247193Y-13996557D01*
X13247193Y-13882271D01*
X13261478Y-13853700D01*
X13290050Y-13839414D01*
X13347193Y-13839414D01*
X13375764Y-13853700D01*
X13390050Y-13882271D01*
X13390050Y-13910843D01*
X13247193Y-13939414D01*
X13504336Y-14025129D02*
X13532907Y-14039414D01*
X13590050Y-14039414D01*
X13618621Y-14025129D01*
X13632907Y-13996557D01*
X13632907Y-13982271D01*
X13618621Y-13953700D01*
X13590050Y-13939414D01*
X13547193Y-13939414D01*
X13518621Y-13925129D01*
X13504336Y-13896557D01*
X13504336Y-13882271D01*
X13518621Y-13853700D01*
X13547193Y-13839414D01*
X13590050Y-13839414D01*
X13618621Y-13853700D01*
X13732907Y-14153700D02*
X13747193Y-14139414D01*
X13775764Y-14096557D01*
X13790050Y-14067986D01*
X13804336Y-14025129D01*
X13818621Y-13953700D01*
X13818621Y-13896557D01*
X13804336Y-13825129D01*
X13790050Y-13782271D01*
X13775764Y-13753700D01*
X13747193Y-13710843D01*
X13732907Y-13696557D01*
X14275764Y-14153700D02*
X14261478Y-14139414D01*
X14232907Y-14096557D01*
X14218621Y-14067986D01*
X14204336Y-14025129D01*
X14190050Y-13953700D01*
X14190050Y-13896557D01*
X14204336Y-13825129D01*
X14218621Y-13782271D01*
X14232907Y-13753700D01*
X14261478Y-13710843D01*
X14275764Y-13696557D01*
X14390050Y-13839414D02*
X14390050Y-14039414D01*
X14390050Y-13867986D02*
X14404336Y-13853700D01*
X14432907Y-13839414D01*
X14475764Y-13839414D01*
X14504336Y-13853700D01*
X14518621Y-13882271D01*
X14518621Y-14039414D01*
X14704336Y-14039414D02*
X14675764Y-14025129D01*
X14661478Y-14010843D01*
X14647193Y-13982271D01*
X14647193Y-13896557D01*
X14661478Y-13867986D01*
X14675764Y-13853700D01*
X14704336Y-13839414D01*
X14747193Y-13839414D01*
X14775764Y-13853700D01*
X14790050Y-13867986D01*
X14804336Y-13896557D01*
X14804336Y-13982271D01*
X14790050Y-14010843D01*
X14775764Y-14025129D01*
X14747193Y-14039414D01*
X14704336Y-14039414D01*
X14890050Y-13839414D02*
X15004336Y-13839414D01*
X14932907Y-13739414D02*
X14932907Y-13996557D01*
X14947193Y-14025129D01*
X14975764Y-14039414D01*
X15004336Y-14039414D01*
X15332907Y-13839414D02*
X15332907Y-14139414D01*
X15332907Y-13853700D02*
X15361478Y-13839414D01*
X15418621Y-13839414D01*
X15447193Y-13853700D01*
X15461478Y-13867986D01*
X15475764Y-13896557D01*
X15475764Y-13982271D01*
X15461478Y-14010843D01*
X15447193Y-14025129D01*
X15418621Y-14039414D01*
X15361478Y-14039414D01*
X15332907Y-14025129D01*
X15647193Y-14039414D02*
X15618621Y-14025129D01*
X15604336Y-13996557D01*
X15604336Y-13739414D01*
X15890050Y-14039414D02*
X15890050Y-13882271D01*
X15875764Y-13853700D01*
X15847193Y-13839414D01*
X15790050Y-13839414D01*
X15761478Y-13853700D01*
X15890050Y-14025129D02*
X15861478Y-14039414D01*
X15790050Y-14039414D01*
X15761478Y-14025129D01*
X15747193Y-13996557D01*
X15747193Y-13967986D01*
X15761478Y-13939414D01*
X15790050Y-13925129D01*
X15861478Y-13925129D01*
X15890050Y-13910843D01*
X15990050Y-13839414D02*
X16104336Y-13839414D01*
X16032907Y-13739414D02*
X16032907Y-13996557D01*
X16047193Y-14025129D01*
X16075764Y-14039414D01*
X16104336Y-14039414D01*
X16318621Y-14025129D02*
X16290050Y-14039414D01*
X16232907Y-14039414D01*
X16204336Y-14025129D01*
X16190050Y-13996557D01*
X16190050Y-13882271D01*
X16204336Y-13853700D01*
X16232907Y-13839414D01*
X16290050Y-13839414D01*
X16318621Y-13853700D01*
X16332907Y-13882271D01*
X16332907Y-13910843D01*
X16190050Y-13939414D01*
X16590050Y-14039414D02*
X16590050Y-13739414D01*
X16590050Y-14025129D02*
X16561478Y-14039414D01*
X16504336Y-14039414D01*
X16475764Y-14025129D01*
X16461478Y-14010843D01*
X16447193Y-13982271D01*
X16447193Y-13896557D01*
X16461478Y-13867986D01*
X16475764Y-13853700D01*
X16504336Y-13839414D01*
X16561478Y-13839414D01*
X16590050Y-13853700D01*
X16704336Y-14153700D02*
X16718621Y-14139414D01*
X16747193Y-14096557D01*
X16761478Y-14067986D01*
X16775764Y-14025129D01*
X16790050Y-13953700D01*
X16790050Y-13896557D01*
X16775764Y-13825129D01*
X16761478Y-13782271D01*
X16747193Y-13753700D01*
X16718621Y-13710843D01*
X16704336Y-13696557D01*
X6675050Y-14299700D02*
G75*
G03*
X6675050Y-14299700I-100000J0D01*
G01*
X6947193Y-14163986D02*
X6961478Y-14149700D01*
X6990050Y-14135414D01*
X7061478Y-14135414D01*
X7090050Y-14149700D01*
X7104336Y-14163986D01*
X7118621Y-14192557D01*
X7118621Y-14221129D01*
X7104336Y-14263986D01*
X6932907Y-14435414D01*
X7118621Y-14435414D01*
X7247193Y-14406843D02*
X7261478Y-14421129D01*
X7247193Y-14435414D01*
X7232907Y-14421129D01*
X7247193Y-14406843D01*
X7247193Y-14435414D01*
X7447193Y-14135414D02*
X7475764Y-14135414D01*
X7504336Y-14149700D01*
X7518621Y-14163986D01*
X7532907Y-14192557D01*
X7547193Y-14249700D01*
X7547193Y-14321129D01*
X7532907Y-14378271D01*
X7518621Y-14406843D01*
X7504336Y-14421129D01*
X7475764Y-14435414D01*
X7447193Y-14435414D01*
X7418621Y-14421129D01*
X7404336Y-14406843D01*
X7390050Y-14378271D01*
X7375764Y-14321129D01*
X7375764Y-14249700D01*
X7390050Y-14192557D01*
X7404336Y-14163986D01*
X7418621Y-14149700D01*
X7447193Y-14135414D01*
X7732907Y-14135414D02*
X7761478Y-14135414D01*
X7790050Y-14149700D01*
X7804336Y-14163986D01*
X7818621Y-14192557D01*
X7832907Y-14249700D01*
X7832907Y-14321129D01*
X7818621Y-14378271D01*
X7804336Y-14406843D01*
X7790050Y-14421129D01*
X7761478Y-14435414D01*
X7732907Y-14435414D01*
X7704336Y-14421129D01*
X7690050Y-14406843D01*
X7675764Y-14378271D01*
X7661478Y-14321129D01*
X7661478Y-14249700D01*
X7675764Y-14192557D01*
X7690050Y-14163986D01*
X7704336Y-14149700D01*
X7732907Y-14135414D01*
X8018621Y-14135414D02*
X8047193Y-14135414D01*
X8075764Y-14149700D01*
X8090050Y-14163986D01*
X8104336Y-14192557D01*
X8118621Y-14249700D01*
X8118621Y-14321129D01*
X8104336Y-14378271D01*
X8090050Y-14406843D01*
X8075764Y-14421129D01*
X8047193Y-14435414D01*
X8018621Y-14435414D01*
X7990050Y-14421129D01*
X7975764Y-14406843D01*
X7961478Y-14378271D01*
X7947193Y-14321129D01*
X7947193Y-14249700D01*
X7961478Y-14192557D01*
X7975764Y-14163986D01*
X7990050Y-14149700D01*
X8018621Y-14135414D01*
X8247193Y-14435414D02*
X8247193Y-14235414D01*
X8247193Y-14263986D02*
X8261478Y-14249700D01*
X8290050Y-14235414D01*
X8332907Y-14235414D01*
X8361478Y-14249700D01*
X8375764Y-14278271D01*
X8375764Y-14435414D01*
X8375764Y-14278271D02*
X8390050Y-14249700D01*
X8418621Y-14235414D01*
X8461478Y-14235414D01*
X8490050Y-14249700D01*
X8504336Y-14278271D01*
X8504336Y-14435414D01*
X8647193Y-14435414D02*
X8647193Y-14235414D01*
X8647193Y-14263986D02*
X8661478Y-14249700D01*
X8690050Y-14235414D01*
X8732907Y-14235414D01*
X8761478Y-14249700D01*
X8775764Y-14278271D01*
X8775764Y-14435414D01*
X8775764Y-14278271D02*
X8790050Y-14249700D01*
X8818621Y-14235414D01*
X8861478Y-14235414D01*
X8890050Y-14249700D01*
X8904336Y-14278271D01*
X8904336Y-14435414D01*
X9490050Y-14121129D02*
X9232907Y-14506843D01*
X9875764Y-14135414D02*
X9904336Y-14135414D01*
X9932907Y-14149700D01*
X9947193Y-14163986D01*
X9961478Y-14192557D01*
X9975764Y-14249700D01*
X9975764Y-14321129D01*
X9961478Y-14378271D01*
X9947193Y-14406843D01*
X9932907Y-14421129D01*
X9904336Y-14435414D01*
X9875764Y-14435414D01*
X9847193Y-14421129D01*
X9832907Y-14406843D01*
X9818621Y-14378271D01*
X9804336Y-14321129D01*
X9804336Y-14249700D01*
X9818621Y-14192557D01*
X9832907Y-14163986D01*
X9847193Y-14149700D01*
X9875764Y-14135414D01*
X10104336Y-14406843D02*
X10118621Y-14421129D01*
X10104336Y-14435414D01*
X10090050Y-14421129D01*
X10104336Y-14406843D01*
X10104336Y-14435414D01*
X10304336Y-14135414D02*
X10332907Y-14135414D01*
X10361478Y-14149700D01*
X10375764Y-14163986D01*
X10390050Y-14192557D01*
X10404336Y-14249700D01*
X10404336Y-14321129D01*
X10390050Y-14378271D01*
X10375764Y-14406843D01*
X10361478Y-14421129D01*
X10332907Y-14435414D01*
X10304336Y-14435414D01*
X10275764Y-14421129D01*
X10261478Y-14406843D01*
X10247193Y-14378271D01*
X10232907Y-14321129D01*
X10232907Y-14249700D01*
X10247193Y-14192557D01*
X10261478Y-14163986D01*
X10275764Y-14149700D01*
X10304336Y-14135414D01*
X10504336Y-14135414D02*
X10704336Y-14135414D01*
X10575764Y-14435414D01*
X10861478Y-14263986D02*
X10832907Y-14249700D01*
X10818621Y-14235414D01*
X10804336Y-14206843D01*
X10804336Y-14192557D01*
X10818621Y-14163986D01*
X10832907Y-14149700D01*
X10861478Y-14135414D01*
X10918621Y-14135414D01*
X10947193Y-14149700D01*
X10961478Y-14163986D01*
X10975764Y-14192557D01*
X10975764Y-14206843D01*
X10961478Y-14235414D01*
X10947193Y-14249700D01*
X10918621Y-14263986D01*
X10861478Y-14263986D01*
X10832907Y-14278271D01*
X10818621Y-14292557D01*
X10804336Y-14321129D01*
X10804336Y-14378271D01*
X10818621Y-14406843D01*
X10832907Y-14421129D01*
X10861478Y-14435414D01*
X10918621Y-14435414D01*
X10947193Y-14421129D01*
X10961478Y-14406843D01*
X10975764Y-14378271D01*
X10975764Y-14321129D01*
X10961478Y-14292557D01*
X10947193Y-14278271D01*
X10918621Y-14263986D01*
X11075764Y-14135414D02*
X11275764Y-14135414D01*
X11147193Y-14435414D01*
X11375764Y-14135414D02*
X11375764Y-14192557D01*
X11490050Y-14135414D02*
X11490050Y-14192557D01*
X11932907Y-14549700D02*
X11918621Y-14535414D01*
X11890050Y-14492557D01*
X11875764Y-14463986D01*
X11861478Y-14421129D01*
X11847193Y-14349700D01*
X11847193Y-14292557D01*
X11861478Y-14221129D01*
X11875764Y-14178271D01*
X11890050Y-14149700D01*
X11918621Y-14106843D01*
X11932907Y-14092557D01*
X12090050Y-14263986D02*
X12061478Y-14249700D01*
X12047193Y-14235414D01*
X12032907Y-14206843D01*
X12032907Y-14192557D01*
X12047193Y-14163986D01*
X12061478Y-14149700D01*
X12090050Y-14135414D01*
X12147193Y-14135414D01*
X12175764Y-14149700D01*
X12190050Y-14163986D01*
X12204336Y-14192557D01*
X12204336Y-14206843D01*
X12190050Y-14235414D01*
X12175764Y-14249700D01*
X12147193Y-14263986D01*
X12090050Y-14263986D01*
X12061478Y-14278271D01*
X12047193Y-14292557D01*
X12032907Y-14321129D01*
X12032907Y-14378271D01*
X12047193Y-14406843D01*
X12061478Y-14421129D01*
X12090050Y-14435414D01*
X12147193Y-14435414D01*
X12175764Y-14421129D01*
X12190050Y-14406843D01*
X12204336Y-14378271D01*
X12204336Y-14321129D01*
X12190050Y-14292557D01*
X12175764Y-14278271D01*
X12147193Y-14263986D01*
X12561478Y-14435414D02*
X12561478Y-14135414D01*
X12690050Y-14435414D02*
X12690050Y-14278271D01*
X12675764Y-14249700D01*
X12647193Y-14235414D01*
X12604336Y-14235414D01*
X12575764Y-14249700D01*
X12561478Y-14263986D01*
X12875764Y-14435414D02*
X12847193Y-14421129D01*
X12832907Y-14406843D01*
X12818621Y-14378271D01*
X12818621Y-14292557D01*
X12832907Y-14263986D01*
X12847193Y-14249700D01*
X12875764Y-14235414D01*
X12918621Y-14235414D01*
X12947193Y-14249700D01*
X12961478Y-14263986D01*
X12975764Y-14292557D01*
X12975764Y-14378271D01*
X12961478Y-14406843D01*
X12947193Y-14421129D01*
X12918621Y-14435414D01*
X12875764Y-14435414D01*
X13147193Y-14435414D02*
X13118621Y-14421129D01*
X13104336Y-14392557D01*
X13104336Y-14135414D01*
X13375764Y-14421129D02*
X13347193Y-14435414D01*
X13290050Y-14435414D01*
X13261478Y-14421129D01*
X13247193Y-14392557D01*
X13247193Y-14278271D01*
X13261478Y-14249700D01*
X13290050Y-14235414D01*
X13347193Y-14235414D01*
X13375764Y-14249700D01*
X13390050Y-14278271D01*
X13390050Y-14306843D01*
X13247193Y-14335414D01*
X13504336Y-14421129D02*
X13532907Y-14435414D01*
X13590050Y-14435414D01*
X13618621Y-14421129D01*
X13632907Y-14392557D01*
X13632907Y-14378271D01*
X13618621Y-14349700D01*
X13590050Y-14335414D01*
X13547193Y-14335414D01*
X13518621Y-14321129D01*
X13504336Y-14292557D01*
X13504336Y-14278271D01*
X13518621Y-14249700D01*
X13547193Y-14235414D01*
X13590050Y-14235414D01*
X13618621Y-14249700D01*
X13732907Y-14549700D02*
X13747193Y-14535414D01*
X13775764Y-14492557D01*
X13790050Y-14463986D01*
X13804336Y-14421129D01*
X13818621Y-14349700D01*
X13818621Y-14292557D01*
X13804336Y-14221129D01*
X13790050Y-14178271D01*
X13775764Y-14149700D01*
X13747193Y-14106843D01*
X13732907Y-14092557D01*
X14275764Y-14549700D02*
X14261478Y-14535414D01*
X14232907Y-14492557D01*
X14218621Y-14463986D01*
X14204336Y-14421129D01*
X14190050Y-14349700D01*
X14190050Y-14292557D01*
X14204336Y-14221129D01*
X14218621Y-14178271D01*
X14232907Y-14149700D01*
X14261478Y-14106843D01*
X14275764Y-14092557D01*
X14390050Y-14235414D02*
X14390050Y-14435414D01*
X14390050Y-14263986D02*
X14404336Y-14249700D01*
X14432907Y-14235414D01*
X14475764Y-14235414D01*
X14504336Y-14249700D01*
X14518621Y-14278271D01*
X14518621Y-14435414D01*
X14704336Y-14435414D02*
X14675764Y-14421129D01*
X14661478Y-14406843D01*
X14647193Y-14378271D01*
X14647193Y-14292557D01*
X14661478Y-14263986D01*
X14675764Y-14249700D01*
X14704336Y-14235414D01*
X14747193Y-14235414D01*
X14775764Y-14249700D01*
X14790050Y-14263986D01*
X14804336Y-14292557D01*
X14804336Y-14378271D01*
X14790050Y-14406843D01*
X14775764Y-14421129D01*
X14747193Y-14435414D01*
X14704336Y-14435414D01*
X14890050Y-14235414D02*
X15004336Y-14235414D01*
X14932907Y-14135414D02*
X14932907Y-14392557D01*
X14947193Y-14421129D01*
X14975764Y-14435414D01*
X15004336Y-14435414D01*
X15332907Y-14235414D02*
X15332907Y-14535414D01*
X15332907Y-14249700D02*
X15361478Y-14235414D01*
X15418621Y-14235414D01*
X15447193Y-14249700D01*
X15461478Y-14263986D01*
X15475764Y-14292557D01*
X15475764Y-14378271D01*
X15461478Y-14406843D01*
X15447193Y-14421129D01*
X15418621Y-14435414D01*
X15361478Y-14435414D01*
X15332907Y-14421129D01*
X15647193Y-14435414D02*
X15618621Y-14421129D01*
X15604336Y-14392557D01*
X15604336Y-14135414D01*
X15890050Y-14435414D02*
X15890050Y-14278271D01*
X15875764Y-14249700D01*
X15847193Y-14235414D01*
X15790050Y-14235414D01*
X15761478Y-14249700D01*
X15890050Y-14421129D02*
X15861478Y-14435414D01*
X15790050Y-14435414D01*
X15761478Y-14421129D01*
X15747193Y-14392557D01*
X15747193Y-14363986D01*
X15761478Y-14335414D01*
X15790050Y-14321129D01*
X15861478Y-14321129D01*
X15890050Y-14306843D01*
X15990050Y-14235414D02*
X16104336Y-14235414D01*
X16032907Y-14135414D02*
X16032907Y-14392557D01*
X16047193Y-14421129D01*
X16075764Y-14435414D01*
X16104336Y-14435414D01*
X16318621Y-14421129D02*
X16290050Y-14435414D01*
X16232907Y-14435414D01*
X16204336Y-14421129D01*
X16190050Y-14392557D01*
X16190050Y-14278271D01*
X16204336Y-14249700D01*
X16232907Y-14235414D01*
X16290050Y-14235414D01*
X16318621Y-14249700D01*
X16332907Y-14278271D01*
X16332907Y-14306843D01*
X16190050Y-14335414D01*
X16590050Y-14435414D02*
X16590050Y-14135414D01*
X16590050Y-14421129D02*
X16561478Y-14435414D01*
X16504336Y-14435414D01*
X16475764Y-14421129D01*
X16461478Y-14406843D01*
X16447193Y-14378271D01*
X16447193Y-14292557D01*
X16461478Y-14263986D01*
X16475764Y-14249700D01*
X16504336Y-14235414D01*
X16561478Y-14235414D01*
X16590050Y-14249700D01*
X16704336Y-14549700D02*
X16718621Y-14535414D01*
X16747193Y-14492557D01*
X16761478Y-14463986D01*
X16775764Y-14421129D01*
X16790050Y-14349700D01*
X16790050Y-14292557D01*
X16775764Y-14221129D01*
X16761478Y-14178271D01*
X16747193Y-14149700D01*
X16718621Y-14106843D01*
X16704336Y-14092557D01*
M02*
