G04 #@! TF.GenerationSoftware,KiCad,Pcbnew,5.1.10-1.fc34*
G04 #@! TF.CreationDate,2021-07-05T17:18:35-07:00*
G04 #@! TF.ProjectId,prius_gen2,70726975-735f-4676-956e-322e6b696361,rev?*
G04 #@! TF.SameCoordinates,Original*
G04 #@! TF.FileFunction,Paste,Top*
G04 #@! TF.FilePolarity,Positive*
%FSLAX46Y46*%
G04 Gerber Fmt 4.6, Leading zero omitted, Abs format (unit mm)*
G04 Created by KiCad (PCBNEW 5.1.10-1.fc34) date 2021-07-05 17:18:35*
%MOMM*%
%LPD*%
G01*
G04 APERTURE LIST*
%ADD10R,1.900000X2.500000*%
%ADD11R,2.750000X3.050000*%
%ADD12R,1.200000X2.200000*%
%ADD13C,0.100000*%
%ADD14R,1.500000X2.000000*%
%ADD15R,3.800000X2.000000*%
%ADD16R,2.000000X0.900000*%
%ADD17R,0.900000X2.000000*%
%ADD18R,5.000000X5.000000*%
%ADD19R,3.200000X1.000000*%
%ADD20R,1.800000X2.500000*%
%ADD21R,2.500000X1.800000*%
%ADD22R,3.300000X2.500000*%
%ADD23R,0.700000X0.450000*%
G04 APERTURE END LIST*
D10*
X141400000Y-118300000D03*
X137300000Y-118300000D03*
G36*
G01*
X126105000Y-98598000D02*
X126105000Y-98098000D01*
G75*
G02*
X126330000Y-97873000I225000J0D01*
G01*
X126780000Y-97873000D01*
G75*
G02*
X127005000Y-98098000I0J-225000D01*
G01*
X127005000Y-98598000D01*
G75*
G02*
X126780000Y-98823000I-225000J0D01*
G01*
X126330000Y-98823000D01*
G75*
G02*
X126105000Y-98598000I0J225000D01*
G01*
G37*
G36*
G01*
X124555000Y-98598000D02*
X124555000Y-98098000D01*
G75*
G02*
X124780000Y-97873000I225000J0D01*
G01*
X125230000Y-97873000D01*
G75*
G02*
X125455000Y-98098000I0J-225000D01*
G01*
X125455000Y-98598000D01*
G75*
G02*
X125230000Y-98823000I-225000J0D01*
G01*
X124780000Y-98823000D01*
G75*
G02*
X124555000Y-98598000I0J225000D01*
G01*
G37*
D11*
X85854000Y-121499500D03*
X82804000Y-118149500D03*
X82804000Y-121499500D03*
X85854000Y-118149500D03*
D12*
X86609000Y-126124500D03*
X82049000Y-126124500D03*
D11*
X82676000Y-72815000D03*
X85726000Y-76165000D03*
X85726000Y-72815000D03*
X82676000Y-76165000D03*
D12*
X81921000Y-68190000D03*
X86481000Y-68190000D03*
D13*
G36*
X129807513Y-102797569D02*
G01*
X131504569Y-101100513D01*
X132918783Y-102514727D01*
X131221727Y-104211783D01*
X129807513Y-102797569D01*
G37*
G36*
X127191217Y-100181273D02*
G01*
X128888273Y-98484217D01*
X130302487Y-99898431D01*
X128605431Y-101595487D01*
X127191217Y-100181273D01*
G37*
D14*
X151468000Y-119877500D03*
X146868000Y-119877500D03*
X149168000Y-119877500D03*
D15*
X149168000Y-126177500D03*
G36*
G01*
X126998500Y-122620500D02*
X126998500Y-121870500D01*
G75*
G02*
X127228500Y-121640500I230000J0D01*
G01*
X127688500Y-121640500D01*
G75*
G02*
X127918500Y-121870500I0J-230000D01*
G01*
X127918500Y-122620500D01*
G75*
G02*
X127688500Y-122850500I-230000J0D01*
G01*
X127228500Y-122850500D01*
G75*
G02*
X126998500Y-122620500I0J230000D01*
G01*
G37*
G36*
G01*
X126998500Y-121120500D02*
X126998500Y-120370500D01*
G75*
G02*
X127228500Y-120140500I230000J0D01*
G01*
X127688500Y-120140500D01*
G75*
G02*
X127918500Y-120370500I0J-230000D01*
G01*
X127918500Y-121120500D01*
G75*
G02*
X127688500Y-121350500I-230000J0D01*
G01*
X127228500Y-121350500D01*
G75*
G02*
X126998500Y-121120500I0J230000D01*
G01*
G37*
G36*
G01*
X125858500Y-122620500D02*
X125858500Y-121870500D01*
G75*
G02*
X126088500Y-121640500I230000J0D01*
G01*
X126548500Y-121640500D01*
G75*
G02*
X126778500Y-121870500I0J-230000D01*
G01*
X126778500Y-122620500D01*
G75*
G02*
X126548500Y-122850500I-230000J0D01*
G01*
X126088500Y-122850500D01*
G75*
G02*
X125858500Y-122620500I0J230000D01*
G01*
G37*
G36*
G01*
X125858500Y-121120500D02*
X125858500Y-120370500D01*
G75*
G02*
X126088500Y-120140500I230000J0D01*
G01*
X126548500Y-120140500D01*
G75*
G02*
X126778500Y-120370500I0J-230000D01*
G01*
X126778500Y-121120500D01*
G75*
G02*
X126548500Y-121350500I-230000J0D01*
G01*
X126088500Y-121350500D01*
G75*
G02*
X125858500Y-121120500I0J230000D01*
G01*
G37*
G36*
G01*
X128388500Y-119740500D02*
X128388500Y-119440500D01*
G75*
G02*
X128538500Y-119290500I150000J0D01*
G01*
X130188500Y-119290500D01*
G75*
G02*
X130338500Y-119440500I0J-150000D01*
G01*
X130338500Y-119740500D01*
G75*
G02*
X130188500Y-119890500I-150000J0D01*
G01*
X128538500Y-119890500D01*
G75*
G02*
X128388500Y-119740500I0J150000D01*
G01*
G37*
G36*
G01*
X128388500Y-121010500D02*
X128388500Y-120710500D01*
G75*
G02*
X128538500Y-120560500I150000J0D01*
G01*
X130188500Y-120560500D01*
G75*
G02*
X130338500Y-120710500I0J-150000D01*
G01*
X130338500Y-121010500D01*
G75*
G02*
X130188500Y-121160500I-150000J0D01*
G01*
X128538500Y-121160500D01*
G75*
G02*
X128388500Y-121010500I0J150000D01*
G01*
G37*
G36*
G01*
X128388500Y-122280500D02*
X128388500Y-121980500D01*
G75*
G02*
X128538500Y-121830500I150000J0D01*
G01*
X130188500Y-121830500D01*
G75*
G02*
X130338500Y-121980500I0J-150000D01*
G01*
X130338500Y-122280500D01*
G75*
G02*
X130188500Y-122430500I-150000J0D01*
G01*
X128538500Y-122430500D01*
G75*
G02*
X128388500Y-122280500I0J150000D01*
G01*
G37*
G36*
G01*
X128388500Y-123550500D02*
X128388500Y-123250500D01*
G75*
G02*
X128538500Y-123100500I150000J0D01*
G01*
X130188500Y-123100500D01*
G75*
G02*
X130338500Y-123250500I0J-150000D01*
G01*
X130338500Y-123550500D01*
G75*
G02*
X130188500Y-123700500I-150000J0D01*
G01*
X128538500Y-123700500D01*
G75*
G02*
X128388500Y-123550500I0J150000D01*
G01*
G37*
G36*
G01*
X123438500Y-123550500D02*
X123438500Y-123250500D01*
G75*
G02*
X123588500Y-123100500I150000J0D01*
G01*
X125238500Y-123100500D01*
G75*
G02*
X125388500Y-123250500I0J-150000D01*
G01*
X125388500Y-123550500D01*
G75*
G02*
X125238500Y-123700500I-150000J0D01*
G01*
X123588500Y-123700500D01*
G75*
G02*
X123438500Y-123550500I0J150000D01*
G01*
G37*
G36*
G01*
X123438500Y-122280500D02*
X123438500Y-121980500D01*
G75*
G02*
X123588500Y-121830500I150000J0D01*
G01*
X125238500Y-121830500D01*
G75*
G02*
X125388500Y-121980500I0J-150000D01*
G01*
X125388500Y-122280500D01*
G75*
G02*
X125238500Y-122430500I-150000J0D01*
G01*
X123588500Y-122430500D01*
G75*
G02*
X123438500Y-122280500I0J150000D01*
G01*
G37*
G36*
G01*
X123438500Y-121010500D02*
X123438500Y-120710500D01*
G75*
G02*
X123588500Y-120560500I150000J0D01*
G01*
X125238500Y-120560500D01*
G75*
G02*
X125388500Y-120710500I0J-150000D01*
G01*
X125388500Y-121010500D01*
G75*
G02*
X125238500Y-121160500I-150000J0D01*
G01*
X123588500Y-121160500D01*
G75*
G02*
X123438500Y-121010500I0J150000D01*
G01*
G37*
G36*
G01*
X123438500Y-119740500D02*
X123438500Y-119440500D01*
G75*
G02*
X123588500Y-119290500I150000J0D01*
G01*
X125238500Y-119290500D01*
G75*
G02*
X125388500Y-119440500I0J-150000D01*
G01*
X125388500Y-119740500D01*
G75*
G02*
X125238500Y-119890500I-150000J0D01*
G01*
X123588500Y-119890500D01*
G75*
G02*
X123438500Y-119740500I0J150000D01*
G01*
G37*
G36*
G01*
X112475500Y-104856500D02*
X112475500Y-105606500D01*
G75*
G02*
X112245500Y-105836500I-230000J0D01*
G01*
X111785500Y-105836500D01*
G75*
G02*
X111555500Y-105606500I0J230000D01*
G01*
X111555500Y-104856500D01*
G75*
G02*
X111785500Y-104626500I230000J0D01*
G01*
X112245500Y-104626500D01*
G75*
G02*
X112475500Y-104856500I0J-230000D01*
G01*
G37*
G36*
G01*
X112475500Y-106356500D02*
X112475500Y-107106500D01*
G75*
G02*
X112245500Y-107336500I-230000J0D01*
G01*
X111785500Y-107336500D01*
G75*
G02*
X111555500Y-107106500I0J230000D01*
G01*
X111555500Y-106356500D01*
G75*
G02*
X111785500Y-106126500I230000J0D01*
G01*
X112245500Y-106126500D01*
G75*
G02*
X112475500Y-106356500I0J-230000D01*
G01*
G37*
G36*
G01*
X113615500Y-104856500D02*
X113615500Y-105606500D01*
G75*
G02*
X113385500Y-105836500I-230000J0D01*
G01*
X112925500Y-105836500D01*
G75*
G02*
X112695500Y-105606500I0J230000D01*
G01*
X112695500Y-104856500D01*
G75*
G02*
X112925500Y-104626500I230000J0D01*
G01*
X113385500Y-104626500D01*
G75*
G02*
X113615500Y-104856500I0J-230000D01*
G01*
G37*
G36*
G01*
X113615500Y-106356500D02*
X113615500Y-107106500D01*
G75*
G02*
X113385500Y-107336500I-230000J0D01*
G01*
X112925500Y-107336500D01*
G75*
G02*
X112695500Y-107106500I0J230000D01*
G01*
X112695500Y-106356500D01*
G75*
G02*
X112925500Y-106126500I230000J0D01*
G01*
X113385500Y-106126500D01*
G75*
G02*
X113615500Y-106356500I0J-230000D01*
G01*
G37*
G36*
G01*
X111085500Y-107736500D02*
X111085500Y-108036500D01*
G75*
G02*
X110935500Y-108186500I-150000J0D01*
G01*
X109285500Y-108186500D01*
G75*
G02*
X109135500Y-108036500I0J150000D01*
G01*
X109135500Y-107736500D01*
G75*
G02*
X109285500Y-107586500I150000J0D01*
G01*
X110935500Y-107586500D01*
G75*
G02*
X111085500Y-107736500I0J-150000D01*
G01*
G37*
G36*
G01*
X111085500Y-106466500D02*
X111085500Y-106766500D01*
G75*
G02*
X110935500Y-106916500I-150000J0D01*
G01*
X109285500Y-106916500D01*
G75*
G02*
X109135500Y-106766500I0J150000D01*
G01*
X109135500Y-106466500D01*
G75*
G02*
X109285500Y-106316500I150000J0D01*
G01*
X110935500Y-106316500D01*
G75*
G02*
X111085500Y-106466500I0J-150000D01*
G01*
G37*
G36*
G01*
X111085500Y-105196500D02*
X111085500Y-105496500D01*
G75*
G02*
X110935500Y-105646500I-150000J0D01*
G01*
X109285500Y-105646500D01*
G75*
G02*
X109135500Y-105496500I0J150000D01*
G01*
X109135500Y-105196500D01*
G75*
G02*
X109285500Y-105046500I150000J0D01*
G01*
X110935500Y-105046500D01*
G75*
G02*
X111085500Y-105196500I0J-150000D01*
G01*
G37*
G36*
G01*
X111085500Y-103926500D02*
X111085500Y-104226500D01*
G75*
G02*
X110935500Y-104376500I-150000J0D01*
G01*
X109285500Y-104376500D01*
G75*
G02*
X109135500Y-104226500I0J150000D01*
G01*
X109135500Y-103926500D01*
G75*
G02*
X109285500Y-103776500I150000J0D01*
G01*
X110935500Y-103776500D01*
G75*
G02*
X111085500Y-103926500I0J-150000D01*
G01*
G37*
G36*
G01*
X116035500Y-103926500D02*
X116035500Y-104226500D01*
G75*
G02*
X115885500Y-104376500I-150000J0D01*
G01*
X114235500Y-104376500D01*
G75*
G02*
X114085500Y-104226500I0J150000D01*
G01*
X114085500Y-103926500D01*
G75*
G02*
X114235500Y-103776500I150000J0D01*
G01*
X115885500Y-103776500D01*
G75*
G02*
X116035500Y-103926500I0J-150000D01*
G01*
G37*
G36*
G01*
X116035500Y-105196500D02*
X116035500Y-105496500D01*
G75*
G02*
X115885500Y-105646500I-150000J0D01*
G01*
X114235500Y-105646500D01*
G75*
G02*
X114085500Y-105496500I0J150000D01*
G01*
X114085500Y-105196500D01*
G75*
G02*
X114235500Y-105046500I150000J0D01*
G01*
X115885500Y-105046500D01*
G75*
G02*
X116035500Y-105196500I0J-150000D01*
G01*
G37*
G36*
G01*
X116035500Y-106466500D02*
X116035500Y-106766500D01*
G75*
G02*
X115885500Y-106916500I-150000J0D01*
G01*
X114235500Y-106916500D01*
G75*
G02*
X114085500Y-106766500I0J150000D01*
G01*
X114085500Y-106466500D01*
G75*
G02*
X114235500Y-106316500I150000J0D01*
G01*
X115885500Y-106316500D01*
G75*
G02*
X116035500Y-106466500I0J-150000D01*
G01*
G37*
G36*
G01*
X116035500Y-107736500D02*
X116035500Y-108036500D01*
G75*
G02*
X115885500Y-108186500I-150000J0D01*
G01*
X114235500Y-108186500D01*
G75*
G02*
X114085500Y-108036500I0J150000D01*
G01*
X114085500Y-107736500D01*
G75*
G02*
X114235500Y-107586500I150000J0D01*
G01*
X115885500Y-107586500D01*
G75*
G02*
X116035500Y-107736500I0J-150000D01*
G01*
G37*
G36*
G01*
X146505000Y-75274000D02*
X146230000Y-75274000D01*
G75*
G02*
X146092500Y-75136500I0J137500D01*
G01*
X146092500Y-73811500D01*
G75*
G02*
X146230000Y-73674000I137500J0D01*
G01*
X146505000Y-73674000D01*
G75*
G02*
X146642500Y-73811500I0J-137500D01*
G01*
X146642500Y-75136500D01*
G75*
G02*
X146505000Y-75274000I-137500J0D01*
G01*
G37*
G36*
G01*
X147775000Y-75274000D02*
X147500000Y-75274000D01*
G75*
G02*
X147362500Y-75136500I0J137500D01*
G01*
X147362500Y-73811500D01*
G75*
G02*
X147500000Y-73674000I137500J0D01*
G01*
X147775000Y-73674000D01*
G75*
G02*
X147912500Y-73811500I0J-137500D01*
G01*
X147912500Y-75136500D01*
G75*
G02*
X147775000Y-75274000I-137500J0D01*
G01*
G37*
G36*
G01*
X149045000Y-75274000D02*
X148770000Y-75274000D01*
G75*
G02*
X148632500Y-75136500I0J137500D01*
G01*
X148632500Y-73811500D01*
G75*
G02*
X148770000Y-73674000I137500J0D01*
G01*
X149045000Y-73674000D01*
G75*
G02*
X149182500Y-73811500I0J-137500D01*
G01*
X149182500Y-75136500D01*
G75*
G02*
X149045000Y-75274000I-137500J0D01*
G01*
G37*
G36*
G01*
X150315000Y-75274000D02*
X150040000Y-75274000D01*
G75*
G02*
X149902500Y-75136500I0J137500D01*
G01*
X149902500Y-73811500D01*
G75*
G02*
X150040000Y-73674000I137500J0D01*
G01*
X150315000Y-73674000D01*
G75*
G02*
X150452500Y-73811500I0J-137500D01*
G01*
X150452500Y-75136500D01*
G75*
G02*
X150315000Y-75274000I-137500J0D01*
G01*
G37*
G36*
G01*
X151585000Y-75274000D02*
X151310000Y-75274000D01*
G75*
G02*
X151172500Y-75136500I0J137500D01*
G01*
X151172500Y-73811500D01*
G75*
G02*
X151310000Y-73674000I137500J0D01*
G01*
X151585000Y-73674000D01*
G75*
G02*
X151722500Y-73811500I0J-137500D01*
G01*
X151722500Y-75136500D01*
G75*
G02*
X151585000Y-75274000I-137500J0D01*
G01*
G37*
G36*
G01*
X152855000Y-75274000D02*
X152580000Y-75274000D01*
G75*
G02*
X152442500Y-75136500I0J137500D01*
G01*
X152442500Y-73811500D01*
G75*
G02*
X152580000Y-73674000I137500J0D01*
G01*
X152855000Y-73674000D01*
G75*
G02*
X152992500Y-73811500I0J-137500D01*
G01*
X152992500Y-75136500D01*
G75*
G02*
X152855000Y-75274000I-137500J0D01*
G01*
G37*
G36*
G01*
X154125000Y-75274000D02*
X153850000Y-75274000D01*
G75*
G02*
X153712500Y-75136500I0J137500D01*
G01*
X153712500Y-73811500D01*
G75*
G02*
X153850000Y-73674000I137500J0D01*
G01*
X154125000Y-73674000D01*
G75*
G02*
X154262500Y-73811500I0J-137500D01*
G01*
X154262500Y-75136500D01*
G75*
G02*
X154125000Y-75274000I-137500J0D01*
G01*
G37*
G36*
G01*
X155395000Y-75274000D02*
X155120000Y-75274000D01*
G75*
G02*
X154982500Y-75136500I0J137500D01*
G01*
X154982500Y-73811500D01*
G75*
G02*
X155120000Y-73674000I137500J0D01*
G01*
X155395000Y-73674000D01*
G75*
G02*
X155532500Y-73811500I0J-137500D01*
G01*
X155532500Y-75136500D01*
G75*
G02*
X155395000Y-75274000I-137500J0D01*
G01*
G37*
G36*
G01*
X155395000Y-81774000D02*
X155120000Y-81774000D01*
G75*
G02*
X154982500Y-81636500I0J137500D01*
G01*
X154982500Y-80311500D01*
G75*
G02*
X155120000Y-80174000I137500J0D01*
G01*
X155395000Y-80174000D01*
G75*
G02*
X155532500Y-80311500I0J-137500D01*
G01*
X155532500Y-81636500D01*
G75*
G02*
X155395000Y-81774000I-137500J0D01*
G01*
G37*
G36*
G01*
X154125000Y-81774000D02*
X153850000Y-81774000D01*
G75*
G02*
X153712500Y-81636500I0J137500D01*
G01*
X153712500Y-80311500D01*
G75*
G02*
X153850000Y-80174000I137500J0D01*
G01*
X154125000Y-80174000D01*
G75*
G02*
X154262500Y-80311500I0J-137500D01*
G01*
X154262500Y-81636500D01*
G75*
G02*
X154125000Y-81774000I-137500J0D01*
G01*
G37*
G36*
G01*
X152855000Y-81774000D02*
X152580000Y-81774000D01*
G75*
G02*
X152442500Y-81636500I0J137500D01*
G01*
X152442500Y-80311500D01*
G75*
G02*
X152580000Y-80174000I137500J0D01*
G01*
X152855000Y-80174000D01*
G75*
G02*
X152992500Y-80311500I0J-137500D01*
G01*
X152992500Y-81636500D01*
G75*
G02*
X152855000Y-81774000I-137500J0D01*
G01*
G37*
G36*
G01*
X151585000Y-81774000D02*
X151310000Y-81774000D01*
G75*
G02*
X151172500Y-81636500I0J137500D01*
G01*
X151172500Y-80311500D01*
G75*
G02*
X151310000Y-80174000I137500J0D01*
G01*
X151585000Y-80174000D01*
G75*
G02*
X151722500Y-80311500I0J-137500D01*
G01*
X151722500Y-81636500D01*
G75*
G02*
X151585000Y-81774000I-137500J0D01*
G01*
G37*
G36*
G01*
X150315000Y-81774000D02*
X150040000Y-81774000D01*
G75*
G02*
X149902500Y-81636500I0J137500D01*
G01*
X149902500Y-80311500D01*
G75*
G02*
X150040000Y-80174000I137500J0D01*
G01*
X150315000Y-80174000D01*
G75*
G02*
X150452500Y-80311500I0J-137500D01*
G01*
X150452500Y-81636500D01*
G75*
G02*
X150315000Y-81774000I-137500J0D01*
G01*
G37*
G36*
G01*
X149045000Y-81774000D02*
X148770000Y-81774000D01*
G75*
G02*
X148632500Y-81636500I0J137500D01*
G01*
X148632500Y-80311500D01*
G75*
G02*
X148770000Y-80174000I137500J0D01*
G01*
X149045000Y-80174000D01*
G75*
G02*
X149182500Y-80311500I0J-137500D01*
G01*
X149182500Y-81636500D01*
G75*
G02*
X149045000Y-81774000I-137500J0D01*
G01*
G37*
G36*
G01*
X147775000Y-81774000D02*
X147500000Y-81774000D01*
G75*
G02*
X147362500Y-81636500I0J137500D01*
G01*
X147362500Y-80311500D01*
G75*
G02*
X147500000Y-80174000I137500J0D01*
G01*
X147775000Y-80174000D01*
G75*
G02*
X147912500Y-80311500I0J-137500D01*
G01*
X147912500Y-81636500D01*
G75*
G02*
X147775000Y-81774000I-137500J0D01*
G01*
G37*
G36*
G01*
X146505000Y-81774000D02*
X146230000Y-81774000D01*
G75*
G02*
X146092500Y-81636500I0J137500D01*
G01*
X146092500Y-80311500D01*
G75*
G02*
X146230000Y-80174000I137500J0D01*
G01*
X146505000Y-80174000D01*
G75*
G02*
X146642500Y-80311500I0J-137500D01*
G01*
X146642500Y-81636500D01*
G75*
G02*
X146505000Y-81774000I-137500J0D01*
G01*
G37*
G36*
G01*
X170639500Y-84247500D02*
X170639500Y-84997500D01*
G75*
G02*
X170409500Y-85227500I-230000J0D01*
G01*
X169949500Y-85227500D01*
G75*
G02*
X169719500Y-84997500I0J230000D01*
G01*
X169719500Y-84247500D01*
G75*
G02*
X169949500Y-84017500I230000J0D01*
G01*
X170409500Y-84017500D01*
G75*
G02*
X170639500Y-84247500I0J-230000D01*
G01*
G37*
G36*
G01*
X170639500Y-85747500D02*
X170639500Y-86497500D01*
G75*
G02*
X170409500Y-86727500I-230000J0D01*
G01*
X169949500Y-86727500D01*
G75*
G02*
X169719500Y-86497500I0J230000D01*
G01*
X169719500Y-85747500D01*
G75*
G02*
X169949500Y-85517500I230000J0D01*
G01*
X170409500Y-85517500D01*
G75*
G02*
X170639500Y-85747500I0J-230000D01*
G01*
G37*
G36*
G01*
X171779500Y-84247500D02*
X171779500Y-84997500D01*
G75*
G02*
X171549500Y-85227500I-230000J0D01*
G01*
X171089500Y-85227500D01*
G75*
G02*
X170859500Y-84997500I0J230000D01*
G01*
X170859500Y-84247500D01*
G75*
G02*
X171089500Y-84017500I230000J0D01*
G01*
X171549500Y-84017500D01*
G75*
G02*
X171779500Y-84247500I0J-230000D01*
G01*
G37*
G36*
G01*
X171779500Y-85747500D02*
X171779500Y-86497500D01*
G75*
G02*
X171549500Y-86727500I-230000J0D01*
G01*
X171089500Y-86727500D01*
G75*
G02*
X170859500Y-86497500I0J230000D01*
G01*
X170859500Y-85747500D01*
G75*
G02*
X171089500Y-85517500I230000J0D01*
G01*
X171549500Y-85517500D01*
G75*
G02*
X171779500Y-85747500I0J-230000D01*
G01*
G37*
G36*
G01*
X169249500Y-87127500D02*
X169249500Y-87427500D01*
G75*
G02*
X169099500Y-87577500I-150000J0D01*
G01*
X167449500Y-87577500D01*
G75*
G02*
X167299500Y-87427500I0J150000D01*
G01*
X167299500Y-87127500D01*
G75*
G02*
X167449500Y-86977500I150000J0D01*
G01*
X169099500Y-86977500D01*
G75*
G02*
X169249500Y-87127500I0J-150000D01*
G01*
G37*
G36*
G01*
X169249500Y-85857500D02*
X169249500Y-86157500D01*
G75*
G02*
X169099500Y-86307500I-150000J0D01*
G01*
X167449500Y-86307500D01*
G75*
G02*
X167299500Y-86157500I0J150000D01*
G01*
X167299500Y-85857500D01*
G75*
G02*
X167449500Y-85707500I150000J0D01*
G01*
X169099500Y-85707500D01*
G75*
G02*
X169249500Y-85857500I0J-150000D01*
G01*
G37*
G36*
G01*
X169249500Y-84587500D02*
X169249500Y-84887500D01*
G75*
G02*
X169099500Y-85037500I-150000J0D01*
G01*
X167449500Y-85037500D01*
G75*
G02*
X167299500Y-84887500I0J150000D01*
G01*
X167299500Y-84587500D01*
G75*
G02*
X167449500Y-84437500I150000J0D01*
G01*
X169099500Y-84437500D01*
G75*
G02*
X169249500Y-84587500I0J-150000D01*
G01*
G37*
G36*
G01*
X169249500Y-83317500D02*
X169249500Y-83617500D01*
G75*
G02*
X169099500Y-83767500I-150000J0D01*
G01*
X167449500Y-83767500D01*
G75*
G02*
X167299500Y-83617500I0J150000D01*
G01*
X167299500Y-83317500D01*
G75*
G02*
X167449500Y-83167500I150000J0D01*
G01*
X169099500Y-83167500D01*
G75*
G02*
X169249500Y-83317500I0J-150000D01*
G01*
G37*
G36*
G01*
X174199500Y-83317500D02*
X174199500Y-83617500D01*
G75*
G02*
X174049500Y-83767500I-150000J0D01*
G01*
X172399500Y-83767500D01*
G75*
G02*
X172249500Y-83617500I0J150000D01*
G01*
X172249500Y-83317500D01*
G75*
G02*
X172399500Y-83167500I150000J0D01*
G01*
X174049500Y-83167500D01*
G75*
G02*
X174199500Y-83317500I0J-150000D01*
G01*
G37*
G36*
G01*
X174199500Y-84587500D02*
X174199500Y-84887500D01*
G75*
G02*
X174049500Y-85037500I-150000J0D01*
G01*
X172399500Y-85037500D01*
G75*
G02*
X172249500Y-84887500I0J150000D01*
G01*
X172249500Y-84587500D01*
G75*
G02*
X172399500Y-84437500I150000J0D01*
G01*
X174049500Y-84437500D01*
G75*
G02*
X174199500Y-84587500I0J-150000D01*
G01*
G37*
G36*
G01*
X174199500Y-85857500D02*
X174199500Y-86157500D01*
G75*
G02*
X174049500Y-86307500I-150000J0D01*
G01*
X172399500Y-86307500D01*
G75*
G02*
X172249500Y-86157500I0J150000D01*
G01*
X172249500Y-85857500D01*
G75*
G02*
X172399500Y-85707500I150000J0D01*
G01*
X174049500Y-85707500D01*
G75*
G02*
X174199500Y-85857500I0J-150000D01*
G01*
G37*
G36*
G01*
X174199500Y-87127500D02*
X174199500Y-87427500D01*
G75*
G02*
X174049500Y-87577500I-150000J0D01*
G01*
X172399500Y-87577500D01*
G75*
G02*
X172249500Y-87427500I0J150000D01*
G01*
X172249500Y-87127500D01*
G75*
G02*
X172399500Y-86977500I150000J0D01*
G01*
X174049500Y-86977500D01*
G75*
G02*
X174199500Y-87127500I0J-150000D01*
G01*
G37*
G36*
G01*
X176964000Y-95722000D02*
X177389000Y-95722000D01*
G75*
G02*
X177601500Y-95934500I0J-212500D01*
G01*
X177601500Y-96734500D01*
G75*
G02*
X177389000Y-96947000I-212500J0D01*
G01*
X176964000Y-96947000D01*
G75*
G02*
X176751500Y-96734500I0J212500D01*
G01*
X176751500Y-95934500D01*
G75*
G02*
X176964000Y-95722000I212500J0D01*
G01*
G37*
G36*
G01*
X176964000Y-94097000D02*
X177389000Y-94097000D01*
G75*
G02*
X177601500Y-94309500I0J-212500D01*
G01*
X177601500Y-95109500D01*
G75*
G02*
X177389000Y-95322000I-212500J0D01*
G01*
X176964000Y-95322000D01*
G75*
G02*
X176751500Y-95109500I0J212500D01*
G01*
X176751500Y-94309500D01*
G75*
G02*
X176964000Y-94097000I212500J0D01*
G01*
G37*
G36*
G01*
X128871000Y-89013000D02*
X128871000Y-88588000D01*
G75*
G02*
X129083500Y-88375500I212500J0D01*
G01*
X129883500Y-88375500D01*
G75*
G02*
X130096000Y-88588000I0J-212500D01*
G01*
X130096000Y-89013000D01*
G75*
G02*
X129883500Y-89225500I-212500J0D01*
G01*
X129083500Y-89225500D01*
G75*
G02*
X128871000Y-89013000I0J212500D01*
G01*
G37*
G36*
G01*
X127246000Y-89013000D02*
X127246000Y-88588000D01*
G75*
G02*
X127458500Y-88375500I212500J0D01*
G01*
X128258500Y-88375500D01*
G75*
G02*
X128471000Y-88588000I0J-212500D01*
G01*
X128471000Y-89013000D01*
G75*
G02*
X128258500Y-89225500I-212500J0D01*
G01*
X127458500Y-89225500D01*
G75*
G02*
X127246000Y-89013000I0J212500D01*
G01*
G37*
D16*
X160541500Y-116644000D03*
X160541500Y-115374000D03*
X160541500Y-114104000D03*
X160541500Y-112834000D03*
X160541500Y-111564000D03*
X160541500Y-110294000D03*
X160541500Y-109024000D03*
X160541500Y-107754000D03*
X160541500Y-106484000D03*
X160541500Y-105214000D03*
X160541500Y-103944000D03*
X160541500Y-102674000D03*
X160541500Y-101404000D03*
X160541500Y-100134000D03*
D17*
X163326500Y-99134000D03*
X164596500Y-99134000D03*
X165866500Y-99134000D03*
X167136500Y-99134000D03*
X168406500Y-99134000D03*
X169676500Y-99134000D03*
X170946500Y-99134000D03*
X172216500Y-99134000D03*
X173486500Y-99134000D03*
X174756500Y-99134000D03*
D16*
X177541500Y-100134000D03*
X177541500Y-101404000D03*
X177541500Y-102674000D03*
X177541500Y-103944000D03*
X177541500Y-105214000D03*
X177541500Y-106484000D03*
X177541500Y-107754000D03*
X177541500Y-109024000D03*
X177541500Y-110294000D03*
X177541500Y-111564000D03*
X177541500Y-112834000D03*
X177541500Y-114104000D03*
X177541500Y-115374000D03*
X177541500Y-116644000D03*
D18*
X170041500Y-109144000D03*
G36*
G01*
X106185000Y-74425000D02*
X106185000Y-74125000D01*
G75*
G02*
X106335000Y-73975000I150000J0D01*
G01*
X107985000Y-73975000D01*
G75*
G02*
X108135000Y-74125000I0J-150000D01*
G01*
X108135000Y-74425000D01*
G75*
G02*
X107985000Y-74575000I-150000J0D01*
G01*
X106335000Y-74575000D01*
G75*
G02*
X106185000Y-74425000I0J150000D01*
G01*
G37*
G36*
G01*
X106185000Y-75695000D02*
X106185000Y-75395000D01*
G75*
G02*
X106335000Y-75245000I150000J0D01*
G01*
X107985000Y-75245000D01*
G75*
G02*
X108135000Y-75395000I0J-150000D01*
G01*
X108135000Y-75695000D01*
G75*
G02*
X107985000Y-75845000I-150000J0D01*
G01*
X106335000Y-75845000D01*
G75*
G02*
X106185000Y-75695000I0J150000D01*
G01*
G37*
G36*
G01*
X106185000Y-76965000D02*
X106185000Y-76665000D01*
G75*
G02*
X106335000Y-76515000I150000J0D01*
G01*
X107985000Y-76515000D01*
G75*
G02*
X108135000Y-76665000I0J-150000D01*
G01*
X108135000Y-76965000D01*
G75*
G02*
X107985000Y-77115000I-150000J0D01*
G01*
X106335000Y-77115000D01*
G75*
G02*
X106185000Y-76965000I0J150000D01*
G01*
G37*
G36*
G01*
X106185000Y-78235000D02*
X106185000Y-77935000D01*
G75*
G02*
X106335000Y-77785000I150000J0D01*
G01*
X107985000Y-77785000D01*
G75*
G02*
X108135000Y-77935000I0J-150000D01*
G01*
X108135000Y-78235000D01*
G75*
G02*
X107985000Y-78385000I-150000J0D01*
G01*
X106335000Y-78385000D01*
G75*
G02*
X106185000Y-78235000I0J150000D01*
G01*
G37*
G36*
G01*
X101235000Y-78235000D02*
X101235000Y-77935000D01*
G75*
G02*
X101385000Y-77785000I150000J0D01*
G01*
X103035000Y-77785000D01*
G75*
G02*
X103185000Y-77935000I0J-150000D01*
G01*
X103185000Y-78235000D01*
G75*
G02*
X103035000Y-78385000I-150000J0D01*
G01*
X101385000Y-78385000D01*
G75*
G02*
X101235000Y-78235000I0J150000D01*
G01*
G37*
G36*
G01*
X101235000Y-76965000D02*
X101235000Y-76665000D01*
G75*
G02*
X101385000Y-76515000I150000J0D01*
G01*
X103035000Y-76515000D01*
G75*
G02*
X103185000Y-76665000I0J-150000D01*
G01*
X103185000Y-76965000D01*
G75*
G02*
X103035000Y-77115000I-150000J0D01*
G01*
X101385000Y-77115000D01*
G75*
G02*
X101235000Y-76965000I0J150000D01*
G01*
G37*
G36*
G01*
X101235000Y-75695000D02*
X101235000Y-75395000D01*
G75*
G02*
X101385000Y-75245000I150000J0D01*
G01*
X103035000Y-75245000D01*
G75*
G02*
X103185000Y-75395000I0J-150000D01*
G01*
X103185000Y-75695000D01*
G75*
G02*
X103035000Y-75845000I-150000J0D01*
G01*
X101385000Y-75845000D01*
G75*
G02*
X101235000Y-75695000I0J150000D01*
G01*
G37*
G36*
G01*
X101235000Y-74425000D02*
X101235000Y-74125000D01*
G75*
G02*
X101385000Y-73975000I150000J0D01*
G01*
X103035000Y-73975000D01*
G75*
G02*
X103185000Y-74125000I0J-150000D01*
G01*
X103185000Y-74425000D01*
G75*
G02*
X103035000Y-74575000I-150000J0D01*
G01*
X101385000Y-74575000D01*
G75*
G02*
X101235000Y-74425000I0J150000D01*
G01*
G37*
G36*
G01*
X131395544Y-96810222D02*
X131289478Y-96704156D01*
G75*
G02*
X131289478Y-96598090I53033J53033D01*
G01*
X132279428Y-95608140D01*
G75*
G02*
X132385494Y-95608140I53033J-53033D01*
G01*
X132491560Y-95714206D01*
G75*
G02*
X132491560Y-95820272I-53033J-53033D01*
G01*
X131501610Y-96810222D01*
G75*
G02*
X131395544Y-96810222I-53033J53033D01*
G01*
G37*
G36*
G01*
X131749097Y-97163775D02*
X131643031Y-97057709D01*
G75*
G02*
X131643031Y-96951643I53033J53033D01*
G01*
X132632981Y-95961693D01*
G75*
G02*
X132739047Y-95961693I53033J-53033D01*
G01*
X132845113Y-96067759D01*
G75*
G02*
X132845113Y-96173825I-53033J-53033D01*
G01*
X131855163Y-97163775D01*
G75*
G02*
X131749097Y-97163775I-53033J53033D01*
G01*
G37*
G36*
G01*
X132102650Y-97517328D02*
X131996584Y-97411262D01*
G75*
G02*
X131996584Y-97305196I53033J53033D01*
G01*
X132986534Y-96315246D01*
G75*
G02*
X133092600Y-96315246I53033J-53033D01*
G01*
X133198666Y-96421312D01*
G75*
G02*
X133198666Y-96527378I-53033J-53033D01*
G01*
X132208716Y-97517328D01*
G75*
G02*
X132102650Y-97517328I-53033J53033D01*
G01*
G37*
G36*
G01*
X132456204Y-97870882D02*
X132350138Y-97764816D01*
G75*
G02*
X132350138Y-97658750I53033J53033D01*
G01*
X133340088Y-96668800D01*
G75*
G02*
X133446154Y-96668800I53033J-53033D01*
G01*
X133552220Y-96774866D01*
G75*
G02*
X133552220Y-96880932I-53033J-53033D01*
G01*
X132562270Y-97870882D01*
G75*
G02*
X132456204Y-97870882I-53033J53033D01*
G01*
G37*
G36*
G01*
X132809757Y-98224435D02*
X132703691Y-98118369D01*
G75*
G02*
X132703691Y-98012303I53033J53033D01*
G01*
X133693641Y-97022353D01*
G75*
G02*
X133799707Y-97022353I53033J-53033D01*
G01*
X133905773Y-97128419D01*
G75*
G02*
X133905773Y-97234485I-53033J-53033D01*
G01*
X132915823Y-98224435D01*
G75*
G02*
X132809757Y-98224435I-53033J53033D01*
G01*
G37*
G36*
G01*
X133163311Y-98577989D02*
X133057245Y-98471923D01*
G75*
G02*
X133057245Y-98365857I53033J53033D01*
G01*
X134047195Y-97375907D01*
G75*
G02*
X134153261Y-97375907I53033J-53033D01*
G01*
X134259327Y-97481973D01*
G75*
G02*
X134259327Y-97588039I-53033J-53033D01*
G01*
X133269377Y-98577989D01*
G75*
G02*
X133163311Y-98577989I-53033J53033D01*
G01*
G37*
G36*
G01*
X133516864Y-98931542D02*
X133410798Y-98825476D01*
G75*
G02*
X133410798Y-98719410I53033J53033D01*
G01*
X134400748Y-97729460D01*
G75*
G02*
X134506814Y-97729460I53033J-53033D01*
G01*
X134612880Y-97835526D01*
G75*
G02*
X134612880Y-97941592I-53033J-53033D01*
G01*
X133622930Y-98931542D01*
G75*
G02*
X133516864Y-98931542I-53033J53033D01*
G01*
G37*
G36*
G01*
X133870417Y-99285095D02*
X133764351Y-99179029D01*
G75*
G02*
X133764351Y-99072963I53033J53033D01*
G01*
X134754301Y-98083013D01*
G75*
G02*
X134860367Y-98083013I53033J-53033D01*
G01*
X134966433Y-98189079D01*
G75*
G02*
X134966433Y-98295145I-53033J-53033D01*
G01*
X133976483Y-99285095D01*
G75*
G02*
X133870417Y-99285095I-53033J53033D01*
G01*
G37*
G36*
G01*
X134223971Y-99638649D02*
X134117905Y-99532583D01*
G75*
G02*
X134117905Y-99426517I53033J53033D01*
G01*
X135107855Y-98436567D01*
G75*
G02*
X135213921Y-98436567I53033J-53033D01*
G01*
X135319987Y-98542633D01*
G75*
G02*
X135319987Y-98648699I-53033J-53033D01*
G01*
X134330037Y-99638649D01*
G75*
G02*
X134223971Y-99638649I-53033J53033D01*
G01*
G37*
G36*
G01*
X134577524Y-99992202D02*
X134471458Y-99886136D01*
G75*
G02*
X134471458Y-99780070I53033J53033D01*
G01*
X135461408Y-98790120D01*
G75*
G02*
X135567474Y-98790120I53033J-53033D01*
G01*
X135673540Y-98896186D01*
G75*
G02*
X135673540Y-99002252I-53033J-53033D01*
G01*
X134683590Y-99992202D01*
G75*
G02*
X134577524Y-99992202I-53033J53033D01*
G01*
G37*
G36*
G01*
X134931077Y-100345755D02*
X134825011Y-100239689D01*
G75*
G02*
X134825011Y-100133623I53033J53033D01*
G01*
X135814961Y-99143673D01*
G75*
G02*
X135921027Y-99143673I53033J-53033D01*
G01*
X136027093Y-99249739D01*
G75*
G02*
X136027093Y-99355805I-53033J-53033D01*
G01*
X135037143Y-100345755D01*
G75*
G02*
X134931077Y-100345755I-53033J53033D01*
G01*
G37*
G36*
G01*
X135284631Y-100699309D02*
X135178565Y-100593243D01*
G75*
G02*
X135178565Y-100487177I53033J53033D01*
G01*
X136168515Y-99497227D01*
G75*
G02*
X136274581Y-99497227I53033J-53033D01*
G01*
X136380647Y-99603293D01*
G75*
G02*
X136380647Y-99709359I-53033J-53033D01*
G01*
X135390697Y-100699309D01*
G75*
G02*
X135284631Y-100699309I-53033J53033D01*
G01*
G37*
G36*
G01*
X135638184Y-101052862D02*
X135532118Y-100946796D01*
G75*
G02*
X135532118Y-100840730I53033J53033D01*
G01*
X136522068Y-99850780D01*
G75*
G02*
X136628134Y-99850780I53033J-53033D01*
G01*
X136734200Y-99956846D01*
G75*
G02*
X136734200Y-100062912I-53033J-53033D01*
G01*
X135744250Y-101052862D01*
G75*
G02*
X135638184Y-101052862I-53033J53033D01*
G01*
G37*
G36*
G01*
X135991738Y-101406416D02*
X135885672Y-101300350D01*
G75*
G02*
X135885672Y-101194284I53033J53033D01*
G01*
X136875622Y-100204334D01*
G75*
G02*
X136981688Y-100204334I53033J-53033D01*
G01*
X137087754Y-100310400D01*
G75*
G02*
X137087754Y-100416466I-53033J-53033D01*
G01*
X136097804Y-101406416D01*
G75*
G02*
X135991738Y-101406416I-53033J53033D01*
G01*
G37*
G36*
G01*
X136345291Y-101759969D02*
X136239225Y-101653903D01*
G75*
G02*
X136239225Y-101547837I53033J53033D01*
G01*
X137229175Y-100557887D01*
G75*
G02*
X137335241Y-100557887I53033J-53033D01*
G01*
X137441307Y-100663953D01*
G75*
G02*
X137441307Y-100770019I-53033J-53033D01*
G01*
X136451357Y-101759969D01*
G75*
G02*
X136345291Y-101759969I-53033J53033D01*
G01*
G37*
G36*
G01*
X136698844Y-102113522D02*
X136592778Y-102007456D01*
G75*
G02*
X136592778Y-101901390I53033J53033D01*
G01*
X137582728Y-100911440D01*
G75*
G02*
X137688794Y-100911440I53033J-53033D01*
G01*
X137794860Y-101017506D01*
G75*
G02*
X137794860Y-101123572I-53033J-53033D01*
G01*
X136804910Y-102113522D01*
G75*
G02*
X136698844Y-102113522I-53033J53033D01*
G01*
G37*
G36*
G01*
X140305090Y-102113522D02*
X139315140Y-101123572D01*
G75*
G02*
X139315140Y-101017506I53033J53033D01*
G01*
X139421206Y-100911440D01*
G75*
G02*
X139527272Y-100911440I53033J-53033D01*
G01*
X140517222Y-101901390D01*
G75*
G02*
X140517222Y-102007456I-53033J-53033D01*
G01*
X140411156Y-102113522D01*
G75*
G02*
X140305090Y-102113522I-53033J53033D01*
G01*
G37*
G36*
G01*
X140658643Y-101759969D02*
X139668693Y-100770019D01*
G75*
G02*
X139668693Y-100663953I53033J53033D01*
G01*
X139774759Y-100557887D01*
G75*
G02*
X139880825Y-100557887I53033J-53033D01*
G01*
X140870775Y-101547837D01*
G75*
G02*
X140870775Y-101653903I-53033J-53033D01*
G01*
X140764709Y-101759969D01*
G75*
G02*
X140658643Y-101759969I-53033J53033D01*
G01*
G37*
G36*
G01*
X141012196Y-101406416D02*
X140022246Y-100416466D01*
G75*
G02*
X140022246Y-100310400I53033J53033D01*
G01*
X140128312Y-100204334D01*
G75*
G02*
X140234378Y-100204334I53033J-53033D01*
G01*
X141224328Y-101194284D01*
G75*
G02*
X141224328Y-101300350I-53033J-53033D01*
G01*
X141118262Y-101406416D01*
G75*
G02*
X141012196Y-101406416I-53033J53033D01*
G01*
G37*
G36*
G01*
X141365750Y-101052862D02*
X140375800Y-100062912D01*
G75*
G02*
X140375800Y-99956846I53033J53033D01*
G01*
X140481866Y-99850780D01*
G75*
G02*
X140587932Y-99850780I53033J-53033D01*
G01*
X141577882Y-100840730D01*
G75*
G02*
X141577882Y-100946796I-53033J-53033D01*
G01*
X141471816Y-101052862D01*
G75*
G02*
X141365750Y-101052862I-53033J53033D01*
G01*
G37*
G36*
G01*
X141719303Y-100699309D02*
X140729353Y-99709359D01*
G75*
G02*
X140729353Y-99603293I53033J53033D01*
G01*
X140835419Y-99497227D01*
G75*
G02*
X140941485Y-99497227I53033J-53033D01*
G01*
X141931435Y-100487177D01*
G75*
G02*
X141931435Y-100593243I-53033J-53033D01*
G01*
X141825369Y-100699309D01*
G75*
G02*
X141719303Y-100699309I-53033J53033D01*
G01*
G37*
G36*
G01*
X142072857Y-100345755D02*
X141082907Y-99355805D01*
G75*
G02*
X141082907Y-99249739I53033J53033D01*
G01*
X141188973Y-99143673D01*
G75*
G02*
X141295039Y-99143673I53033J-53033D01*
G01*
X142284989Y-100133623D01*
G75*
G02*
X142284989Y-100239689I-53033J-53033D01*
G01*
X142178923Y-100345755D01*
G75*
G02*
X142072857Y-100345755I-53033J53033D01*
G01*
G37*
G36*
G01*
X142426410Y-99992202D02*
X141436460Y-99002252D01*
G75*
G02*
X141436460Y-98896186I53033J53033D01*
G01*
X141542526Y-98790120D01*
G75*
G02*
X141648592Y-98790120I53033J-53033D01*
G01*
X142638542Y-99780070D01*
G75*
G02*
X142638542Y-99886136I-53033J-53033D01*
G01*
X142532476Y-99992202D01*
G75*
G02*
X142426410Y-99992202I-53033J53033D01*
G01*
G37*
G36*
G01*
X142779963Y-99638649D02*
X141790013Y-98648699D01*
G75*
G02*
X141790013Y-98542633I53033J53033D01*
G01*
X141896079Y-98436567D01*
G75*
G02*
X142002145Y-98436567I53033J-53033D01*
G01*
X142992095Y-99426517D01*
G75*
G02*
X142992095Y-99532583I-53033J-53033D01*
G01*
X142886029Y-99638649D01*
G75*
G02*
X142779963Y-99638649I-53033J53033D01*
G01*
G37*
G36*
G01*
X143133517Y-99285095D02*
X142143567Y-98295145D01*
G75*
G02*
X142143567Y-98189079I53033J53033D01*
G01*
X142249633Y-98083013D01*
G75*
G02*
X142355699Y-98083013I53033J-53033D01*
G01*
X143345649Y-99072963D01*
G75*
G02*
X143345649Y-99179029I-53033J-53033D01*
G01*
X143239583Y-99285095D01*
G75*
G02*
X143133517Y-99285095I-53033J53033D01*
G01*
G37*
G36*
G01*
X143487070Y-98931542D02*
X142497120Y-97941592D01*
G75*
G02*
X142497120Y-97835526I53033J53033D01*
G01*
X142603186Y-97729460D01*
G75*
G02*
X142709252Y-97729460I53033J-53033D01*
G01*
X143699202Y-98719410D01*
G75*
G02*
X143699202Y-98825476I-53033J-53033D01*
G01*
X143593136Y-98931542D01*
G75*
G02*
X143487070Y-98931542I-53033J53033D01*
G01*
G37*
G36*
G01*
X143840623Y-98577989D02*
X142850673Y-97588039D01*
G75*
G02*
X142850673Y-97481973I53033J53033D01*
G01*
X142956739Y-97375907D01*
G75*
G02*
X143062805Y-97375907I53033J-53033D01*
G01*
X144052755Y-98365857D01*
G75*
G02*
X144052755Y-98471923I-53033J-53033D01*
G01*
X143946689Y-98577989D01*
G75*
G02*
X143840623Y-98577989I-53033J53033D01*
G01*
G37*
G36*
G01*
X144194177Y-98224435D02*
X143204227Y-97234485D01*
G75*
G02*
X143204227Y-97128419I53033J53033D01*
G01*
X143310293Y-97022353D01*
G75*
G02*
X143416359Y-97022353I53033J-53033D01*
G01*
X144406309Y-98012303D01*
G75*
G02*
X144406309Y-98118369I-53033J-53033D01*
G01*
X144300243Y-98224435D01*
G75*
G02*
X144194177Y-98224435I-53033J53033D01*
G01*
G37*
G36*
G01*
X144547730Y-97870882D02*
X143557780Y-96880932D01*
G75*
G02*
X143557780Y-96774866I53033J53033D01*
G01*
X143663846Y-96668800D01*
G75*
G02*
X143769912Y-96668800I53033J-53033D01*
G01*
X144759862Y-97658750D01*
G75*
G02*
X144759862Y-97764816I-53033J-53033D01*
G01*
X144653796Y-97870882D01*
G75*
G02*
X144547730Y-97870882I-53033J53033D01*
G01*
G37*
G36*
G01*
X144901284Y-97517328D02*
X143911334Y-96527378D01*
G75*
G02*
X143911334Y-96421312I53033J53033D01*
G01*
X144017400Y-96315246D01*
G75*
G02*
X144123466Y-96315246I53033J-53033D01*
G01*
X145113416Y-97305196D01*
G75*
G02*
X145113416Y-97411262I-53033J-53033D01*
G01*
X145007350Y-97517328D01*
G75*
G02*
X144901284Y-97517328I-53033J53033D01*
G01*
G37*
G36*
G01*
X145254837Y-97163775D02*
X144264887Y-96173825D01*
G75*
G02*
X144264887Y-96067759I53033J53033D01*
G01*
X144370953Y-95961693D01*
G75*
G02*
X144477019Y-95961693I53033J-53033D01*
G01*
X145466969Y-96951643D01*
G75*
G02*
X145466969Y-97057709I-53033J-53033D01*
G01*
X145360903Y-97163775D01*
G75*
G02*
X145254837Y-97163775I-53033J53033D01*
G01*
G37*
G36*
G01*
X145608390Y-96810222D02*
X144618440Y-95820272D01*
G75*
G02*
X144618440Y-95714206I53033J53033D01*
G01*
X144724506Y-95608140D01*
G75*
G02*
X144830572Y-95608140I53033J-53033D01*
G01*
X145820522Y-96598090D01*
G75*
G02*
X145820522Y-96704156I-53033J-53033D01*
G01*
X145714456Y-96810222D01*
G75*
G02*
X145608390Y-96810222I-53033J53033D01*
G01*
G37*
G36*
G01*
X144724506Y-94087860D02*
X144618440Y-93981794D01*
G75*
G02*
X144618440Y-93875728I53033J53033D01*
G01*
X145608390Y-92885778D01*
G75*
G02*
X145714456Y-92885778I53033J-53033D01*
G01*
X145820522Y-92991844D01*
G75*
G02*
X145820522Y-93097910I-53033J-53033D01*
G01*
X144830572Y-94087860D01*
G75*
G02*
X144724506Y-94087860I-53033J53033D01*
G01*
G37*
G36*
G01*
X144370953Y-93734307D02*
X144264887Y-93628241D01*
G75*
G02*
X144264887Y-93522175I53033J53033D01*
G01*
X145254837Y-92532225D01*
G75*
G02*
X145360903Y-92532225I53033J-53033D01*
G01*
X145466969Y-92638291D01*
G75*
G02*
X145466969Y-92744357I-53033J-53033D01*
G01*
X144477019Y-93734307D01*
G75*
G02*
X144370953Y-93734307I-53033J53033D01*
G01*
G37*
G36*
G01*
X144017400Y-93380754D02*
X143911334Y-93274688D01*
G75*
G02*
X143911334Y-93168622I53033J53033D01*
G01*
X144901284Y-92178672D01*
G75*
G02*
X145007350Y-92178672I53033J-53033D01*
G01*
X145113416Y-92284738D01*
G75*
G02*
X145113416Y-92390804I-53033J-53033D01*
G01*
X144123466Y-93380754D01*
G75*
G02*
X144017400Y-93380754I-53033J53033D01*
G01*
G37*
G36*
G01*
X143663846Y-93027200D02*
X143557780Y-92921134D01*
G75*
G02*
X143557780Y-92815068I53033J53033D01*
G01*
X144547730Y-91825118D01*
G75*
G02*
X144653796Y-91825118I53033J-53033D01*
G01*
X144759862Y-91931184D01*
G75*
G02*
X144759862Y-92037250I-53033J-53033D01*
G01*
X143769912Y-93027200D01*
G75*
G02*
X143663846Y-93027200I-53033J53033D01*
G01*
G37*
G36*
G01*
X143310293Y-92673647D02*
X143204227Y-92567581D01*
G75*
G02*
X143204227Y-92461515I53033J53033D01*
G01*
X144194177Y-91471565D01*
G75*
G02*
X144300243Y-91471565I53033J-53033D01*
G01*
X144406309Y-91577631D01*
G75*
G02*
X144406309Y-91683697I-53033J-53033D01*
G01*
X143416359Y-92673647D01*
G75*
G02*
X143310293Y-92673647I-53033J53033D01*
G01*
G37*
G36*
G01*
X142956739Y-92320093D02*
X142850673Y-92214027D01*
G75*
G02*
X142850673Y-92107961I53033J53033D01*
G01*
X143840623Y-91118011D01*
G75*
G02*
X143946689Y-91118011I53033J-53033D01*
G01*
X144052755Y-91224077D01*
G75*
G02*
X144052755Y-91330143I-53033J-53033D01*
G01*
X143062805Y-92320093D01*
G75*
G02*
X142956739Y-92320093I-53033J53033D01*
G01*
G37*
G36*
G01*
X142603186Y-91966540D02*
X142497120Y-91860474D01*
G75*
G02*
X142497120Y-91754408I53033J53033D01*
G01*
X143487070Y-90764458D01*
G75*
G02*
X143593136Y-90764458I53033J-53033D01*
G01*
X143699202Y-90870524D01*
G75*
G02*
X143699202Y-90976590I-53033J-53033D01*
G01*
X142709252Y-91966540D01*
G75*
G02*
X142603186Y-91966540I-53033J53033D01*
G01*
G37*
G36*
G01*
X142249633Y-91612987D02*
X142143567Y-91506921D01*
G75*
G02*
X142143567Y-91400855I53033J53033D01*
G01*
X143133517Y-90410905D01*
G75*
G02*
X143239583Y-90410905I53033J-53033D01*
G01*
X143345649Y-90516971D01*
G75*
G02*
X143345649Y-90623037I-53033J-53033D01*
G01*
X142355699Y-91612987D01*
G75*
G02*
X142249633Y-91612987I-53033J53033D01*
G01*
G37*
G36*
G01*
X141896079Y-91259433D02*
X141790013Y-91153367D01*
G75*
G02*
X141790013Y-91047301I53033J53033D01*
G01*
X142779963Y-90057351D01*
G75*
G02*
X142886029Y-90057351I53033J-53033D01*
G01*
X142992095Y-90163417D01*
G75*
G02*
X142992095Y-90269483I-53033J-53033D01*
G01*
X142002145Y-91259433D01*
G75*
G02*
X141896079Y-91259433I-53033J53033D01*
G01*
G37*
G36*
G01*
X141542526Y-90905880D02*
X141436460Y-90799814D01*
G75*
G02*
X141436460Y-90693748I53033J53033D01*
G01*
X142426410Y-89703798D01*
G75*
G02*
X142532476Y-89703798I53033J-53033D01*
G01*
X142638542Y-89809864D01*
G75*
G02*
X142638542Y-89915930I-53033J-53033D01*
G01*
X141648592Y-90905880D01*
G75*
G02*
X141542526Y-90905880I-53033J53033D01*
G01*
G37*
G36*
G01*
X141188973Y-90552327D02*
X141082907Y-90446261D01*
G75*
G02*
X141082907Y-90340195I53033J53033D01*
G01*
X142072857Y-89350245D01*
G75*
G02*
X142178923Y-89350245I53033J-53033D01*
G01*
X142284989Y-89456311D01*
G75*
G02*
X142284989Y-89562377I-53033J-53033D01*
G01*
X141295039Y-90552327D01*
G75*
G02*
X141188973Y-90552327I-53033J53033D01*
G01*
G37*
G36*
G01*
X140835419Y-90198773D02*
X140729353Y-90092707D01*
G75*
G02*
X140729353Y-89986641I53033J53033D01*
G01*
X141719303Y-88996691D01*
G75*
G02*
X141825369Y-88996691I53033J-53033D01*
G01*
X141931435Y-89102757D01*
G75*
G02*
X141931435Y-89208823I-53033J-53033D01*
G01*
X140941485Y-90198773D01*
G75*
G02*
X140835419Y-90198773I-53033J53033D01*
G01*
G37*
G36*
G01*
X140481866Y-89845220D02*
X140375800Y-89739154D01*
G75*
G02*
X140375800Y-89633088I53033J53033D01*
G01*
X141365750Y-88643138D01*
G75*
G02*
X141471816Y-88643138I53033J-53033D01*
G01*
X141577882Y-88749204D01*
G75*
G02*
X141577882Y-88855270I-53033J-53033D01*
G01*
X140587932Y-89845220D01*
G75*
G02*
X140481866Y-89845220I-53033J53033D01*
G01*
G37*
G36*
G01*
X140128312Y-89491666D02*
X140022246Y-89385600D01*
G75*
G02*
X140022246Y-89279534I53033J53033D01*
G01*
X141012196Y-88289584D01*
G75*
G02*
X141118262Y-88289584I53033J-53033D01*
G01*
X141224328Y-88395650D01*
G75*
G02*
X141224328Y-88501716I-53033J-53033D01*
G01*
X140234378Y-89491666D01*
G75*
G02*
X140128312Y-89491666I-53033J53033D01*
G01*
G37*
G36*
G01*
X139774759Y-89138113D02*
X139668693Y-89032047D01*
G75*
G02*
X139668693Y-88925981I53033J53033D01*
G01*
X140658643Y-87936031D01*
G75*
G02*
X140764709Y-87936031I53033J-53033D01*
G01*
X140870775Y-88042097D01*
G75*
G02*
X140870775Y-88148163I-53033J-53033D01*
G01*
X139880825Y-89138113D01*
G75*
G02*
X139774759Y-89138113I-53033J53033D01*
G01*
G37*
G36*
G01*
X139421206Y-88784560D02*
X139315140Y-88678494D01*
G75*
G02*
X139315140Y-88572428I53033J53033D01*
G01*
X140305090Y-87582478D01*
G75*
G02*
X140411156Y-87582478I53033J-53033D01*
G01*
X140517222Y-87688544D01*
G75*
G02*
X140517222Y-87794610I-53033J-53033D01*
G01*
X139527272Y-88784560D01*
G75*
G02*
X139421206Y-88784560I-53033J53033D01*
G01*
G37*
G36*
G01*
X137582728Y-88784560D02*
X136592778Y-87794610D01*
G75*
G02*
X136592778Y-87688544I53033J53033D01*
G01*
X136698844Y-87582478D01*
G75*
G02*
X136804910Y-87582478I53033J-53033D01*
G01*
X137794860Y-88572428D01*
G75*
G02*
X137794860Y-88678494I-53033J-53033D01*
G01*
X137688794Y-88784560D01*
G75*
G02*
X137582728Y-88784560I-53033J53033D01*
G01*
G37*
G36*
G01*
X137229175Y-89138113D02*
X136239225Y-88148163D01*
G75*
G02*
X136239225Y-88042097I53033J53033D01*
G01*
X136345291Y-87936031D01*
G75*
G02*
X136451357Y-87936031I53033J-53033D01*
G01*
X137441307Y-88925981D01*
G75*
G02*
X137441307Y-89032047I-53033J-53033D01*
G01*
X137335241Y-89138113D01*
G75*
G02*
X137229175Y-89138113I-53033J53033D01*
G01*
G37*
G36*
G01*
X136875622Y-89491666D02*
X135885672Y-88501716D01*
G75*
G02*
X135885672Y-88395650I53033J53033D01*
G01*
X135991738Y-88289584D01*
G75*
G02*
X136097804Y-88289584I53033J-53033D01*
G01*
X137087754Y-89279534D01*
G75*
G02*
X137087754Y-89385600I-53033J-53033D01*
G01*
X136981688Y-89491666D01*
G75*
G02*
X136875622Y-89491666I-53033J53033D01*
G01*
G37*
G36*
G01*
X136522068Y-89845220D02*
X135532118Y-88855270D01*
G75*
G02*
X135532118Y-88749204I53033J53033D01*
G01*
X135638184Y-88643138D01*
G75*
G02*
X135744250Y-88643138I53033J-53033D01*
G01*
X136734200Y-89633088D01*
G75*
G02*
X136734200Y-89739154I-53033J-53033D01*
G01*
X136628134Y-89845220D01*
G75*
G02*
X136522068Y-89845220I-53033J53033D01*
G01*
G37*
G36*
G01*
X136168515Y-90198773D02*
X135178565Y-89208823D01*
G75*
G02*
X135178565Y-89102757I53033J53033D01*
G01*
X135284631Y-88996691D01*
G75*
G02*
X135390697Y-88996691I53033J-53033D01*
G01*
X136380647Y-89986641D01*
G75*
G02*
X136380647Y-90092707I-53033J-53033D01*
G01*
X136274581Y-90198773D01*
G75*
G02*
X136168515Y-90198773I-53033J53033D01*
G01*
G37*
G36*
G01*
X135814961Y-90552327D02*
X134825011Y-89562377D01*
G75*
G02*
X134825011Y-89456311I53033J53033D01*
G01*
X134931077Y-89350245D01*
G75*
G02*
X135037143Y-89350245I53033J-53033D01*
G01*
X136027093Y-90340195D01*
G75*
G02*
X136027093Y-90446261I-53033J-53033D01*
G01*
X135921027Y-90552327D01*
G75*
G02*
X135814961Y-90552327I-53033J53033D01*
G01*
G37*
G36*
G01*
X135461408Y-90905880D02*
X134471458Y-89915930D01*
G75*
G02*
X134471458Y-89809864I53033J53033D01*
G01*
X134577524Y-89703798D01*
G75*
G02*
X134683590Y-89703798I53033J-53033D01*
G01*
X135673540Y-90693748D01*
G75*
G02*
X135673540Y-90799814I-53033J-53033D01*
G01*
X135567474Y-90905880D01*
G75*
G02*
X135461408Y-90905880I-53033J53033D01*
G01*
G37*
G36*
G01*
X135107855Y-91259433D02*
X134117905Y-90269483D01*
G75*
G02*
X134117905Y-90163417I53033J53033D01*
G01*
X134223971Y-90057351D01*
G75*
G02*
X134330037Y-90057351I53033J-53033D01*
G01*
X135319987Y-91047301D01*
G75*
G02*
X135319987Y-91153367I-53033J-53033D01*
G01*
X135213921Y-91259433D01*
G75*
G02*
X135107855Y-91259433I-53033J53033D01*
G01*
G37*
G36*
G01*
X134754301Y-91612987D02*
X133764351Y-90623037D01*
G75*
G02*
X133764351Y-90516971I53033J53033D01*
G01*
X133870417Y-90410905D01*
G75*
G02*
X133976483Y-90410905I53033J-53033D01*
G01*
X134966433Y-91400855D01*
G75*
G02*
X134966433Y-91506921I-53033J-53033D01*
G01*
X134860367Y-91612987D01*
G75*
G02*
X134754301Y-91612987I-53033J53033D01*
G01*
G37*
G36*
G01*
X134400748Y-91966540D02*
X133410798Y-90976590D01*
G75*
G02*
X133410798Y-90870524I53033J53033D01*
G01*
X133516864Y-90764458D01*
G75*
G02*
X133622930Y-90764458I53033J-53033D01*
G01*
X134612880Y-91754408D01*
G75*
G02*
X134612880Y-91860474I-53033J-53033D01*
G01*
X134506814Y-91966540D01*
G75*
G02*
X134400748Y-91966540I-53033J53033D01*
G01*
G37*
G36*
G01*
X134047195Y-92320093D02*
X133057245Y-91330143D01*
G75*
G02*
X133057245Y-91224077I53033J53033D01*
G01*
X133163311Y-91118011D01*
G75*
G02*
X133269377Y-91118011I53033J-53033D01*
G01*
X134259327Y-92107961D01*
G75*
G02*
X134259327Y-92214027I-53033J-53033D01*
G01*
X134153261Y-92320093D01*
G75*
G02*
X134047195Y-92320093I-53033J53033D01*
G01*
G37*
G36*
G01*
X133693641Y-92673647D02*
X132703691Y-91683697D01*
G75*
G02*
X132703691Y-91577631I53033J53033D01*
G01*
X132809757Y-91471565D01*
G75*
G02*
X132915823Y-91471565I53033J-53033D01*
G01*
X133905773Y-92461515D01*
G75*
G02*
X133905773Y-92567581I-53033J-53033D01*
G01*
X133799707Y-92673647D01*
G75*
G02*
X133693641Y-92673647I-53033J53033D01*
G01*
G37*
G36*
G01*
X133340088Y-93027200D02*
X132350138Y-92037250D01*
G75*
G02*
X132350138Y-91931184I53033J53033D01*
G01*
X132456204Y-91825118D01*
G75*
G02*
X132562270Y-91825118I53033J-53033D01*
G01*
X133552220Y-92815068D01*
G75*
G02*
X133552220Y-92921134I-53033J-53033D01*
G01*
X133446154Y-93027200D01*
G75*
G02*
X133340088Y-93027200I-53033J53033D01*
G01*
G37*
G36*
G01*
X132986534Y-93380754D02*
X131996584Y-92390804D01*
G75*
G02*
X131996584Y-92284738I53033J53033D01*
G01*
X132102650Y-92178672D01*
G75*
G02*
X132208716Y-92178672I53033J-53033D01*
G01*
X133198666Y-93168622D01*
G75*
G02*
X133198666Y-93274688I-53033J-53033D01*
G01*
X133092600Y-93380754D01*
G75*
G02*
X132986534Y-93380754I-53033J53033D01*
G01*
G37*
G36*
G01*
X132632981Y-93734307D02*
X131643031Y-92744357D01*
G75*
G02*
X131643031Y-92638291I53033J53033D01*
G01*
X131749097Y-92532225D01*
G75*
G02*
X131855163Y-92532225I53033J-53033D01*
G01*
X132845113Y-93522175D01*
G75*
G02*
X132845113Y-93628241I-53033J-53033D01*
G01*
X132739047Y-93734307D01*
G75*
G02*
X132632981Y-93734307I-53033J53033D01*
G01*
G37*
G36*
G01*
X132279428Y-94087860D02*
X131289478Y-93097910D01*
G75*
G02*
X131289478Y-92991844I53033J53033D01*
G01*
X131395544Y-92885778D01*
G75*
G02*
X131501610Y-92885778I53033J-53033D01*
G01*
X132491560Y-93875728D01*
G75*
G02*
X132491560Y-93981794I-53033J-53033D01*
G01*
X132385494Y-94087860D01*
G75*
G02*
X132279428Y-94087860I-53033J53033D01*
G01*
G37*
D19*
X192854000Y-126466500D03*
X186054000Y-126466500D03*
X186054000Y-122466500D03*
X192854000Y-122466500D03*
X203981500Y-126460000D03*
X197181500Y-126460000D03*
X197181500Y-122460000D03*
X203981500Y-122460000D03*
X109585500Y-71729500D03*
X102785500Y-71729500D03*
X102785500Y-67729500D03*
X109585500Y-67729500D03*
X120585500Y-71729500D03*
X113785500Y-71729500D03*
X113785500Y-67729500D03*
X120585500Y-67729500D03*
G36*
G01*
X75489500Y-114081500D02*
X76039500Y-114081500D01*
G75*
G02*
X76239500Y-114281500I0J-200000D01*
G01*
X76239500Y-114681500D01*
G75*
G02*
X76039500Y-114881500I-200000J0D01*
G01*
X75489500Y-114881500D01*
G75*
G02*
X75289500Y-114681500I0J200000D01*
G01*
X75289500Y-114281500D01*
G75*
G02*
X75489500Y-114081500I200000J0D01*
G01*
G37*
G36*
G01*
X75489500Y-112431500D02*
X76039500Y-112431500D01*
G75*
G02*
X76239500Y-112631500I0J-200000D01*
G01*
X76239500Y-113031500D01*
G75*
G02*
X76039500Y-113231500I-200000J0D01*
G01*
X75489500Y-113231500D01*
G75*
G02*
X75289500Y-113031500I0J200000D01*
G01*
X75289500Y-112631500D01*
G75*
G02*
X75489500Y-112431500I200000J0D01*
G01*
G37*
G36*
G01*
X75472500Y-110017500D02*
X76022500Y-110017500D01*
G75*
G02*
X76222500Y-110217500I0J-200000D01*
G01*
X76222500Y-110617500D01*
G75*
G02*
X76022500Y-110817500I-200000J0D01*
G01*
X75472500Y-110817500D01*
G75*
G02*
X75272500Y-110617500I0J200000D01*
G01*
X75272500Y-110217500D01*
G75*
G02*
X75472500Y-110017500I200000J0D01*
G01*
G37*
G36*
G01*
X75472500Y-108367500D02*
X76022500Y-108367500D01*
G75*
G02*
X76222500Y-108567500I0J-200000D01*
G01*
X76222500Y-108967500D01*
G75*
G02*
X76022500Y-109167500I-200000J0D01*
G01*
X75472500Y-109167500D01*
G75*
G02*
X75272500Y-108967500I0J200000D01*
G01*
X75272500Y-108567500D01*
G75*
G02*
X75472500Y-108367500I200000J0D01*
G01*
G37*
G36*
G01*
X75455500Y-102397500D02*
X76005500Y-102397500D01*
G75*
G02*
X76205500Y-102597500I0J-200000D01*
G01*
X76205500Y-102997500D01*
G75*
G02*
X76005500Y-103197500I-200000J0D01*
G01*
X75455500Y-103197500D01*
G75*
G02*
X75255500Y-102997500I0J200000D01*
G01*
X75255500Y-102597500D01*
G75*
G02*
X75455500Y-102397500I200000J0D01*
G01*
G37*
G36*
G01*
X75455500Y-100747500D02*
X76005500Y-100747500D01*
G75*
G02*
X76205500Y-100947500I0J-200000D01*
G01*
X76205500Y-101347500D01*
G75*
G02*
X76005500Y-101547500I-200000J0D01*
G01*
X75455500Y-101547500D01*
G75*
G02*
X75255500Y-101347500I0J200000D01*
G01*
X75255500Y-100947500D01*
G75*
G02*
X75455500Y-100747500I200000J0D01*
G01*
G37*
G36*
G01*
X76282500Y-105325500D02*
X76282500Y-105875500D01*
G75*
G02*
X76082500Y-106075500I-200000J0D01*
G01*
X75682500Y-106075500D01*
G75*
G02*
X75482500Y-105875500I0J200000D01*
G01*
X75482500Y-105325500D01*
G75*
G02*
X75682500Y-105125500I200000J0D01*
G01*
X76082500Y-105125500D01*
G75*
G02*
X76282500Y-105325500I0J-200000D01*
G01*
G37*
G36*
G01*
X77932500Y-105325500D02*
X77932500Y-105875500D01*
G75*
G02*
X77732500Y-106075500I-200000J0D01*
G01*
X77332500Y-106075500D01*
G75*
G02*
X77132500Y-105875500I0J200000D01*
G01*
X77132500Y-105325500D01*
G75*
G02*
X77332500Y-105125500I200000J0D01*
G01*
X77732500Y-105125500D01*
G75*
G02*
X77932500Y-105325500I0J-200000D01*
G01*
G37*
G36*
G01*
X72496000Y-114090500D02*
X73046000Y-114090500D01*
G75*
G02*
X73246000Y-114290500I0J-200000D01*
G01*
X73246000Y-114690500D01*
G75*
G02*
X73046000Y-114890500I-200000J0D01*
G01*
X72496000Y-114890500D01*
G75*
G02*
X72296000Y-114690500I0J200000D01*
G01*
X72296000Y-114290500D01*
G75*
G02*
X72496000Y-114090500I200000J0D01*
G01*
G37*
G36*
G01*
X72496000Y-112440500D02*
X73046000Y-112440500D01*
G75*
G02*
X73246000Y-112640500I0J-200000D01*
G01*
X73246000Y-113040500D01*
G75*
G02*
X73046000Y-113240500I-200000J0D01*
G01*
X72496000Y-113240500D01*
G75*
G02*
X72296000Y-113040500I0J200000D01*
G01*
X72296000Y-112640500D01*
G75*
G02*
X72496000Y-112440500I200000J0D01*
G01*
G37*
G36*
G01*
X72472500Y-110017500D02*
X73022500Y-110017500D01*
G75*
G02*
X73222500Y-110217500I0J-200000D01*
G01*
X73222500Y-110617500D01*
G75*
G02*
X73022500Y-110817500I-200000J0D01*
G01*
X72472500Y-110817500D01*
G75*
G02*
X72272500Y-110617500I0J200000D01*
G01*
X72272500Y-110217500D01*
G75*
G02*
X72472500Y-110017500I200000J0D01*
G01*
G37*
G36*
G01*
X72472500Y-108367500D02*
X73022500Y-108367500D01*
G75*
G02*
X73222500Y-108567500I0J-200000D01*
G01*
X73222500Y-108967500D01*
G75*
G02*
X73022500Y-109167500I-200000J0D01*
G01*
X72472500Y-109167500D01*
G75*
G02*
X72272500Y-108967500I0J200000D01*
G01*
X72272500Y-108567500D01*
G75*
G02*
X72472500Y-108367500I200000J0D01*
G01*
G37*
G36*
G01*
X72455500Y-102397500D02*
X73005500Y-102397500D01*
G75*
G02*
X73205500Y-102597500I0J-200000D01*
G01*
X73205500Y-102997500D01*
G75*
G02*
X73005500Y-103197500I-200000J0D01*
G01*
X72455500Y-103197500D01*
G75*
G02*
X72255500Y-102997500I0J200000D01*
G01*
X72255500Y-102597500D01*
G75*
G02*
X72455500Y-102397500I200000J0D01*
G01*
G37*
G36*
G01*
X72455500Y-100747500D02*
X73005500Y-100747500D01*
G75*
G02*
X73205500Y-100947500I0J-200000D01*
G01*
X73205500Y-101347500D01*
G75*
G02*
X73005500Y-101547500I-200000J0D01*
G01*
X72455500Y-101547500D01*
G75*
G02*
X72255500Y-101347500I0J200000D01*
G01*
X72255500Y-100947500D01*
G75*
G02*
X72455500Y-100747500I200000J0D01*
G01*
G37*
G36*
G01*
X104566000Y-100662500D02*
X105116000Y-100662500D01*
G75*
G02*
X105316000Y-100862500I0J-200000D01*
G01*
X105316000Y-101262500D01*
G75*
G02*
X105116000Y-101462500I-200000J0D01*
G01*
X104566000Y-101462500D01*
G75*
G02*
X104366000Y-101262500I0J200000D01*
G01*
X104366000Y-100862500D01*
G75*
G02*
X104566000Y-100662500I200000J0D01*
G01*
G37*
G36*
G01*
X104566000Y-99012500D02*
X105116000Y-99012500D01*
G75*
G02*
X105316000Y-99212500I0J-200000D01*
G01*
X105316000Y-99612500D01*
G75*
G02*
X105116000Y-99812500I-200000J0D01*
G01*
X104566000Y-99812500D01*
G75*
G02*
X104366000Y-99612500I0J200000D01*
G01*
X104366000Y-99212500D01*
G75*
G02*
X104566000Y-99012500I200000J0D01*
G01*
G37*
G36*
G01*
X104566000Y-86381500D02*
X105116000Y-86381500D01*
G75*
G02*
X105316000Y-86581500I0J-200000D01*
G01*
X105316000Y-86981500D01*
G75*
G02*
X105116000Y-87181500I-200000J0D01*
G01*
X104566000Y-87181500D01*
G75*
G02*
X104366000Y-86981500I0J200000D01*
G01*
X104366000Y-86581500D01*
G75*
G02*
X104566000Y-86381500I200000J0D01*
G01*
G37*
G36*
G01*
X104566000Y-84731500D02*
X105116000Y-84731500D01*
G75*
G02*
X105316000Y-84931500I0J-200000D01*
G01*
X105316000Y-85331500D01*
G75*
G02*
X105116000Y-85531500I-200000J0D01*
G01*
X104566000Y-85531500D01*
G75*
G02*
X104366000Y-85331500I0J200000D01*
G01*
X104366000Y-84931500D01*
G75*
G02*
X104566000Y-84731500I200000J0D01*
G01*
G37*
G36*
G01*
X104566000Y-89944000D02*
X105116000Y-89944000D01*
G75*
G02*
X105316000Y-90144000I0J-200000D01*
G01*
X105316000Y-90544000D01*
G75*
G02*
X105116000Y-90744000I-200000J0D01*
G01*
X104566000Y-90744000D01*
G75*
G02*
X104366000Y-90544000I0J200000D01*
G01*
X104366000Y-90144000D01*
G75*
G02*
X104566000Y-89944000I200000J0D01*
G01*
G37*
G36*
G01*
X104566000Y-88294000D02*
X105116000Y-88294000D01*
G75*
G02*
X105316000Y-88494000I0J-200000D01*
G01*
X105316000Y-88894000D01*
G75*
G02*
X105116000Y-89094000I-200000J0D01*
G01*
X104566000Y-89094000D01*
G75*
G02*
X104366000Y-88894000I0J200000D01*
G01*
X104366000Y-88494000D01*
G75*
G02*
X104566000Y-88294000I200000J0D01*
G01*
G37*
G36*
G01*
X104566000Y-93506500D02*
X105116000Y-93506500D01*
G75*
G02*
X105316000Y-93706500I0J-200000D01*
G01*
X105316000Y-94106500D01*
G75*
G02*
X105116000Y-94306500I-200000J0D01*
G01*
X104566000Y-94306500D01*
G75*
G02*
X104366000Y-94106500I0J200000D01*
G01*
X104366000Y-93706500D01*
G75*
G02*
X104566000Y-93506500I200000J0D01*
G01*
G37*
G36*
G01*
X104566000Y-91856500D02*
X105116000Y-91856500D01*
G75*
G02*
X105316000Y-92056500I0J-200000D01*
G01*
X105316000Y-92456500D01*
G75*
G02*
X105116000Y-92656500I-200000J0D01*
G01*
X104566000Y-92656500D01*
G75*
G02*
X104366000Y-92456500I0J200000D01*
G01*
X104366000Y-92056500D01*
G75*
G02*
X104566000Y-91856500I200000J0D01*
G01*
G37*
G36*
G01*
X104566000Y-97069000D02*
X105116000Y-97069000D01*
G75*
G02*
X105316000Y-97269000I0J-200000D01*
G01*
X105316000Y-97669000D01*
G75*
G02*
X105116000Y-97869000I-200000J0D01*
G01*
X104566000Y-97869000D01*
G75*
G02*
X104366000Y-97669000I0J200000D01*
G01*
X104366000Y-97269000D01*
G75*
G02*
X104566000Y-97069000I200000J0D01*
G01*
G37*
G36*
G01*
X104566000Y-95419000D02*
X105116000Y-95419000D01*
G75*
G02*
X105316000Y-95619000I0J-200000D01*
G01*
X105316000Y-96019000D01*
G75*
G02*
X105116000Y-96219000I-200000J0D01*
G01*
X104566000Y-96219000D01*
G75*
G02*
X104366000Y-96019000I0J200000D01*
G01*
X104366000Y-95619000D01*
G75*
G02*
X104566000Y-95419000I200000J0D01*
G01*
G37*
G36*
G01*
X99591000Y-96169000D02*
X99591000Y-95619000D01*
G75*
G02*
X99791000Y-95419000I200000J0D01*
G01*
X100191000Y-95419000D01*
G75*
G02*
X100391000Y-95619000I0J-200000D01*
G01*
X100391000Y-96169000D01*
G75*
G02*
X100191000Y-96369000I-200000J0D01*
G01*
X99791000Y-96369000D01*
G75*
G02*
X99591000Y-96169000I0J200000D01*
G01*
G37*
G36*
G01*
X97941000Y-96169000D02*
X97941000Y-95619000D01*
G75*
G02*
X98141000Y-95419000I200000J0D01*
G01*
X98541000Y-95419000D01*
G75*
G02*
X98741000Y-95619000I0J-200000D01*
G01*
X98741000Y-96169000D01*
G75*
G02*
X98541000Y-96369000I-200000J0D01*
G01*
X98141000Y-96369000D01*
G75*
G02*
X97941000Y-96169000I0J200000D01*
G01*
G37*
G36*
G01*
X99591000Y-92606500D02*
X99591000Y-92056500D01*
G75*
G02*
X99791000Y-91856500I200000J0D01*
G01*
X100191000Y-91856500D01*
G75*
G02*
X100391000Y-92056500I0J-200000D01*
G01*
X100391000Y-92606500D01*
G75*
G02*
X100191000Y-92806500I-200000J0D01*
G01*
X99791000Y-92806500D01*
G75*
G02*
X99591000Y-92606500I0J200000D01*
G01*
G37*
G36*
G01*
X97941000Y-92606500D02*
X97941000Y-92056500D01*
G75*
G02*
X98141000Y-91856500I200000J0D01*
G01*
X98541000Y-91856500D01*
G75*
G02*
X98741000Y-92056500I0J-200000D01*
G01*
X98741000Y-92606500D01*
G75*
G02*
X98541000Y-92806500I-200000J0D01*
G01*
X98141000Y-92806500D01*
G75*
G02*
X97941000Y-92606500I0J200000D01*
G01*
G37*
G36*
G01*
X99591000Y-89044000D02*
X99591000Y-88494000D01*
G75*
G02*
X99791000Y-88294000I200000J0D01*
G01*
X100191000Y-88294000D01*
G75*
G02*
X100391000Y-88494000I0J-200000D01*
G01*
X100391000Y-89044000D01*
G75*
G02*
X100191000Y-89244000I-200000J0D01*
G01*
X99791000Y-89244000D01*
G75*
G02*
X99591000Y-89044000I0J200000D01*
G01*
G37*
G36*
G01*
X97941000Y-89044000D02*
X97941000Y-88494000D01*
G75*
G02*
X98141000Y-88294000I200000J0D01*
G01*
X98541000Y-88294000D01*
G75*
G02*
X98741000Y-88494000I0J-200000D01*
G01*
X98741000Y-89044000D01*
G75*
G02*
X98541000Y-89244000I-200000J0D01*
G01*
X98141000Y-89244000D01*
G75*
G02*
X97941000Y-89044000I0J200000D01*
G01*
G37*
G36*
G01*
X99591000Y-85481500D02*
X99591000Y-84931500D01*
G75*
G02*
X99791000Y-84731500I200000J0D01*
G01*
X100191000Y-84731500D01*
G75*
G02*
X100391000Y-84931500I0J-200000D01*
G01*
X100391000Y-85481500D01*
G75*
G02*
X100191000Y-85681500I-200000J0D01*
G01*
X99791000Y-85681500D01*
G75*
G02*
X99591000Y-85481500I0J200000D01*
G01*
G37*
G36*
G01*
X97941000Y-85481500D02*
X97941000Y-84931500D01*
G75*
G02*
X98141000Y-84731500I200000J0D01*
G01*
X98541000Y-84731500D01*
G75*
G02*
X98741000Y-84931500I0J-200000D01*
G01*
X98741000Y-85481500D01*
G75*
G02*
X98541000Y-85681500I-200000J0D01*
G01*
X98141000Y-85681500D01*
G75*
G02*
X97941000Y-85481500I0J200000D01*
G01*
G37*
G36*
G01*
X99591000Y-99762500D02*
X99591000Y-99212500D01*
G75*
G02*
X99791000Y-99012500I200000J0D01*
G01*
X100191000Y-99012500D01*
G75*
G02*
X100391000Y-99212500I0J-200000D01*
G01*
X100391000Y-99762500D01*
G75*
G02*
X100191000Y-99962500I-200000J0D01*
G01*
X99791000Y-99962500D01*
G75*
G02*
X99591000Y-99762500I0J200000D01*
G01*
G37*
G36*
G01*
X97941000Y-99762500D02*
X97941000Y-99212500D01*
G75*
G02*
X98141000Y-99012500I200000J0D01*
G01*
X98541000Y-99012500D01*
G75*
G02*
X98741000Y-99212500I0J-200000D01*
G01*
X98741000Y-99762500D01*
G75*
G02*
X98541000Y-99962500I-200000J0D01*
G01*
X98141000Y-99962500D01*
G75*
G02*
X97941000Y-99762500I0J200000D01*
G01*
G37*
G36*
G01*
X114673500Y-89225000D02*
X114673500Y-89775000D01*
G75*
G02*
X114473500Y-89975000I-200000J0D01*
G01*
X114073500Y-89975000D01*
G75*
G02*
X113873500Y-89775000I0J200000D01*
G01*
X113873500Y-89225000D01*
G75*
G02*
X114073500Y-89025000I200000J0D01*
G01*
X114473500Y-89025000D01*
G75*
G02*
X114673500Y-89225000I0J-200000D01*
G01*
G37*
G36*
G01*
X116323500Y-89225000D02*
X116323500Y-89775000D01*
G75*
G02*
X116123500Y-89975000I-200000J0D01*
G01*
X115723500Y-89975000D01*
G75*
G02*
X115523500Y-89775000I0J200000D01*
G01*
X115523500Y-89225000D01*
G75*
G02*
X115723500Y-89025000I200000J0D01*
G01*
X116123500Y-89025000D01*
G75*
G02*
X116323500Y-89225000I0J-200000D01*
G01*
G37*
G36*
G01*
X114673500Y-87525000D02*
X114673500Y-88075000D01*
G75*
G02*
X114473500Y-88275000I-200000J0D01*
G01*
X114073500Y-88275000D01*
G75*
G02*
X113873500Y-88075000I0J200000D01*
G01*
X113873500Y-87525000D01*
G75*
G02*
X114073500Y-87325000I200000J0D01*
G01*
X114473500Y-87325000D01*
G75*
G02*
X114673500Y-87525000I0J-200000D01*
G01*
G37*
G36*
G01*
X116323500Y-87525000D02*
X116323500Y-88075000D01*
G75*
G02*
X116123500Y-88275000I-200000J0D01*
G01*
X115723500Y-88275000D01*
G75*
G02*
X115523500Y-88075000I0J200000D01*
G01*
X115523500Y-87525000D01*
G75*
G02*
X115723500Y-87325000I200000J0D01*
G01*
X116123500Y-87325000D01*
G75*
G02*
X116323500Y-87525000I0J-200000D01*
G01*
G37*
G36*
G01*
X113048500Y-90177500D02*
X112498500Y-90177500D01*
G75*
G02*
X112298500Y-89977500I0J200000D01*
G01*
X112298500Y-89577500D01*
G75*
G02*
X112498500Y-89377500I200000J0D01*
G01*
X113048500Y-89377500D01*
G75*
G02*
X113248500Y-89577500I0J-200000D01*
G01*
X113248500Y-89977500D01*
G75*
G02*
X113048500Y-90177500I-200000J0D01*
G01*
G37*
G36*
G01*
X113048500Y-91827500D02*
X112498500Y-91827500D01*
G75*
G02*
X112298500Y-91627500I0J200000D01*
G01*
X112298500Y-91227500D01*
G75*
G02*
X112498500Y-91027500I200000J0D01*
G01*
X113048500Y-91027500D01*
G75*
G02*
X113248500Y-91227500I0J-200000D01*
G01*
X113248500Y-91627500D01*
G75*
G02*
X113048500Y-91827500I-200000J0D01*
G01*
G37*
G36*
G01*
X112498500Y-87127500D02*
X113048500Y-87127500D01*
G75*
G02*
X113248500Y-87327500I0J-200000D01*
G01*
X113248500Y-87727500D01*
G75*
G02*
X113048500Y-87927500I-200000J0D01*
G01*
X112498500Y-87927500D01*
G75*
G02*
X112298500Y-87727500I0J200000D01*
G01*
X112298500Y-87327500D01*
G75*
G02*
X112498500Y-87127500I200000J0D01*
G01*
G37*
G36*
G01*
X112498500Y-85477500D02*
X113048500Y-85477500D01*
G75*
G02*
X113248500Y-85677500I0J-200000D01*
G01*
X113248500Y-86077500D01*
G75*
G02*
X113048500Y-86277500I-200000J0D01*
G01*
X112498500Y-86277500D01*
G75*
G02*
X112298500Y-86077500I0J200000D01*
G01*
X112298500Y-85677500D01*
G75*
G02*
X112498500Y-85477500I200000J0D01*
G01*
G37*
G36*
G01*
X133218500Y-124970500D02*
X133218500Y-125520500D01*
G75*
G02*
X133018500Y-125720500I-200000J0D01*
G01*
X132618500Y-125720500D01*
G75*
G02*
X132418500Y-125520500I0J200000D01*
G01*
X132418500Y-124970500D01*
G75*
G02*
X132618500Y-124770500I200000J0D01*
G01*
X133018500Y-124770500D01*
G75*
G02*
X133218500Y-124970500I0J-200000D01*
G01*
G37*
G36*
G01*
X134868500Y-124970500D02*
X134868500Y-125520500D01*
G75*
G02*
X134668500Y-125720500I-200000J0D01*
G01*
X134268500Y-125720500D01*
G75*
G02*
X134068500Y-125520500I0J200000D01*
G01*
X134068500Y-124970500D01*
G75*
G02*
X134268500Y-124770500I200000J0D01*
G01*
X134668500Y-124770500D01*
G75*
G02*
X134868500Y-124970500I0J-200000D01*
G01*
G37*
G36*
G01*
X129543500Y-126345500D02*
X130093500Y-126345500D01*
G75*
G02*
X130293500Y-126545500I0J-200000D01*
G01*
X130293500Y-126945500D01*
G75*
G02*
X130093500Y-127145500I-200000J0D01*
G01*
X129543500Y-127145500D01*
G75*
G02*
X129343500Y-126945500I0J200000D01*
G01*
X129343500Y-126545500D01*
G75*
G02*
X129543500Y-126345500I200000J0D01*
G01*
G37*
G36*
G01*
X129543500Y-124695500D02*
X130093500Y-124695500D01*
G75*
G02*
X130293500Y-124895500I0J-200000D01*
G01*
X130293500Y-125295500D01*
G75*
G02*
X130093500Y-125495500I-200000J0D01*
G01*
X129543500Y-125495500D01*
G75*
G02*
X129343500Y-125295500I0J200000D01*
G01*
X129343500Y-124895500D01*
G75*
G02*
X129543500Y-124695500I200000J0D01*
G01*
G37*
G36*
G01*
X123643500Y-126345500D02*
X124193500Y-126345500D01*
G75*
G02*
X124393500Y-126545500I0J-200000D01*
G01*
X124393500Y-126945500D01*
G75*
G02*
X124193500Y-127145500I-200000J0D01*
G01*
X123643500Y-127145500D01*
G75*
G02*
X123443500Y-126945500I0J200000D01*
G01*
X123443500Y-126545500D01*
G75*
G02*
X123643500Y-126345500I200000J0D01*
G01*
G37*
G36*
G01*
X123643500Y-124695500D02*
X124193500Y-124695500D01*
G75*
G02*
X124393500Y-124895500I0J-200000D01*
G01*
X124393500Y-125295500D01*
G75*
G02*
X124193500Y-125495500I-200000J0D01*
G01*
X123643500Y-125495500D01*
G75*
G02*
X123443500Y-125295500I0J200000D01*
G01*
X123443500Y-124895500D01*
G75*
G02*
X123643500Y-124695500I200000J0D01*
G01*
G37*
G36*
G01*
X107043500Y-121345500D02*
X107593500Y-121345500D01*
G75*
G02*
X107793500Y-121545500I0J-200000D01*
G01*
X107793500Y-121945500D01*
G75*
G02*
X107593500Y-122145500I-200000J0D01*
G01*
X107043500Y-122145500D01*
G75*
G02*
X106843500Y-121945500I0J200000D01*
G01*
X106843500Y-121545500D01*
G75*
G02*
X107043500Y-121345500I200000J0D01*
G01*
G37*
G36*
G01*
X107043500Y-119695500D02*
X107593500Y-119695500D01*
G75*
G02*
X107793500Y-119895500I0J-200000D01*
G01*
X107793500Y-120295500D01*
G75*
G02*
X107593500Y-120495500I-200000J0D01*
G01*
X107043500Y-120495500D01*
G75*
G02*
X106843500Y-120295500I0J200000D01*
G01*
X106843500Y-119895500D01*
G75*
G02*
X107043500Y-119695500I200000J0D01*
G01*
G37*
G36*
G01*
X157791500Y-100419000D02*
X157791500Y-99869000D01*
G75*
G02*
X157991500Y-99669000I200000J0D01*
G01*
X158391500Y-99669000D01*
G75*
G02*
X158591500Y-99869000I0J-200000D01*
G01*
X158591500Y-100419000D01*
G75*
G02*
X158391500Y-100619000I-200000J0D01*
G01*
X157991500Y-100619000D01*
G75*
G02*
X157791500Y-100419000I0J200000D01*
G01*
G37*
G36*
G01*
X156141500Y-100419000D02*
X156141500Y-99869000D01*
G75*
G02*
X156341500Y-99669000I200000J0D01*
G01*
X156741500Y-99669000D01*
G75*
G02*
X156941500Y-99869000I0J-200000D01*
G01*
X156941500Y-100419000D01*
G75*
G02*
X156741500Y-100619000I-200000J0D01*
G01*
X156341500Y-100619000D01*
G75*
G02*
X156141500Y-100419000I0J200000D01*
G01*
G37*
G36*
G01*
X173901500Y-95934500D02*
X174451500Y-95934500D01*
G75*
G02*
X174651500Y-96134500I0J-200000D01*
G01*
X174651500Y-96534500D01*
G75*
G02*
X174451500Y-96734500I-200000J0D01*
G01*
X173901500Y-96734500D01*
G75*
G02*
X173701500Y-96534500I0J200000D01*
G01*
X173701500Y-96134500D01*
G75*
G02*
X173901500Y-95934500I200000J0D01*
G01*
G37*
G36*
G01*
X173901500Y-94284500D02*
X174451500Y-94284500D01*
G75*
G02*
X174651500Y-94484500I0J-200000D01*
G01*
X174651500Y-94884500D01*
G75*
G02*
X174451500Y-95084500I-200000J0D01*
G01*
X173901500Y-95084500D01*
G75*
G02*
X173701500Y-94884500I0J200000D01*
G01*
X173701500Y-94484500D01*
G75*
G02*
X173901500Y-94284500I200000J0D01*
G01*
G37*
G36*
G01*
X207878000Y-120504000D02*
X208428000Y-120504000D01*
G75*
G02*
X208628000Y-120704000I0J-200000D01*
G01*
X208628000Y-121104000D01*
G75*
G02*
X208428000Y-121304000I-200000J0D01*
G01*
X207878000Y-121304000D01*
G75*
G02*
X207678000Y-121104000I0J200000D01*
G01*
X207678000Y-120704000D01*
G75*
G02*
X207878000Y-120504000I200000J0D01*
G01*
G37*
G36*
G01*
X207878000Y-118854000D02*
X208428000Y-118854000D01*
G75*
G02*
X208628000Y-119054000I0J-200000D01*
G01*
X208628000Y-119454000D01*
G75*
G02*
X208428000Y-119654000I-200000J0D01*
G01*
X207878000Y-119654000D01*
G75*
G02*
X207678000Y-119454000I0J200000D01*
G01*
X207678000Y-119054000D01*
G75*
G02*
X207878000Y-118854000I200000J0D01*
G01*
G37*
G36*
G01*
X113950000Y-76941000D02*
X113950000Y-77491000D01*
G75*
G02*
X113750000Y-77691000I-200000J0D01*
G01*
X113350000Y-77691000D01*
G75*
G02*
X113150000Y-77491000I0J200000D01*
G01*
X113150000Y-76941000D01*
G75*
G02*
X113350000Y-76741000I200000J0D01*
G01*
X113750000Y-76741000D01*
G75*
G02*
X113950000Y-76941000I0J-200000D01*
G01*
G37*
G36*
G01*
X115600000Y-76941000D02*
X115600000Y-77491000D01*
G75*
G02*
X115400000Y-77691000I-200000J0D01*
G01*
X115000000Y-77691000D01*
G75*
G02*
X114800000Y-77491000I0J200000D01*
G01*
X114800000Y-76941000D01*
G75*
G02*
X115000000Y-76741000I200000J0D01*
G01*
X115400000Y-76741000D01*
G75*
G02*
X115600000Y-76941000I0J-200000D01*
G01*
G37*
G36*
G01*
X117940500Y-103016000D02*
X117390500Y-103016000D01*
G75*
G02*
X117190500Y-102816000I0J200000D01*
G01*
X117190500Y-102416000D01*
G75*
G02*
X117390500Y-102216000I200000J0D01*
G01*
X117940500Y-102216000D01*
G75*
G02*
X118140500Y-102416000I0J-200000D01*
G01*
X118140500Y-102816000D01*
G75*
G02*
X117940500Y-103016000I-200000J0D01*
G01*
G37*
G36*
G01*
X117940500Y-104666000D02*
X117390500Y-104666000D01*
G75*
G02*
X117190500Y-104466000I0J200000D01*
G01*
X117190500Y-104066000D01*
G75*
G02*
X117390500Y-103866000I200000J0D01*
G01*
X117940500Y-103866000D01*
G75*
G02*
X118140500Y-104066000I0J-200000D01*
G01*
X118140500Y-104466000D01*
G75*
G02*
X117940500Y-104666000I-200000J0D01*
G01*
G37*
G36*
G01*
X117390500Y-110470000D02*
X117940500Y-110470000D01*
G75*
G02*
X118140500Y-110670000I0J-200000D01*
G01*
X118140500Y-111070000D01*
G75*
G02*
X117940500Y-111270000I-200000J0D01*
G01*
X117390500Y-111270000D01*
G75*
G02*
X117190500Y-111070000I0J200000D01*
G01*
X117190500Y-110670000D01*
G75*
G02*
X117390500Y-110470000I200000J0D01*
G01*
G37*
G36*
G01*
X117390500Y-108820000D02*
X117940500Y-108820000D01*
G75*
G02*
X118140500Y-109020000I0J-200000D01*
G01*
X118140500Y-109420000D01*
G75*
G02*
X117940500Y-109620000I-200000J0D01*
G01*
X117390500Y-109620000D01*
G75*
G02*
X117190500Y-109420000I0J200000D01*
G01*
X117190500Y-109020000D01*
G75*
G02*
X117390500Y-108820000I200000J0D01*
G01*
G37*
G36*
G01*
X106447000Y-107016500D02*
X105897000Y-107016500D01*
G75*
G02*
X105697000Y-106816500I0J200000D01*
G01*
X105697000Y-106416500D01*
G75*
G02*
X105897000Y-106216500I200000J0D01*
G01*
X106447000Y-106216500D01*
G75*
G02*
X106647000Y-106416500I0J-200000D01*
G01*
X106647000Y-106816500D01*
G75*
G02*
X106447000Y-107016500I-200000J0D01*
G01*
G37*
G36*
G01*
X106447000Y-108666500D02*
X105897000Y-108666500D01*
G75*
G02*
X105697000Y-108466500I0J200000D01*
G01*
X105697000Y-108066500D01*
G75*
G02*
X105897000Y-107866500I200000J0D01*
G01*
X106447000Y-107866500D01*
G75*
G02*
X106647000Y-108066500I0J-200000D01*
G01*
X106647000Y-108466500D01*
G75*
G02*
X106447000Y-108666500I-200000J0D01*
G01*
G37*
G36*
G01*
X101377832Y-103547500D02*
X101377832Y-104097500D01*
G75*
G02*
X101177832Y-104297500I-200000J0D01*
G01*
X100777832Y-104297500D01*
G75*
G02*
X100577832Y-104097500I0J200000D01*
G01*
X100577832Y-103547500D01*
G75*
G02*
X100777832Y-103347500I200000J0D01*
G01*
X101177832Y-103347500D01*
G75*
G02*
X101377832Y-103547500I0J-200000D01*
G01*
G37*
G36*
G01*
X103027832Y-103547500D02*
X103027832Y-104097500D01*
G75*
G02*
X102827832Y-104297500I-200000J0D01*
G01*
X102427832Y-104297500D01*
G75*
G02*
X102227832Y-104097500I0J200000D01*
G01*
X102227832Y-103547500D01*
G75*
G02*
X102427832Y-103347500I200000J0D01*
G01*
X102827832Y-103347500D01*
G75*
G02*
X103027832Y-103547500I0J-200000D01*
G01*
G37*
G36*
G01*
X97783666Y-103547500D02*
X97783666Y-104097500D01*
G75*
G02*
X97583666Y-104297500I-200000J0D01*
G01*
X97183666Y-104297500D01*
G75*
G02*
X96983666Y-104097500I0J200000D01*
G01*
X96983666Y-103547500D01*
G75*
G02*
X97183666Y-103347500I200000J0D01*
G01*
X97583666Y-103347500D01*
G75*
G02*
X97783666Y-103547500I0J-200000D01*
G01*
G37*
G36*
G01*
X99433666Y-103547500D02*
X99433666Y-104097500D01*
G75*
G02*
X99233666Y-104297500I-200000J0D01*
G01*
X98833666Y-104297500D01*
G75*
G02*
X98633666Y-104097500I0J200000D01*
G01*
X98633666Y-103547500D01*
G75*
G02*
X98833666Y-103347500I200000J0D01*
G01*
X99233666Y-103347500D01*
G75*
G02*
X99433666Y-103547500I0J-200000D01*
G01*
G37*
G36*
G01*
X94189500Y-103547500D02*
X94189500Y-104097500D01*
G75*
G02*
X93989500Y-104297500I-200000J0D01*
G01*
X93589500Y-104297500D01*
G75*
G02*
X93389500Y-104097500I0J200000D01*
G01*
X93389500Y-103547500D01*
G75*
G02*
X93589500Y-103347500I200000J0D01*
G01*
X93989500Y-103347500D01*
G75*
G02*
X94189500Y-103547500I0J-200000D01*
G01*
G37*
G36*
G01*
X95839500Y-103547500D02*
X95839500Y-104097500D01*
G75*
G02*
X95639500Y-104297500I-200000J0D01*
G01*
X95239500Y-104297500D01*
G75*
G02*
X95039500Y-104097500I0J200000D01*
G01*
X95039500Y-103547500D01*
G75*
G02*
X95239500Y-103347500I200000J0D01*
G01*
X95639500Y-103347500D01*
G75*
G02*
X95839500Y-103547500I0J-200000D01*
G01*
G37*
G36*
G01*
X147362500Y-70656500D02*
X147912500Y-70656500D01*
G75*
G02*
X148112500Y-70856500I0J-200000D01*
G01*
X148112500Y-71256500D01*
G75*
G02*
X147912500Y-71456500I-200000J0D01*
G01*
X147362500Y-71456500D01*
G75*
G02*
X147162500Y-71256500I0J200000D01*
G01*
X147162500Y-70856500D01*
G75*
G02*
X147362500Y-70656500I200000J0D01*
G01*
G37*
G36*
G01*
X147362500Y-69006500D02*
X147912500Y-69006500D01*
G75*
G02*
X148112500Y-69206500I0J-200000D01*
G01*
X148112500Y-69606500D01*
G75*
G02*
X147912500Y-69806500I-200000J0D01*
G01*
X147362500Y-69806500D01*
G75*
G02*
X147162500Y-69606500I0J200000D01*
G01*
X147162500Y-69206500D01*
G75*
G02*
X147362500Y-69006500I200000J0D01*
G01*
G37*
G36*
G01*
X209594500Y-99144500D02*
X209594500Y-98594500D01*
G75*
G02*
X209794500Y-98394500I200000J0D01*
G01*
X210194500Y-98394500D01*
G75*
G02*
X210394500Y-98594500I0J-200000D01*
G01*
X210394500Y-99144500D01*
G75*
G02*
X210194500Y-99344500I-200000J0D01*
G01*
X209794500Y-99344500D01*
G75*
G02*
X209594500Y-99144500I0J200000D01*
G01*
G37*
G36*
G01*
X207944500Y-99144500D02*
X207944500Y-98594500D01*
G75*
G02*
X208144500Y-98394500I200000J0D01*
G01*
X208544500Y-98394500D01*
G75*
G02*
X208744500Y-98594500I0J-200000D01*
G01*
X208744500Y-99144500D01*
G75*
G02*
X208544500Y-99344500I-200000J0D01*
G01*
X208144500Y-99344500D01*
G75*
G02*
X207944500Y-99144500I0J200000D01*
G01*
G37*
G36*
G01*
X205007500Y-99144500D02*
X205007500Y-98594500D01*
G75*
G02*
X205207500Y-98394500I200000J0D01*
G01*
X205607500Y-98394500D01*
G75*
G02*
X205807500Y-98594500I0J-200000D01*
G01*
X205807500Y-99144500D01*
G75*
G02*
X205607500Y-99344500I-200000J0D01*
G01*
X205207500Y-99344500D01*
G75*
G02*
X205007500Y-99144500I0J200000D01*
G01*
G37*
G36*
G01*
X203357500Y-99144500D02*
X203357500Y-98594500D01*
G75*
G02*
X203557500Y-98394500I200000J0D01*
G01*
X203957500Y-98394500D01*
G75*
G02*
X204157500Y-98594500I0J-200000D01*
G01*
X204157500Y-99144500D01*
G75*
G02*
X203957500Y-99344500I-200000J0D01*
G01*
X203557500Y-99344500D01*
G75*
G02*
X203357500Y-99144500I0J200000D01*
G01*
G37*
G36*
G01*
X75292000Y-84476000D02*
X75292000Y-83926000D01*
G75*
G02*
X75492000Y-83726000I200000J0D01*
G01*
X75892000Y-83726000D01*
G75*
G02*
X76092000Y-83926000I0J-200000D01*
G01*
X76092000Y-84476000D01*
G75*
G02*
X75892000Y-84676000I-200000J0D01*
G01*
X75492000Y-84676000D01*
G75*
G02*
X75292000Y-84476000I0J200000D01*
G01*
G37*
G36*
G01*
X73642000Y-84476000D02*
X73642000Y-83926000D01*
G75*
G02*
X73842000Y-83726000I200000J0D01*
G01*
X74242000Y-83726000D01*
G75*
G02*
X74442000Y-83926000I0J-200000D01*
G01*
X74442000Y-84476000D01*
G75*
G02*
X74242000Y-84676000I-200000J0D01*
G01*
X73842000Y-84676000D01*
G75*
G02*
X73642000Y-84476000I0J200000D01*
G01*
G37*
G36*
G01*
X75291000Y-87460500D02*
X75291000Y-86910500D01*
G75*
G02*
X75491000Y-86710500I200000J0D01*
G01*
X75891000Y-86710500D01*
G75*
G02*
X76091000Y-86910500I0J-200000D01*
G01*
X76091000Y-87460500D01*
G75*
G02*
X75891000Y-87660500I-200000J0D01*
G01*
X75491000Y-87660500D01*
G75*
G02*
X75291000Y-87460500I0J200000D01*
G01*
G37*
G36*
G01*
X73641000Y-87460500D02*
X73641000Y-86910500D01*
G75*
G02*
X73841000Y-86710500I200000J0D01*
G01*
X74241000Y-86710500D01*
G75*
G02*
X74441000Y-86910500I0J-200000D01*
G01*
X74441000Y-87460500D01*
G75*
G02*
X74241000Y-87660500I-200000J0D01*
G01*
X73841000Y-87660500D01*
G75*
G02*
X73641000Y-87460500I0J200000D01*
G01*
G37*
G36*
G01*
X147395500Y-104612500D02*
X147945500Y-104612500D01*
G75*
G02*
X148145500Y-104812500I0J-200000D01*
G01*
X148145500Y-105212500D01*
G75*
G02*
X147945500Y-105412500I-200000J0D01*
G01*
X147395500Y-105412500D01*
G75*
G02*
X147195500Y-105212500I0J200000D01*
G01*
X147195500Y-104812500D01*
G75*
G02*
X147395500Y-104612500I200000J0D01*
G01*
G37*
G36*
G01*
X147395500Y-102962500D02*
X147945500Y-102962500D01*
G75*
G02*
X148145500Y-103162500I0J-200000D01*
G01*
X148145500Y-103562500D01*
G75*
G02*
X147945500Y-103762500I-200000J0D01*
G01*
X147395500Y-103762500D01*
G75*
G02*
X147195500Y-103562500I0J200000D01*
G01*
X147195500Y-103162500D01*
G75*
G02*
X147395500Y-102962500I200000J0D01*
G01*
G37*
G36*
G01*
X165474500Y-86297500D02*
X166024500Y-86297500D01*
G75*
G02*
X166224500Y-86497500I0J-200000D01*
G01*
X166224500Y-86897500D01*
G75*
G02*
X166024500Y-87097500I-200000J0D01*
G01*
X165474500Y-87097500D01*
G75*
G02*
X165274500Y-86897500I0J200000D01*
G01*
X165274500Y-86497500D01*
G75*
G02*
X165474500Y-86297500I200000J0D01*
G01*
G37*
G36*
G01*
X165474500Y-84647500D02*
X166024500Y-84647500D01*
G75*
G02*
X166224500Y-84847500I0J-200000D01*
G01*
X166224500Y-85247500D01*
G75*
G02*
X166024500Y-85447500I-200000J0D01*
G01*
X165474500Y-85447500D01*
G75*
G02*
X165274500Y-85247500I0J200000D01*
G01*
X165274500Y-84847500D01*
G75*
G02*
X165474500Y-84647500I200000J0D01*
G01*
G37*
G36*
G01*
X175999500Y-88597500D02*
X175999500Y-89147500D01*
G75*
G02*
X175799500Y-89347500I-200000J0D01*
G01*
X175399500Y-89347500D01*
G75*
G02*
X175199500Y-89147500I0J200000D01*
G01*
X175199500Y-88597500D01*
G75*
G02*
X175399500Y-88397500I200000J0D01*
G01*
X175799500Y-88397500D01*
G75*
G02*
X175999500Y-88597500I0J-200000D01*
G01*
G37*
G36*
G01*
X177649500Y-88597500D02*
X177649500Y-89147500D01*
G75*
G02*
X177449500Y-89347500I-200000J0D01*
G01*
X177049500Y-89347500D01*
G75*
G02*
X176849500Y-89147500I0J200000D01*
G01*
X176849500Y-88597500D01*
G75*
G02*
X177049500Y-88397500I200000J0D01*
G01*
X177449500Y-88397500D01*
G75*
G02*
X177649500Y-88597500I0J-200000D01*
G01*
G37*
G36*
G01*
X200702500Y-85071000D02*
X201252500Y-85071000D01*
G75*
G02*
X201452500Y-85271000I0J-200000D01*
G01*
X201452500Y-85671000D01*
G75*
G02*
X201252500Y-85871000I-200000J0D01*
G01*
X200702500Y-85871000D01*
G75*
G02*
X200502500Y-85671000I0J200000D01*
G01*
X200502500Y-85271000D01*
G75*
G02*
X200702500Y-85071000I200000J0D01*
G01*
G37*
G36*
G01*
X200702500Y-83421000D02*
X201252500Y-83421000D01*
G75*
G02*
X201452500Y-83621000I0J-200000D01*
G01*
X201452500Y-84021000D01*
G75*
G02*
X201252500Y-84221000I-200000J0D01*
G01*
X200702500Y-84221000D01*
G75*
G02*
X200502500Y-84021000I0J200000D01*
G01*
X200502500Y-83621000D01*
G75*
G02*
X200702500Y-83421000I200000J0D01*
G01*
G37*
G36*
G01*
X162474500Y-86297500D02*
X163024500Y-86297500D01*
G75*
G02*
X163224500Y-86497500I0J-200000D01*
G01*
X163224500Y-86897500D01*
G75*
G02*
X163024500Y-87097500I-200000J0D01*
G01*
X162474500Y-87097500D01*
G75*
G02*
X162274500Y-86897500I0J200000D01*
G01*
X162274500Y-86497500D01*
G75*
G02*
X162474500Y-86297500I200000J0D01*
G01*
G37*
G36*
G01*
X162474500Y-84647500D02*
X163024500Y-84647500D01*
G75*
G02*
X163224500Y-84847500I0J-200000D01*
G01*
X163224500Y-85247500D01*
G75*
G02*
X163024500Y-85447500I-200000J0D01*
G01*
X162474500Y-85447500D01*
G75*
G02*
X162274500Y-85247500I0J200000D01*
G01*
X162274500Y-84847500D01*
G75*
G02*
X162474500Y-84647500I200000J0D01*
G01*
G37*
G36*
G01*
X176849500Y-87147500D02*
X176849500Y-86597500D01*
G75*
G02*
X177049500Y-86397500I200000J0D01*
G01*
X177449500Y-86397500D01*
G75*
G02*
X177649500Y-86597500I0J-200000D01*
G01*
X177649500Y-87147500D01*
G75*
G02*
X177449500Y-87347500I-200000J0D01*
G01*
X177049500Y-87347500D01*
G75*
G02*
X176849500Y-87147500I0J200000D01*
G01*
G37*
G36*
G01*
X175199500Y-87147500D02*
X175199500Y-86597500D01*
G75*
G02*
X175399500Y-86397500I200000J0D01*
G01*
X175799500Y-86397500D01*
G75*
G02*
X175999500Y-86597500I0J-200000D01*
G01*
X175999500Y-87147500D01*
G75*
G02*
X175799500Y-87347500I-200000J0D01*
G01*
X175399500Y-87347500D01*
G75*
G02*
X175199500Y-87147500I0J200000D01*
G01*
G37*
G36*
G01*
X164649500Y-81097500D02*
X164649500Y-81647500D01*
G75*
G02*
X164449500Y-81847500I-200000J0D01*
G01*
X164049500Y-81847500D01*
G75*
G02*
X163849500Y-81647500I0J200000D01*
G01*
X163849500Y-81097500D01*
G75*
G02*
X164049500Y-80897500I200000J0D01*
G01*
X164449500Y-80897500D01*
G75*
G02*
X164649500Y-81097500I0J-200000D01*
G01*
G37*
G36*
G01*
X166299500Y-81097500D02*
X166299500Y-81647500D01*
G75*
G02*
X166099500Y-81847500I-200000J0D01*
G01*
X165699500Y-81847500D01*
G75*
G02*
X165499500Y-81647500I0J200000D01*
G01*
X165499500Y-81097500D01*
G75*
G02*
X165699500Y-80897500I200000J0D01*
G01*
X166099500Y-80897500D01*
G75*
G02*
X166299500Y-81097500I0J-200000D01*
G01*
G37*
G36*
G01*
X164649500Y-88597500D02*
X164649500Y-89147500D01*
G75*
G02*
X164449500Y-89347500I-200000J0D01*
G01*
X164049500Y-89347500D01*
G75*
G02*
X163849500Y-89147500I0J200000D01*
G01*
X163849500Y-88597500D01*
G75*
G02*
X164049500Y-88397500I200000J0D01*
G01*
X164449500Y-88397500D01*
G75*
G02*
X164649500Y-88597500I0J-200000D01*
G01*
G37*
G36*
G01*
X166299500Y-88597500D02*
X166299500Y-89147500D01*
G75*
G02*
X166099500Y-89347500I-200000J0D01*
G01*
X165699500Y-89347500D01*
G75*
G02*
X165499500Y-89147500I0J200000D01*
G01*
X165499500Y-88597500D01*
G75*
G02*
X165699500Y-88397500I200000J0D01*
G01*
X166099500Y-88397500D01*
G75*
G02*
X166299500Y-88597500I0J-200000D01*
G01*
G37*
G36*
G01*
X176849500Y-83147500D02*
X176849500Y-82597500D01*
G75*
G02*
X177049500Y-82397500I200000J0D01*
G01*
X177449500Y-82397500D01*
G75*
G02*
X177649500Y-82597500I0J-200000D01*
G01*
X177649500Y-83147500D01*
G75*
G02*
X177449500Y-83347500I-200000J0D01*
G01*
X177049500Y-83347500D01*
G75*
G02*
X176849500Y-83147500I0J200000D01*
G01*
G37*
G36*
G01*
X175199500Y-83147500D02*
X175199500Y-82597500D01*
G75*
G02*
X175399500Y-82397500I200000J0D01*
G01*
X175799500Y-82397500D01*
G75*
G02*
X175999500Y-82597500I0J-200000D01*
G01*
X175999500Y-83147500D01*
G75*
G02*
X175799500Y-83347500I-200000J0D01*
G01*
X175399500Y-83347500D01*
G75*
G02*
X175199500Y-83147500I0J200000D01*
G01*
G37*
G36*
G01*
X175999500Y-78597500D02*
X175999500Y-79147500D01*
G75*
G02*
X175799500Y-79347500I-200000J0D01*
G01*
X175399500Y-79347500D01*
G75*
G02*
X175199500Y-79147500I0J200000D01*
G01*
X175199500Y-78597500D01*
G75*
G02*
X175399500Y-78397500I200000J0D01*
G01*
X175799500Y-78397500D01*
G75*
G02*
X175999500Y-78597500I0J-200000D01*
G01*
G37*
G36*
G01*
X177649500Y-78597500D02*
X177649500Y-79147500D01*
G75*
G02*
X177449500Y-79347500I-200000J0D01*
G01*
X177049500Y-79347500D01*
G75*
G02*
X176849500Y-79147500I0J200000D01*
G01*
X176849500Y-78597500D01*
G75*
G02*
X177049500Y-78397500I200000J0D01*
G01*
X177449500Y-78397500D01*
G75*
G02*
X177649500Y-78597500I0J-200000D01*
G01*
G37*
G36*
G01*
X147395500Y-100971500D02*
X147945500Y-100971500D01*
G75*
G02*
X148145500Y-101171500I0J-200000D01*
G01*
X148145500Y-101571500D01*
G75*
G02*
X147945500Y-101771500I-200000J0D01*
G01*
X147395500Y-101771500D01*
G75*
G02*
X147195500Y-101571500I0J200000D01*
G01*
X147195500Y-101171500D01*
G75*
G02*
X147395500Y-100971500I200000J0D01*
G01*
G37*
G36*
G01*
X147395500Y-99321500D02*
X147945500Y-99321500D01*
G75*
G02*
X148145500Y-99521500I0J-200000D01*
G01*
X148145500Y-99921500D01*
G75*
G02*
X147945500Y-100121500I-200000J0D01*
G01*
X147395500Y-100121500D01*
G75*
G02*
X147195500Y-99921500I0J200000D01*
G01*
X147195500Y-99521500D01*
G75*
G02*
X147395500Y-99321500I200000J0D01*
G01*
G37*
G36*
G01*
X168974500Y-80972500D02*
X169524500Y-80972500D01*
G75*
G02*
X169724500Y-81172500I0J-200000D01*
G01*
X169724500Y-81572500D01*
G75*
G02*
X169524500Y-81772500I-200000J0D01*
G01*
X168974500Y-81772500D01*
G75*
G02*
X168774500Y-81572500I0J200000D01*
G01*
X168774500Y-81172500D01*
G75*
G02*
X168974500Y-80972500I200000J0D01*
G01*
G37*
G36*
G01*
X168974500Y-79322500D02*
X169524500Y-79322500D01*
G75*
G02*
X169724500Y-79522500I0J-200000D01*
G01*
X169724500Y-79922500D01*
G75*
G02*
X169524500Y-80122500I-200000J0D01*
G01*
X168974500Y-80122500D01*
G75*
G02*
X168774500Y-79922500I0J200000D01*
G01*
X168774500Y-79522500D01*
G75*
G02*
X168974500Y-79322500I200000J0D01*
G01*
G37*
G36*
G01*
X164649500Y-83097500D02*
X164649500Y-83647500D01*
G75*
G02*
X164449500Y-83847500I-200000J0D01*
G01*
X164049500Y-83847500D01*
G75*
G02*
X163849500Y-83647500I0J200000D01*
G01*
X163849500Y-83097500D01*
G75*
G02*
X164049500Y-82897500I200000J0D01*
G01*
X164449500Y-82897500D01*
G75*
G02*
X164649500Y-83097500I0J-200000D01*
G01*
G37*
G36*
G01*
X166299500Y-83097500D02*
X166299500Y-83647500D01*
G75*
G02*
X166099500Y-83847500I-200000J0D01*
G01*
X165699500Y-83847500D01*
G75*
G02*
X165499500Y-83647500I0J200000D01*
G01*
X165499500Y-83097500D01*
G75*
G02*
X165699500Y-82897500I200000J0D01*
G01*
X166099500Y-82897500D01*
G75*
G02*
X166299500Y-83097500I0J-200000D01*
G01*
G37*
G36*
G01*
X176849500Y-77147500D02*
X176849500Y-76597500D01*
G75*
G02*
X177049500Y-76397500I200000J0D01*
G01*
X177449500Y-76397500D01*
G75*
G02*
X177649500Y-76597500I0J-200000D01*
G01*
X177649500Y-77147500D01*
G75*
G02*
X177449500Y-77347500I-200000J0D01*
G01*
X177049500Y-77347500D01*
G75*
G02*
X176849500Y-77147500I0J200000D01*
G01*
G37*
G36*
G01*
X175199500Y-77147500D02*
X175199500Y-76597500D01*
G75*
G02*
X175399500Y-76397500I200000J0D01*
G01*
X175799500Y-76397500D01*
G75*
G02*
X175999500Y-76597500I0J-200000D01*
G01*
X175999500Y-77147500D01*
G75*
G02*
X175799500Y-77347500I-200000J0D01*
G01*
X175399500Y-77347500D01*
G75*
G02*
X175199500Y-77147500I0J200000D01*
G01*
G37*
G36*
G01*
X176849500Y-85147500D02*
X176849500Y-84597500D01*
G75*
G02*
X177049500Y-84397500I200000J0D01*
G01*
X177449500Y-84397500D01*
G75*
G02*
X177649500Y-84597500I0J-200000D01*
G01*
X177649500Y-85147500D01*
G75*
G02*
X177449500Y-85347500I-200000J0D01*
G01*
X177049500Y-85347500D01*
G75*
G02*
X176849500Y-85147500I0J200000D01*
G01*
G37*
G36*
G01*
X175199500Y-85147500D02*
X175199500Y-84597500D01*
G75*
G02*
X175399500Y-84397500I200000J0D01*
G01*
X175799500Y-84397500D01*
G75*
G02*
X175999500Y-84597500I0J-200000D01*
G01*
X175999500Y-85147500D01*
G75*
G02*
X175799500Y-85347500I-200000J0D01*
G01*
X175399500Y-85347500D01*
G75*
G02*
X175199500Y-85147500I0J200000D01*
G01*
G37*
G36*
G01*
X189845500Y-103145000D02*
X189845500Y-102595000D01*
G75*
G02*
X190045500Y-102395000I200000J0D01*
G01*
X190445500Y-102395000D01*
G75*
G02*
X190645500Y-102595000I0J-200000D01*
G01*
X190645500Y-103145000D01*
G75*
G02*
X190445500Y-103345000I-200000J0D01*
G01*
X190045500Y-103345000D01*
G75*
G02*
X189845500Y-103145000I0J200000D01*
G01*
G37*
G36*
G01*
X188195500Y-103145000D02*
X188195500Y-102595000D01*
G75*
G02*
X188395500Y-102395000I200000J0D01*
G01*
X188795500Y-102395000D01*
G75*
G02*
X188995500Y-102595000I0J-200000D01*
G01*
X188995500Y-103145000D01*
G75*
G02*
X188795500Y-103345000I-200000J0D01*
G01*
X188395500Y-103345000D01*
G75*
G02*
X188195500Y-103145000I0J200000D01*
G01*
G37*
G36*
G01*
X149309500Y-94380500D02*
X148759500Y-94380500D01*
G75*
G02*
X148559500Y-94180500I0J200000D01*
G01*
X148559500Y-93780500D01*
G75*
G02*
X148759500Y-93580500I200000J0D01*
G01*
X149309500Y-93580500D01*
G75*
G02*
X149509500Y-93780500I0J-200000D01*
G01*
X149509500Y-94180500D01*
G75*
G02*
X149309500Y-94380500I-200000J0D01*
G01*
G37*
G36*
G01*
X149309500Y-96030500D02*
X148759500Y-96030500D01*
G75*
G02*
X148559500Y-95830500I0J200000D01*
G01*
X148559500Y-95430500D01*
G75*
G02*
X148759500Y-95230500I200000J0D01*
G01*
X149309500Y-95230500D01*
G75*
G02*
X149509500Y-95430500I0J-200000D01*
G01*
X149509500Y-95830500D01*
G75*
G02*
X149309500Y-96030500I-200000J0D01*
G01*
G37*
G36*
G01*
X138132000Y-104119000D02*
X138132000Y-104669000D01*
G75*
G02*
X137932000Y-104869000I-200000J0D01*
G01*
X137532000Y-104869000D01*
G75*
G02*
X137332000Y-104669000I0J200000D01*
G01*
X137332000Y-104119000D01*
G75*
G02*
X137532000Y-103919000I200000J0D01*
G01*
X137932000Y-103919000D01*
G75*
G02*
X138132000Y-104119000I0J-200000D01*
G01*
G37*
G36*
G01*
X139782000Y-104119000D02*
X139782000Y-104669000D01*
G75*
G02*
X139582000Y-104869000I-200000J0D01*
G01*
X139182000Y-104869000D01*
G75*
G02*
X138982000Y-104669000I0J200000D01*
G01*
X138982000Y-104119000D01*
G75*
G02*
X139182000Y-103919000I200000J0D01*
G01*
X139582000Y-103919000D01*
G75*
G02*
X139782000Y-104119000I0J-200000D01*
G01*
G37*
G36*
G01*
X123995500Y-76157500D02*
X123995500Y-75607500D01*
G75*
G02*
X124195500Y-75407500I200000J0D01*
G01*
X124595500Y-75407500D01*
G75*
G02*
X124795500Y-75607500I0J-200000D01*
G01*
X124795500Y-76157500D01*
G75*
G02*
X124595500Y-76357500I-200000J0D01*
G01*
X124195500Y-76357500D01*
G75*
G02*
X123995500Y-76157500I0J200000D01*
G01*
G37*
G36*
G01*
X122345500Y-76157500D02*
X122345500Y-75607500D01*
G75*
G02*
X122545500Y-75407500I200000J0D01*
G01*
X122945500Y-75407500D01*
G75*
G02*
X123145500Y-75607500I0J-200000D01*
G01*
X123145500Y-76157500D01*
G75*
G02*
X122945500Y-76357500I-200000J0D01*
G01*
X122545500Y-76357500D01*
G75*
G02*
X122345500Y-76157500I0J200000D01*
G01*
G37*
G36*
G01*
X128226000Y-87025500D02*
X128226000Y-87575500D01*
G75*
G02*
X128026000Y-87775500I-200000J0D01*
G01*
X127626000Y-87775500D01*
G75*
G02*
X127426000Y-87575500I0J200000D01*
G01*
X127426000Y-87025500D01*
G75*
G02*
X127626000Y-86825500I200000J0D01*
G01*
X128026000Y-86825500D01*
G75*
G02*
X128226000Y-87025500I0J-200000D01*
G01*
G37*
G36*
G01*
X129876000Y-87025500D02*
X129876000Y-87575500D01*
G75*
G02*
X129676000Y-87775500I-200000J0D01*
G01*
X129276000Y-87775500D01*
G75*
G02*
X129076000Y-87575500I0J200000D01*
G01*
X129076000Y-87025500D01*
G75*
G02*
X129276000Y-86825500I200000J0D01*
G01*
X129676000Y-86825500D01*
G75*
G02*
X129876000Y-87025500I0J-200000D01*
G01*
G37*
G36*
G01*
X142010000Y-70935500D02*
X141460000Y-70935500D01*
G75*
G02*
X141260000Y-70735500I0J200000D01*
G01*
X141260000Y-70335500D01*
G75*
G02*
X141460000Y-70135500I200000J0D01*
G01*
X142010000Y-70135500D01*
G75*
G02*
X142210000Y-70335500I0J-200000D01*
G01*
X142210000Y-70735500D01*
G75*
G02*
X142010000Y-70935500I-200000J0D01*
G01*
G37*
G36*
G01*
X142010000Y-72585500D02*
X141460000Y-72585500D01*
G75*
G02*
X141260000Y-72385500I0J200000D01*
G01*
X141260000Y-71985500D01*
G75*
G02*
X141460000Y-71785500I200000J0D01*
G01*
X142010000Y-71785500D01*
G75*
G02*
X142210000Y-71985500I0J-200000D01*
G01*
X142210000Y-72385500D01*
G75*
G02*
X142010000Y-72585500I-200000J0D01*
G01*
G37*
G36*
G01*
X111993500Y-118320500D02*
X111993500Y-116170500D01*
G75*
G02*
X112243500Y-115920500I250000J0D01*
G01*
X112993500Y-115920500D01*
G75*
G02*
X113243500Y-116170500I0J-250000D01*
G01*
X113243500Y-118320500D01*
G75*
G02*
X112993500Y-118570500I-250000J0D01*
G01*
X112243500Y-118570500D01*
G75*
G02*
X111993500Y-118320500I0J250000D01*
G01*
G37*
G36*
G01*
X109193500Y-118320500D02*
X109193500Y-116170500D01*
G75*
G02*
X109443500Y-115920500I250000J0D01*
G01*
X110193500Y-115920500D01*
G75*
G02*
X110443500Y-116170500I0J-250000D01*
G01*
X110443500Y-118320500D01*
G75*
G02*
X110193500Y-118570500I-250000J0D01*
G01*
X109443500Y-118570500D01*
G75*
G02*
X109193500Y-118320500I0J250000D01*
G01*
G37*
G36*
G01*
X138082000Y-111638500D02*
X139032000Y-111638500D01*
G75*
G02*
X139282000Y-111888500I0J-250000D01*
G01*
X139282000Y-112388500D01*
G75*
G02*
X139032000Y-112638500I-250000J0D01*
G01*
X138082000Y-112638500D01*
G75*
G02*
X137832000Y-112388500I0J250000D01*
G01*
X137832000Y-111888500D01*
G75*
G02*
X138082000Y-111638500I250000J0D01*
G01*
G37*
G36*
G01*
X138082000Y-109738500D02*
X139032000Y-109738500D01*
G75*
G02*
X139282000Y-109988500I0J-250000D01*
G01*
X139282000Y-110488500D01*
G75*
G02*
X139032000Y-110738500I-250000J0D01*
G01*
X138082000Y-110738500D01*
G75*
G02*
X137832000Y-110488500I0J250000D01*
G01*
X137832000Y-109988500D01*
G75*
G02*
X138082000Y-109738500I250000J0D01*
G01*
G37*
D20*
X132842000Y-115348000D03*
X132842000Y-119348000D03*
D21*
X103318500Y-117245500D03*
X107318500Y-117245500D03*
D22*
X97818500Y-123645500D03*
X97818500Y-116845500D03*
D23*
X109640000Y-76180000D03*
X111640000Y-75530000D03*
X111640000Y-76830000D03*
G36*
G01*
X69536500Y-113939500D02*
X70036500Y-113939500D01*
G75*
G02*
X70261500Y-114164500I0J-225000D01*
G01*
X70261500Y-114614500D01*
G75*
G02*
X70036500Y-114839500I-225000J0D01*
G01*
X69536500Y-114839500D01*
G75*
G02*
X69311500Y-114614500I0J225000D01*
G01*
X69311500Y-114164500D01*
G75*
G02*
X69536500Y-113939500I225000J0D01*
G01*
G37*
G36*
G01*
X69536500Y-112389500D02*
X70036500Y-112389500D01*
G75*
G02*
X70261500Y-112614500I0J-225000D01*
G01*
X70261500Y-113064500D01*
G75*
G02*
X70036500Y-113289500I-225000J0D01*
G01*
X69536500Y-113289500D01*
G75*
G02*
X69311500Y-113064500I0J225000D01*
G01*
X69311500Y-112614500D01*
G75*
G02*
X69536500Y-112389500I225000J0D01*
G01*
G37*
G36*
G01*
X69497500Y-109917500D02*
X69997500Y-109917500D01*
G75*
G02*
X70222500Y-110142500I0J-225000D01*
G01*
X70222500Y-110592500D01*
G75*
G02*
X69997500Y-110817500I-225000J0D01*
G01*
X69497500Y-110817500D01*
G75*
G02*
X69272500Y-110592500I0J225000D01*
G01*
X69272500Y-110142500D01*
G75*
G02*
X69497500Y-109917500I225000J0D01*
G01*
G37*
G36*
G01*
X69497500Y-108367500D02*
X69997500Y-108367500D01*
G75*
G02*
X70222500Y-108592500I0J-225000D01*
G01*
X70222500Y-109042500D01*
G75*
G02*
X69997500Y-109267500I-225000J0D01*
G01*
X69497500Y-109267500D01*
G75*
G02*
X69272500Y-109042500I0J225000D01*
G01*
X69272500Y-108592500D01*
G75*
G02*
X69497500Y-108367500I225000J0D01*
G01*
G37*
G36*
G01*
X69480500Y-102297500D02*
X69980500Y-102297500D01*
G75*
G02*
X70205500Y-102522500I0J-225000D01*
G01*
X70205500Y-102972500D01*
G75*
G02*
X69980500Y-103197500I-225000J0D01*
G01*
X69480500Y-103197500D01*
G75*
G02*
X69255500Y-102972500I0J225000D01*
G01*
X69255500Y-102522500D01*
G75*
G02*
X69480500Y-102297500I225000J0D01*
G01*
G37*
G36*
G01*
X69480500Y-100747500D02*
X69980500Y-100747500D01*
G75*
G02*
X70205500Y-100972500I0J-225000D01*
G01*
X70205500Y-101422500D01*
G75*
G02*
X69980500Y-101647500I-225000J0D01*
G01*
X69480500Y-101647500D01*
G75*
G02*
X69255500Y-101422500I0J225000D01*
G01*
X69255500Y-100972500D01*
G75*
G02*
X69480500Y-100747500I225000J0D01*
G01*
G37*
G36*
G01*
X101591000Y-100562500D02*
X102091000Y-100562500D01*
G75*
G02*
X102316000Y-100787500I0J-225000D01*
G01*
X102316000Y-101237500D01*
G75*
G02*
X102091000Y-101462500I-225000J0D01*
G01*
X101591000Y-101462500D01*
G75*
G02*
X101366000Y-101237500I0J225000D01*
G01*
X101366000Y-100787500D01*
G75*
G02*
X101591000Y-100562500I225000J0D01*
G01*
G37*
G36*
G01*
X101591000Y-99012500D02*
X102091000Y-99012500D01*
G75*
G02*
X102316000Y-99237500I0J-225000D01*
G01*
X102316000Y-99687500D01*
G75*
G02*
X102091000Y-99912500I-225000J0D01*
G01*
X101591000Y-99912500D01*
G75*
G02*
X101366000Y-99687500I0J225000D01*
G01*
X101366000Y-99237500D01*
G75*
G02*
X101591000Y-99012500I225000J0D01*
G01*
G37*
G36*
G01*
X101591000Y-86281500D02*
X102091000Y-86281500D01*
G75*
G02*
X102316000Y-86506500I0J-225000D01*
G01*
X102316000Y-86956500D01*
G75*
G02*
X102091000Y-87181500I-225000J0D01*
G01*
X101591000Y-87181500D01*
G75*
G02*
X101366000Y-86956500I0J225000D01*
G01*
X101366000Y-86506500D01*
G75*
G02*
X101591000Y-86281500I225000J0D01*
G01*
G37*
G36*
G01*
X101591000Y-84731500D02*
X102091000Y-84731500D01*
G75*
G02*
X102316000Y-84956500I0J-225000D01*
G01*
X102316000Y-85406500D01*
G75*
G02*
X102091000Y-85631500I-225000J0D01*
G01*
X101591000Y-85631500D01*
G75*
G02*
X101366000Y-85406500I0J225000D01*
G01*
X101366000Y-84956500D01*
G75*
G02*
X101591000Y-84731500I225000J0D01*
G01*
G37*
G36*
G01*
X101591000Y-89844000D02*
X102091000Y-89844000D01*
G75*
G02*
X102316000Y-90069000I0J-225000D01*
G01*
X102316000Y-90519000D01*
G75*
G02*
X102091000Y-90744000I-225000J0D01*
G01*
X101591000Y-90744000D01*
G75*
G02*
X101366000Y-90519000I0J225000D01*
G01*
X101366000Y-90069000D01*
G75*
G02*
X101591000Y-89844000I225000J0D01*
G01*
G37*
G36*
G01*
X101591000Y-88294000D02*
X102091000Y-88294000D01*
G75*
G02*
X102316000Y-88519000I0J-225000D01*
G01*
X102316000Y-88969000D01*
G75*
G02*
X102091000Y-89194000I-225000J0D01*
G01*
X101591000Y-89194000D01*
G75*
G02*
X101366000Y-88969000I0J225000D01*
G01*
X101366000Y-88519000D01*
G75*
G02*
X101591000Y-88294000I225000J0D01*
G01*
G37*
G36*
G01*
X101591000Y-93406500D02*
X102091000Y-93406500D01*
G75*
G02*
X102316000Y-93631500I0J-225000D01*
G01*
X102316000Y-94081500D01*
G75*
G02*
X102091000Y-94306500I-225000J0D01*
G01*
X101591000Y-94306500D01*
G75*
G02*
X101366000Y-94081500I0J225000D01*
G01*
X101366000Y-93631500D01*
G75*
G02*
X101591000Y-93406500I225000J0D01*
G01*
G37*
G36*
G01*
X101591000Y-91856500D02*
X102091000Y-91856500D01*
G75*
G02*
X102316000Y-92081500I0J-225000D01*
G01*
X102316000Y-92531500D01*
G75*
G02*
X102091000Y-92756500I-225000J0D01*
G01*
X101591000Y-92756500D01*
G75*
G02*
X101366000Y-92531500I0J225000D01*
G01*
X101366000Y-92081500D01*
G75*
G02*
X101591000Y-91856500I225000J0D01*
G01*
G37*
G36*
G01*
X101591000Y-96969000D02*
X102091000Y-96969000D01*
G75*
G02*
X102316000Y-97194000I0J-225000D01*
G01*
X102316000Y-97644000D01*
G75*
G02*
X102091000Y-97869000I-225000J0D01*
G01*
X101591000Y-97869000D01*
G75*
G02*
X101366000Y-97644000I0J225000D01*
G01*
X101366000Y-97194000D01*
G75*
G02*
X101591000Y-96969000I225000J0D01*
G01*
G37*
G36*
G01*
X101591000Y-95419000D02*
X102091000Y-95419000D01*
G75*
G02*
X102316000Y-95644000I0J-225000D01*
G01*
X102316000Y-96094000D01*
G75*
G02*
X102091000Y-96319000I-225000J0D01*
G01*
X101591000Y-96319000D01*
G75*
G02*
X101366000Y-96094000I0J225000D01*
G01*
X101366000Y-95644000D01*
G75*
G02*
X101591000Y-95419000I225000J0D01*
G01*
G37*
G36*
G01*
X121523500Y-90452500D02*
X122023500Y-90452500D01*
G75*
G02*
X122248500Y-90677500I0J-225000D01*
G01*
X122248500Y-91127500D01*
G75*
G02*
X122023500Y-91352500I-225000J0D01*
G01*
X121523500Y-91352500D01*
G75*
G02*
X121298500Y-91127500I0J225000D01*
G01*
X121298500Y-90677500D01*
G75*
G02*
X121523500Y-90452500I225000J0D01*
G01*
G37*
G36*
G01*
X121523500Y-88902500D02*
X122023500Y-88902500D01*
G75*
G02*
X122248500Y-89127500I0J-225000D01*
G01*
X122248500Y-89577500D01*
G75*
G02*
X122023500Y-89802500I-225000J0D01*
G01*
X121523500Y-89802500D01*
G75*
G02*
X121298500Y-89577500I0J225000D01*
G01*
X121298500Y-89127500D01*
G75*
G02*
X121523500Y-88902500I225000J0D01*
G01*
G37*
G36*
G01*
X122023500Y-86577500D02*
X121523500Y-86577500D01*
G75*
G02*
X121298500Y-86352500I0J225000D01*
G01*
X121298500Y-85902500D01*
G75*
G02*
X121523500Y-85677500I225000J0D01*
G01*
X122023500Y-85677500D01*
G75*
G02*
X122248500Y-85902500I0J-225000D01*
G01*
X122248500Y-86352500D01*
G75*
G02*
X122023500Y-86577500I-225000J0D01*
G01*
G37*
G36*
G01*
X122023500Y-88127500D02*
X121523500Y-88127500D01*
G75*
G02*
X121298500Y-87902500I0J225000D01*
G01*
X121298500Y-87452500D01*
G75*
G02*
X121523500Y-87227500I225000J0D01*
G01*
X122023500Y-87227500D01*
G75*
G02*
X122248500Y-87452500I0J-225000D01*
G01*
X122248500Y-87902500D01*
G75*
G02*
X122023500Y-88127500I-225000J0D01*
G01*
G37*
G36*
G01*
X150768000Y-117757500D02*
X150768000Y-117257500D01*
G75*
G02*
X150993000Y-117032500I225000J0D01*
G01*
X151443000Y-117032500D01*
G75*
G02*
X151668000Y-117257500I0J-225000D01*
G01*
X151668000Y-117757500D01*
G75*
G02*
X151443000Y-117982500I-225000J0D01*
G01*
X150993000Y-117982500D01*
G75*
G02*
X150768000Y-117757500I0J225000D01*
G01*
G37*
G36*
G01*
X149218000Y-117757500D02*
X149218000Y-117257500D01*
G75*
G02*
X149443000Y-117032500I225000J0D01*
G01*
X149893000Y-117032500D01*
G75*
G02*
X150118000Y-117257500I0J-225000D01*
G01*
X150118000Y-117757500D01*
G75*
G02*
X149893000Y-117982500I-225000J0D01*
G01*
X149443000Y-117982500D01*
G75*
G02*
X149218000Y-117757500I0J225000D01*
G01*
G37*
G36*
G01*
X141990000Y-126295500D02*
X142490000Y-126295500D01*
G75*
G02*
X142715000Y-126520500I0J-225000D01*
G01*
X142715000Y-126970500D01*
G75*
G02*
X142490000Y-127195500I-225000J0D01*
G01*
X141990000Y-127195500D01*
G75*
G02*
X141765000Y-126970500I0J225000D01*
G01*
X141765000Y-126520500D01*
G75*
G02*
X141990000Y-126295500I225000J0D01*
G01*
G37*
G36*
G01*
X141990000Y-124745500D02*
X142490000Y-124745500D01*
G75*
G02*
X142715000Y-124970500I0J-225000D01*
G01*
X142715000Y-125420500D01*
G75*
G02*
X142490000Y-125645500I-225000J0D01*
G01*
X141990000Y-125645500D01*
G75*
G02*
X141765000Y-125420500I0J225000D01*
G01*
X141765000Y-124970500D01*
G75*
G02*
X141990000Y-124745500I225000J0D01*
G01*
G37*
G36*
G01*
X139068500Y-126295500D02*
X139568500Y-126295500D01*
G75*
G02*
X139793500Y-126520500I0J-225000D01*
G01*
X139793500Y-126970500D01*
G75*
G02*
X139568500Y-127195500I-225000J0D01*
G01*
X139068500Y-127195500D01*
G75*
G02*
X138843500Y-126970500I0J225000D01*
G01*
X138843500Y-126520500D01*
G75*
G02*
X139068500Y-126295500I225000J0D01*
G01*
G37*
G36*
G01*
X139068500Y-124745500D02*
X139568500Y-124745500D01*
G75*
G02*
X139793500Y-124970500I0J-225000D01*
G01*
X139793500Y-125420500D01*
G75*
G02*
X139568500Y-125645500I-225000J0D01*
G01*
X139068500Y-125645500D01*
G75*
G02*
X138843500Y-125420500I0J225000D01*
G01*
X138843500Y-124970500D01*
G75*
G02*
X139068500Y-124745500I225000J0D01*
G01*
G37*
G36*
G01*
X133968500Y-126995500D02*
X133968500Y-126495500D01*
G75*
G02*
X134193500Y-126270500I225000J0D01*
G01*
X134643500Y-126270500D01*
G75*
G02*
X134868500Y-126495500I0J-225000D01*
G01*
X134868500Y-126995500D01*
G75*
G02*
X134643500Y-127220500I-225000J0D01*
G01*
X134193500Y-127220500D01*
G75*
G02*
X133968500Y-126995500I0J225000D01*
G01*
G37*
G36*
G01*
X132418500Y-126995500D02*
X132418500Y-126495500D01*
G75*
G02*
X132643500Y-126270500I225000J0D01*
G01*
X133093500Y-126270500D01*
G75*
G02*
X133318500Y-126495500I0J-225000D01*
G01*
X133318500Y-126995500D01*
G75*
G02*
X133093500Y-127220500I-225000J0D01*
G01*
X132643500Y-127220500D01*
G75*
G02*
X132418500Y-126995500I0J225000D01*
G01*
G37*
G36*
G01*
X127211000Y-117915500D02*
X127211000Y-117415500D01*
G75*
G02*
X127436000Y-117190500I225000J0D01*
G01*
X127886000Y-117190500D01*
G75*
G02*
X128111000Y-117415500I0J-225000D01*
G01*
X128111000Y-117915500D01*
G75*
G02*
X127886000Y-118140500I-225000J0D01*
G01*
X127436000Y-118140500D01*
G75*
G02*
X127211000Y-117915500I0J225000D01*
G01*
G37*
G36*
G01*
X125661000Y-117915500D02*
X125661000Y-117415500D01*
G75*
G02*
X125886000Y-117190500I225000J0D01*
G01*
X126336000Y-117190500D01*
G75*
G02*
X126561000Y-117415500I0J-225000D01*
G01*
X126561000Y-117915500D01*
G75*
G02*
X126336000Y-118140500I-225000J0D01*
G01*
X125886000Y-118140500D01*
G75*
G02*
X125661000Y-117915500I0J225000D01*
G01*
G37*
G36*
G01*
X134627500Y-122360500D02*
X134627500Y-121860500D01*
G75*
G02*
X134852500Y-121635500I225000J0D01*
G01*
X135302500Y-121635500D01*
G75*
G02*
X135527500Y-121860500I0J-225000D01*
G01*
X135527500Y-122360500D01*
G75*
G02*
X135302500Y-122585500I-225000J0D01*
G01*
X134852500Y-122585500D01*
G75*
G02*
X134627500Y-122360500I0J225000D01*
G01*
G37*
G36*
G01*
X133077500Y-122360500D02*
X133077500Y-121860500D01*
G75*
G02*
X133302500Y-121635500I225000J0D01*
G01*
X133752500Y-121635500D01*
G75*
G02*
X133977500Y-121860500I0J-225000D01*
G01*
X133977500Y-122360500D01*
G75*
G02*
X133752500Y-122585500I-225000J0D01*
G01*
X133302500Y-122585500D01*
G75*
G02*
X133077500Y-122360500I0J225000D01*
G01*
G37*
G36*
G01*
X120568500Y-121845500D02*
X121068500Y-121845500D01*
G75*
G02*
X121293500Y-122070500I0J-225000D01*
G01*
X121293500Y-122520500D01*
G75*
G02*
X121068500Y-122745500I-225000J0D01*
G01*
X120568500Y-122745500D01*
G75*
G02*
X120343500Y-122520500I0J225000D01*
G01*
X120343500Y-122070500D01*
G75*
G02*
X120568500Y-121845500I225000J0D01*
G01*
G37*
G36*
G01*
X120568500Y-120295500D02*
X121068500Y-120295500D01*
G75*
G02*
X121293500Y-120520500I0J-225000D01*
G01*
X121293500Y-120970500D01*
G75*
G02*
X121068500Y-121195500I-225000J0D01*
G01*
X120568500Y-121195500D01*
G75*
G02*
X120343500Y-120970500I0J225000D01*
G01*
X120343500Y-120520500D01*
G75*
G02*
X120568500Y-120295500I225000J0D01*
G01*
G37*
G36*
G01*
X107068500Y-124295500D02*
X107568500Y-124295500D01*
G75*
G02*
X107793500Y-124520500I0J-225000D01*
G01*
X107793500Y-124970500D01*
G75*
G02*
X107568500Y-125195500I-225000J0D01*
G01*
X107068500Y-125195500D01*
G75*
G02*
X106843500Y-124970500I0J225000D01*
G01*
X106843500Y-124520500D01*
G75*
G02*
X107068500Y-124295500I225000J0D01*
G01*
G37*
G36*
G01*
X107068500Y-122745500D02*
X107568500Y-122745500D01*
G75*
G02*
X107793500Y-122970500I0J-225000D01*
G01*
X107793500Y-123420500D01*
G75*
G02*
X107568500Y-123645500I-225000J0D01*
G01*
X107068500Y-123645500D01*
G75*
G02*
X106843500Y-123420500I0J225000D01*
G01*
X106843500Y-122970500D01*
G75*
G02*
X107068500Y-122745500I225000J0D01*
G01*
G37*
G36*
G01*
X156991500Y-101894000D02*
X156991500Y-102394000D01*
G75*
G02*
X156766500Y-102619000I-225000J0D01*
G01*
X156316500Y-102619000D01*
G75*
G02*
X156091500Y-102394000I0J225000D01*
G01*
X156091500Y-101894000D01*
G75*
G02*
X156316500Y-101669000I225000J0D01*
G01*
X156766500Y-101669000D01*
G75*
G02*
X156991500Y-101894000I0J-225000D01*
G01*
G37*
G36*
G01*
X158541500Y-101894000D02*
X158541500Y-102394000D01*
G75*
G02*
X158316500Y-102619000I-225000J0D01*
G01*
X157866500Y-102619000D01*
G75*
G02*
X157641500Y-102394000I0J225000D01*
G01*
X157641500Y-101894000D01*
G75*
G02*
X157866500Y-101669000I225000J0D01*
G01*
X158316500Y-101669000D01*
G75*
G02*
X158541500Y-101894000I0J-225000D01*
G01*
G37*
G36*
G01*
X182109000Y-116194000D02*
X182609000Y-116194000D01*
G75*
G02*
X182834000Y-116419000I0J-225000D01*
G01*
X182834000Y-116869000D01*
G75*
G02*
X182609000Y-117094000I-225000J0D01*
G01*
X182109000Y-117094000D01*
G75*
G02*
X181884000Y-116869000I0J225000D01*
G01*
X181884000Y-116419000D01*
G75*
G02*
X182109000Y-116194000I225000J0D01*
G01*
G37*
G36*
G01*
X182109000Y-114644000D02*
X182609000Y-114644000D01*
G75*
G02*
X182834000Y-114869000I0J-225000D01*
G01*
X182834000Y-115319000D01*
G75*
G02*
X182609000Y-115544000I-225000J0D01*
G01*
X182109000Y-115544000D01*
G75*
G02*
X181884000Y-115319000I0J225000D01*
G01*
X181884000Y-114869000D01*
G75*
G02*
X182109000Y-114644000I225000J0D01*
G01*
G37*
G36*
G01*
X180109000Y-116194000D02*
X180609000Y-116194000D01*
G75*
G02*
X180834000Y-116419000I0J-225000D01*
G01*
X180834000Y-116869000D01*
G75*
G02*
X180609000Y-117094000I-225000J0D01*
G01*
X180109000Y-117094000D01*
G75*
G02*
X179884000Y-116869000I0J225000D01*
G01*
X179884000Y-116419000D01*
G75*
G02*
X180109000Y-116194000I225000J0D01*
G01*
G37*
G36*
G01*
X180109000Y-114644000D02*
X180609000Y-114644000D01*
G75*
G02*
X180834000Y-114869000I0J-225000D01*
G01*
X180834000Y-115319000D01*
G75*
G02*
X180609000Y-115544000I-225000J0D01*
G01*
X180109000Y-115544000D01*
G75*
G02*
X179884000Y-115319000I0J225000D01*
G01*
X179884000Y-114869000D01*
G75*
G02*
X180109000Y-114644000I225000J0D01*
G01*
G37*
G36*
G01*
X207903000Y-124671000D02*
X208403000Y-124671000D01*
G75*
G02*
X208628000Y-124896000I0J-225000D01*
G01*
X208628000Y-125346000D01*
G75*
G02*
X208403000Y-125571000I-225000J0D01*
G01*
X207903000Y-125571000D01*
G75*
G02*
X207678000Y-125346000I0J225000D01*
G01*
X207678000Y-124896000D01*
G75*
G02*
X207903000Y-124671000I225000J0D01*
G01*
G37*
G36*
G01*
X207903000Y-123121000D02*
X208403000Y-123121000D01*
G75*
G02*
X208628000Y-123346000I0J-225000D01*
G01*
X208628000Y-123796000D01*
G75*
G02*
X208403000Y-124021000I-225000J0D01*
G01*
X207903000Y-124021000D01*
G75*
G02*
X207678000Y-123796000I0J225000D01*
G01*
X207678000Y-123346000D01*
G75*
G02*
X207903000Y-123121000I225000J0D01*
G01*
G37*
G36*
G01*
X117915500Y-99764000D02*
X117415500Y-99764000D01*
G75*
G02*
X117190500Y-99539000I0J225000D01*
G01*
X117190500Y-99089000D01*
G75*
G02*
X117415500Y-98864000I225000J0D01*
G01*
X117915500Y-98864000D01*
G75*
G02*
X118140500Y-99089000I0J-225000D01*
G01*
X118140500Y-99539000D01*
G75*
G02*
X117915500Y-99764000I-225000J0D01*
G01*
G37*
G36*
G01*
X117915500Y-101314000D02*
X117415500Y-101314000D01*
G75*
G02*
X117190500Y-101089000I0J225000D01*
G01*
X117190500Y-100639000D01*
G75*
G02*
X117415500Y-100414000I225000J0D01*
G01*
X117915500Y-100414000D01*
G75*
G02*
X118140500Y-100639000I0J-225000D01*
G01*
X118140500Y-101089000D01*
G75*
G02*
X117915500Y-101314000I-225000J0D01*
G01*
G37*
G36*
G01*
X117415500Y-113672500D02*
X117915500Y-113672500D01*
G75*
G02*
X118140500Y-113897500I0J-225000D01*
G01*
X118140500Y-114347500D01*
G75*
G02*
X117915500Y-114572500I-225000J0D01*
G01*
X117415500Y-114572500D01*
G75*
G02*
X117190500Y-114347500I0J225000D01*
G01*
X117190500Y-113897500D01*
G75*
G02*
X117415500Y-113672500I225000J0D01*
G01*
G37*
G36*
G01*
X117415500Y-112122500D02*
X117915500Y-112122500D01*
G75*
G02*
X118140500Y-112347500I0J-225000D01*
G01*
X118140500Y-112797500D01*
G75*
G02*
X117915500Y-113022500I-225000J0D01*
G01*
X117415500Y-113022500D01*
G75*
G02*
X117190500Y-112797500I0J225000D01*
G01*
X117190500Y-112347500D01*
G75*
G02*
X117415500Y-112122500I225000J0D01*
G01*
G37*
G36*
G01*
X109911000Y-101223000D02*
X109911000Y-101723000D01*
G75*
G02*
X109686000Y-101948000I-225000J0D01*
G01*
X109236000Y-101948000D01*
G75*
G02*
X109011000Y-101723000I0J225000D01*
G01*
X109011000Y-101223000D01*
G75*
G02*
X109236000Y-100998000I225000J0D01*
G01*
X109686000Y-100998000D01*
G75*
G02*
X109911000Y-101223000I0J-225000D01*
G01*
G37*
G36*
G01*
X111461000Y-101223000D02*
X111461000Y-101723000D01*
G75*
G02*
X111236000Y-101948000I-225000J0D01*
G01*
X110786000Y-101948000D01*
G75*
G02*
X110561000Y-101723000I0J225000D01*
G01*
X110561000Y-101223000D01*
G75*
G02*
X110786000Y-100998000I225000J0D01*
G01*
X111236000Y-100998000D01*
G75*
G02*
X111461000Y-101223000I0J-225000D01*
G01*
G37*
G36*
G01*
X106422000Y-110800000D02*
X105922000Y-110800000D01*
G75*
G02*
X105697000Y-110575000I0J225000D01*
G01*
X105697000Y-110125000D01*
G75*
G02*
X105922000Y-109900000I225000J0D01*
G01*
X106422000Y-109900000D01*
G75*
G02*
X106647000Y-110125000I0J-225000D01*
G01*
X106647000Y-110575000D01*
G75*
G02*
X106422000Y-110800000I-225000J0D01*
G01*
G37*
G36*
G01*
X106422000Y-112350000D02*
X105922000Y-112350000D01*
G75*
G02*
X105697000Y-112125000I0J225000D01*
G01*
X105697000Y-111675000D01*
G75*
G02*
X105922000Y-111450000I225000J0D01*
G01*
X106422000Y-111450000D01*
G75*
G02*
X106647000Y-111675000I0J-225000D01*
G01*
X106647000Y-112125000D01*
G75*
G02*
X106422000Y-112350000I-225000J0D01*
G01*
G37*
G36*
G01*
X105072000Y-103572500D02*
X105072000Y-104072500D01*
G75*
G02*
X104847000Y-104297500I-225000J0D01*
G01*
X104397000Y-104297500D01*
G75*
G02*
X104172000Y-104072500I0J225000D01*
G01*
X104172000Y-103572500D01*
G75*
G02*
X104397000Y-103347500I225000J0D01*
G01*
X104847000Y-103347500D01*
G75*
G02*
X105072000Y-103572500I0J-225000D01*
G01*
G37*
G36*
G01*
X106622000Y-103572500D02*
X106622000Y-104072500D01*
G75*
G02*
X106397000Y-104297500I-225000J0D01*
G01*
X105947000Y-104297500D01*
G75*
G02*
X105722000Y-104072500I0J225000D01*
G01*
X105722000Y-103572500D01*
G75*
G02*
X105947000Y-103347500I225000J0D01*
G01*
X106397000Y-103347500D01*
G75*
G02*
X106622000Y-103572500I0J-225000D01*
G01*
G37*
G36*
G01*
X102344832Y-107766500D02*
X102844832Y-107766500D01*
G75*
G02*
X103069832Y-107991500I0J-225000D01*
G01*
X103069832Y-108441500D01*
G75*
G02*
X102844832Y-108666500I-225000J0D01*
G01*
X102344832Y-108666500D01*
G75*
G02*
X102119832Y-108441500I0J225000D01*
G01*
X102119832Y-107991500D01*
G75*
G02*
X102344832Y-107766500I225000J0D01*
G01*
G37*
G36*
G01*
X102344832Y-106216500D02*
X102844832Y-106216500D01*
G75*
G02*
X103069832Y-106441500I0J-225000D01*
G01*
X103069832Y-106891500D01*
G75*
G02*
X102844832Y-107116500I-225000J0D01*
G01*
X102344832Y-107116500D01*
G75*
G02*
X102119832Y-106891500I0J225000D01*
G01*
X102119832Y-106441500D01*
G75*
G02*
X102344832Y-106216500I225000J0D01*
G01*
G37*
G36*
G01*
X98767666Y-107766500D02*
X99267666Y-107766500D01*
G75*
G02*
X99492666Y-107991500I0J-225000D01*
G01*
X99492666Y-108441500D01*
G75*
G02*
X99267666Y-108666500I-225000J0D01*
G01*
X98767666Y-108666500D01*
G75*
G02*
X98542666Y-108441500I0J225000D01*
G01*
X98542666Y-107991500D01*
G75*
G02*
X98767666Y-107766500I225000J0D01*
G01*
G37*
G36*
G01*
X98767666Y-106216500D02*
X99267666Y-106216500D01*
G75*
G02*
X99492666Y-106441500I0J-225000D01*
G01*
X99492666Y-106891500D01*
G75*
G02*
X99267666Y-107116500I-225000J0D01*
G01*
X98767666Y-107116500D01*
G75*
G02*
X98542666Y-106891500I0J225000D01*
G01*
X98542666Y-106441500D01*
G75*
G02*
X98767666Y-106216500I225000J0D01*
G01*
G37*
G36*
G01*
X95190500Y-107766500D02*
X95690500Y-107766500D01*
G75*
G02*
X95915500Y-107991500I0J-225000D01*
G01*
X95915500Y-108441500D01*
G75*
G02*
X95690500Y-108666500I-225000J0D01*
G01*
X95190500Y-108666500D01*
G75*
G02*
X94965500Y-108441500I0J225000D01*
G01*
X94965500Y-107991500D01*
G75*
G02*
X95190500Y-107766500I225000J0D01*
G01*
G37*
G36*
G01*
X95190500Y-106216500D02*
X95690500Y-106216500D01*
G75*
G02*
X95915500Y-106441500I0J-225000D01*
G01*
X95915500Y-106891500D01*
G75*
G02*
X95690500Y-107116500I-225000J0D01*
G01*
X95190500Y-107116500D01*
G75*
G02*
X94965500Y-106891500I0J225000D01*
G01*
X94965500Y-106441500D01*
G75*
G02*
X95190500Y-106216500I225000J0D01*
G01*
G37*
G36*
G01*
X117915500Y-106418500D02*
X117415500Y-106418500D01*
G75*
G02*
X117190500Y-106193500I0J225000D01*
G01*
X117190500Y-105743500D01*
G75*
G02*
X117415500Y-105518500I225000J0D01*
G01*
X117915500Y-105518500D01*
G75*
G02*
X118140500Y-105743500I0J-225000D01*
G01*
X118140500Y-106193500D01*
G75*
G02*
X117915500Y-106418500I-225000J0D01*
G01*
G37*
G36*
G01*
X117915500Y-107968500D02*
X117415500Y-107968500D01*
G75*
G02*
X117190500Y-107743500I0J225000D01*
G01*
X117190500Y-107293500D01*
G75*
G02*
X117415500Y-107068500I225000J0D01*
G01*
X117915500Y-107068500D01*
G75*
G02*
X118140500Y-107293500I0J-225000D01*
G01*
X118140500Y-107743500D01*
G75*
G02*
X117915500Y-107968500I-225000J0D01*
G01*
G37*
G36*
G01*
X209494000Y-97087500D02*
X209494000Y-96587500D01*
G75*
G02*
X209719000Y-96362500I225000J0D01*
G01*
X210169000Y-96362500D01*
G75*
G02*
X210394000Y-96587500I0J-225000D01*
G01*
X210394000Y-97087500D01*
G75*
G02*
X210169000Y-97312500I-225000J0D01*
G01*
X209719000Y-97312500D01*
G75*
G02*
X209494000Y-97087500I0J225000D01*
G01*
G37*
G36*
G01*
X207944000Y-97087500D02*
X207944000Y-96587500D01*
G75*
G02*
X208169000Y-96362500I225000J0D01*
G01*
X208619000Y-96362500D01*
G75*
G02*
X208844000Y-96587500I0J-225000D01*
G01*
X208844000Y-97087500D01*
G75*
G02*
X208619000Y-97312500I-225000J0D01*
G01*
X208169000Y-97312500D01*
G75*
G02*
X207944000Y-97087500I0J225000D01*
G01*
G37*
G36*
G01*
X75178500Y-89658000D02*
X75178500Y-89158000D01*
G75*
G02*
X75403500Y-88933000I225000J0D01*
G01*
X75853500Y-88933000D01*
G75*
G02*
X76078500Y-89158000I0J-225000D01*
G01*
X76078500Y-89658000D01*
G75*
G02*
X75853500Y-89883000I-225000J0D01*
G01*
X75403500Y-89883000D01*
G75*
G02*
X75178500Y-89658000I0J225000D01*
G01*
G37*
G36*
G01*
X73628500Y-89658000D02*
X73628500Y-89158000D01*
G75*
G02*
X73853500Y-88933000I225000J0D01*
G01*
X74303500Y-88933000D01*
G75*
G02*
X74528500Y-89158000I0J-225000D01*
G01*
X74528500Y-89658000D01*
G75*
G02*
X74303500Y-89883000I-225000J0D01*
G01*
X73853500Y-89883000D01*
G75*
G02*
X73628500Y-89658000I0J225000D01*
G01*
G37*
G36*
G01*
X150420500Y-104512500D02*
X150920500Y-104512500D01*
G75*
G02*
X151145500Y-104737500I0J-225000D01*
G01*
X151145500Y-105187500D01*
G75*
G02*
X150920500Y-105412500I-225000J0D01*
G01*
X150420500Y-105412500D01*
G75*
G02*
X150195500Y-105187500I0J225000D01*
G01*
X150195500Y-104737500D01*
G75*
G02*
X150420500Y-104512500I225000J0D01*
G01*
G37*
G36*
G01*
X150420500Y-102962500D02*
X150920500Y-102962500D01*
G75*
G02*
X151145500Y-103187500I0J-225000D01*
G01*
X151145500Y-103637500D01*
G75*
G02*
X150920500Y-103862500I-225000J0D01*
G01*
X150420500Y-103862500D01*
G75*
G02*
X150195500Y-103637500I0J225000D01*
G01*
X150195500Y-103187500D01*
G75*
G02*
X150420500Y-102962500I225000J0D01*
G01*
G37*
G36*
G01*
X171999500Y-80872500D02*
X172499500Y-80872500D01*
G75*
G02*
X172724500Y-81097500I0J-225000D01*
G01*
X172724500Y-81547500D01*
G75*
G02*
X172499500Y-81772500I-225000J0D01*
G01*
X171999500Y-81772500D01*
G75*
G02*
X171774500Y-81547500I0J225000D01*
G01*
X171774500Y-81097500D01*
G75*
G02*
X171999500Y-80872500I225000J0D01*
G01*
G37*
G36*
G01*
X171999500Y-79322500D02*
X172499500Y-79322500D01*
G75*
G02*
X172724500Y-79547500I0J-225000D01*
G01*
X172724500Y-79997500D01*
G75*
G02*
X172499500Y-80222500I-225000J0D01*
G01*
X171999500Y-80222500D01*
G75*
G02*
X171774500Y-79997500I0J225000D01*
G01*
X171774500Y-79547500D01*
G75*
G02*
X171999500Y-79322500I225000J0D01*
G01*
G37*
G36*
G01*
X176749500Y-81122500D02*
X176749500Y-80622500D01*
G75*
G02*
X176974500Y-80397500I225000J0D01*
G01*
X177424500Y-80397500D01*
G75*
G02*
X177649500Y-80622500I0J-225000D01*
G01*
X177649500Y-81122500D01*
G75*
G02*
X177424500Y-81347500I-225000J0D01*
G01*
X176974500Y-81347500D01*
G75*
G02*
X176749500Y-81122500I0J225000D01*
G01*
G37*
G36*
G01*
X175199500Y-81122500D02*
X175199500Y-80622500D01*
G75*
G02*
X175424500Y-80397500I225000J0D01*
G01*
X175874500Y-80397500D01*
G75*
G02*
X176099500Y-80622500I0J-225000D01*
G01*
X176099500Y-81122500D01*
G75*
G02*
X175874500Y-81347500I-225000J0D01*
G01*
X175424500Y-81347500D01*
G75*
G02*
X175199500Y-81122500I0J225000D01*
G01*
G37*
G36*
G01*
X150420500Y-100871500D02*
X150920500Y-100871500D01*
G75*
G02*
X151145500Y-101096500I0J-225000D01*
G01*
X151145500Y-101546500D01*
G75*
G02*
X150920500Y-101771500I-225000J0D01*
G01*
X150420500Y-101771500D01*
G75*
G02*
X150195500Y-101546500I0J225000D01*
G01*
X150195500Y-101096500D01*
G75*
G02*
X150420500Y-100871500I225000J0D01*
G01*
G37*
G36*
G01*
X150420500Y-99321500D02*
X150920500Y-99321500D01*
G75*
G02*
X151145500Y-99546500I0J-225000D01*
G01*
X151145500Y-99996500D01*
G75*
G02*
X150920500Y-100221500I-225000J0D01*
G01*
X150420500Y-100221500D01*
G75*
G02*
X150195500Y-99996500I0J225000D01*
G01*
X150195500Y-99546500D01*
G75*
G02*
X150420500Y-99321500I225000J0D01*
G01*
G37*
G36*
G01*
X138869000Y-108327000D02*
X138869000Y-107827000D01*
G75*
G02*
X139094000Y-107602000I225000J0D01*
G01*
X139544000Y-107602000D01*
G75*
G02*
X139769000Y-107827000I0J-225000D01*
G01*
X139769000Y-108327000D01*
G75*
G02*
X139544000Y-108552000I-225000J0D01*
G01*
X139094000Y-108552000D01*
G75*
G02*
X138869000Y-108327000I0J225000D01*
G01*
G37*
G36*
G01*
X137319000Y-108327000D02*
X137319000Y-107827000D01*
G75*
G02*
X137544000Y-107602000I225000J0D01*
G01*
X137994000Y-107602000D01*
G75*
G02*
X138219000Y-107827000I0J-225000D01*
G01*
X138219000Y-108327000D01*
G75*
G02*
X137994000Y-108552000I-225000J0D01*
G01*
X137544000Y-108552000D01*
G75*
G02*
X137319000Y-108327000I0J225000D01*
G01*
G37*
G36*
G01*
X138868500Y-106582500D02*
X138868500Y-106082500D01*
G75*
G02*
X139093500Y-105857500I225000J0D01*
G01*
X139543500Y-105857500D01*
G75*
G02*
X139768500Y-106082500I0J-225000D01*
G01*
X139768500Y-106582500D01*
G75*
G02*
X139543500Y-106807500I-225000J0D01*
G01*
X139093500Y-106807500D01*
G75*
G02*
X138868500Y-106582500I0J225000D01*
G01*
G37*
G36*
G01*
X137318500Y-106582500D02*
X137318500Y-106082500D01*
G75*
G02*
X137543500Y-105857500I225000J0D01*
G01*
X137993500Y-105857500D01*
G75*
G02*
X138218500Y-106082500I0J-225000D01*
G01*
X138218500Y-106582500D01*
G75*
G02*
X137993500Y-106807500I-225000J0D01*
G01*
X137543500Y-106807500D01*
G75*
G02*
X137318500Y-106582500I0J225000D01*
G01*
G37*
G36*
G01*
X141658033Y-87211087D02*
X142011587Y-86857533D01*
G75*
G02*
X142329785Y-86857533I159099J-159099D01*
G01*
X142647983Y-87175731D01*
G75*
G02*
X142647983Y-87493929I-159099J-159099D01*
G01*
X142294429Y-87847483D01*
G75*
G02*
X141976231Y-87847483I-159099J159099D01*
G01*
X141658033Y-87529285D01*
G75*
G02*
X141658033Y-87211087I159099J159099D01*
G01*
G37*
G36*
G01*
X140562017Y-86115071D02*
X140915571Y-85761517D01*
G75*
G02*
X141233769Y-85761517I159099J-159099D01*
G01*
X141551967Y-86079715D01*
G75*
G02*
X141551967Y-86397913I-159099J-159099D01*
G01*
X141198413Y-86751467D01*
G75*
G02*
X140880215Y-86751467I-159099J159099D01*
G01*
X140562017Y-86433269D01*
G75*
G02*
X140562017Y-86115071I159099J159099D01*
G01*
G37*
G36*
G01*
X129599500Y-95102500D02*
X129099500Y-95102500D01*
G75*
G02*
X128874500Y-94877500I0J225000D01*
G01*
X128874500Y-94427500D01*
G75*
G02*
X129099500Y-94202500I225000J0D01*
G01*
X129599500Y-94202500D01*
G75*
G02*
X129824500Y-94427500I0J-225000D01*
G01*
X129824500Y-94877500D01*
G75*
G02*
X129599500Y-95102500I-225000J0D01*
G01*
G37*
G36*
G01*
X129599500Y-96652500D02*
X129099500Y-96652500D01*
G75*
G02*
X128874500Y-96427500I0J225000D01*
G01*
X128874500Y-95977500D01*
G75*
G02*
X129099500Y-95752500I225000J0D01*
G01*
X129599500Y-95752500D01*
G75*
G02*
X129824500Y-95977500I0J-225000D01*
G01*
X129824500Y-96427500D01*
G75*
G02*
X129599500Y-96652500I-225000J0D01*
G01*
G37*
G36*
G01*
X130962587Y-91704467D02*
X130609033Y-91350913D01*
G75*
G02*
X130609033Y-91032715I159099J159099D01*
G01*
X130927231Y-90714517D01*
G75*
G02*
X131245429Y-90714517I159099J-159099D01*
G01*
X131598983Y-91068071D01*
G75*
G02*
X131598983Y-91386269I-159099J-159099D01*
G01*
X131280785Y-91704467D01*
G75*
G02*
X130962587Y-91704467I-159099J159099D01*
G01*
G37*
G36*
G01*
X129866571Y-92800483D02*
X129513017Y-92446929D01*
G75*
G02*
X129513017Y-92128731I159099J159099D01*
G01*
X129831215Y-91810533D01*
G75*
G02*
X130149413Y-91810533I159099J-159099D01*
G01*
X130502967Y-92164087D01*
G75*
G02*
X130502967Y-92482285I-159099J-159099D01*
G01*
X130184769Y-92800483D01*
G75*
G02*
X129866571Y-92800483I-159099J159099D01*
G01*
G37*
G36*
G01*
X141602905Y-102582041D02*
X141956459Y-102935595D01*
G75*
G02*
X141956459Y-103253793I-159099J-159099D01*
G01*
X141638261Y-103571991D01*
G75*
G02*
X141320063Y-103571991I-159099J159099D01*
G01*
X140966509Y-103218437D01*
G75*
G02*
X140966509Y-102900239I159099J159099D01*
G01*
X141284707Y-102582041D01*
G75*
G02*
X141602905Y-102582041I159099J-159099D01*
G01*
G37*
G36*
G01*
X142698921Y-101486025D02*
X143052475Y-101839579D01*
G75*
G02*
X143052475Y-102157777I-159099J-159099D01*
G01*
X142734277Y-102475975D01*
G75*
G02*
X142416079Y-102475975I-159099J159099D01*
G01*
X142062525Y-102122421D01*
G75*
G02*
X142062525Y-101804223I159099J159099D01*
G01*
X142380723Y-101486025D01*
G75*
G02*
X142698921Y-101486025I159099J-159099D01*
G01*
G37*
G36*
G01*
X141985000Y-67683500D02*
X141485000Y-67683500D01*
G75*
G02*
X141260000Y-67458500I0J225000D01*
G01*
X141260000Y-67008500D01*
G75*
G02*
X141485000Y-66783500I225000J0D01*
G01*
X141985000Y-66783500D01*
G75*
G02*
X142210000Y-67008500I0J-225000D01*
G01*
X142210000Y-67458500D01*
G75*
G02*
X141985000Y-67683500I-225000J0D01*
G01*
G37*
G36*
G01*
X141985000Y-69233500D02*
X141485000Y-69233500D01*
G75*
G02*
X141260000Y-69008500I0J225000D01*
G01*
X141260000Y-68558500D01*
G75*
G02*
X141485000Y-68333500I225000J0D01*
G01*
X141985000Y-68333500D01*
G75*
G02*
X142210000Y-68558500I0J-225000D01*
G01*
X142210000Y-69008500D01*
G75*
G02*
X141985000Y-69233500I-225000J0D01*
G01*
G37*
G36*
G01*
X146191421Y-97993525D02*
X146544975Y-98347079D01*
G75*
G02*
X146544975Y-98665277I-159099J-159099D01*
G01*
X146226777Y-98983475D01*
G75*
G02*
X145908579Y-98983475I-159099J159099D01*
G01*
X145555025Y-98629921D01*
G75*
G02*
X145555025Y-98311723I159099J159099D01*
G01*
X145873223Y-97993525D01*
G75*
G02*
X146191421Y-97993525I159099J-159099D01*
G01*
G37*
G36*
G01*
X147287437Y-96897509D02*
X147640991Y-97251063D01*
G75*
G02*
X147640991Y-97569261I-159099J-159099D01*
G01*
X147322793Y-97887459D01*
G75*
G02*
X147004595Y-97887459I-159099J159099D01*
G01*
X146651041Y-97533905D01*
G75*
G02*
X146651041Y-97215707I159099J159099D01*
G01*
X146969239Y-96897509D01*
G75*
G02*
X147287437Y-96897509I159099J-159099D01*
G01*
G37*
G36*
G01*
X133505000Y-104598000D02*
X133505000Y-105098000D01*
G75*
G02*
X133280000Y-105323000I-225000J0D01*
G01*
X132830000Y-105323000D01*
G75*
G02*
X132605000Y-105098000I0J225000D01*
G01*
X132605000Y-104598000D01*
G75*
G02*
X132830000Y-104373000I225000J0D01*
G01*
X133280000Y-104373000D01*
G75*
G02*
X133505000Y-104598000I0J-225000D01*
G01*
G37*
G36*
G01*
X135055000Y-104598000D02*
X135055000Y-105098000D01*
G75*
G02*
X134830000Y-105323000I-225000J0D01*
G01*
X134380000Y-105323000D01*
G75*
G02*
X134155000Y-105098000I0J225000D01*
G01*
X134155000Y-104598000D01*
G75*
G02*
X134380000Y-104373000I225000J0D01*
G01*
X134830000Y-104373000D01*
G75*
G02*
X135055000Y-104598000I0J-225000D01*
G01*
G37*
M02*
